<svg width="42" height="12" viewBox="0 0 42 12" fill="none" xmlns="http://www.w3.org/2000/svg">
<path d="M0.3125 1.00586H3.28613C4.57585 1.00586 5.54883 1.19271 6.20508 1.56641C6.86133 1.9401 7.18945 2.58496 7.18945 3.50098C7.18945 3.88379 7.12109 4.23014 6.98438 4.54004C6.85221 4.84538 6.65853 5.09831 6.40332 5.29883C6.14811 5.49479 5.83366 5.62695 5.45996 5.69531V5.76367C5.84733 5.83203 6.19141 5.9528 6.49219 6.12598C6.79753 6.29915 7.03678 6.54753 7.20996 6.87109C7.3877 7.19466 7.47656 7.61393 7.47656 8.12891C7.47656 8.73958 7.33073 9.25911 7.03906 9.6875C6.75195 10.1159 6.33952 10.4417 5.80176 10.665C5.26855 10.8883 4.63509 11 3.90137 11H0.3125V1.00586ZM1.95312 5.12793H3.52539C4.26823 5.12793 4.7832 5.00716 5.07031 4.76562C5.35742 4.52409 5.50098 4.1709 5.50098 3.70605C5.50098 3.2321 5.33008 2.8903 4.98828 2.68066C4.65104 2.47103 4.11328 2.36621 3.375 2.36621H1.95312V5.12793ZM1.95312 6.4541V9.62598H3.68262C4.44824 9.62598 4.986 9.47786 5.2959 9.18164C5.60579 8.88542 5.76074 8.48438 5.76074 7.97852C5.76074 7.66862 5.6901 7.39974 5.54883 7.17188C5.41211 6.94401 5.18652 6.76855 4.87207 6.64551C4.55762 6.5179 4.13379 6.4541 3.60059 6.4541H1.95312ZM12.3916 3.28906C13.0661 3.28906 13.6449 3.42806 14.1279 3.70605C14.611 3.98405 14.9824 4.37826 15.2422 4.88867C15.502 5.39909 15.6318 6.00977 15.6318 6.7207V7.58203H10.5801C10.5983 8.31576 10.7943 8.88086 11.168 9.27734C11.5462 9.67383 12.0749 9.87207 12.7539 9.87207C13.237 9.87207 13.6699 9.8265 14.0527 9.73535C14.4401 9.63965 14.8389 9.50065 15.249 9.31836V10.624C14.8708 10.8018 14.4857 10.9316 14.0938 11.0137C13.7018 11.0957 13.2324 11.1367 12.6855 11.1367C11.9427 11.1367 11.2887 10.9932 10.7236 10.7061C10.1631 10.4144 9.72331 9.98145 9.4043 9.40723C9.08984 8.83301 8.93262 8.11979 8.93262 7.26758C8.93262 6.41992 9.07617 5.69987 9.36328 5.10742C9.65039 4.51497 10.0537 4.0638 10.5732 3.75391C11.0928 3.44401 11.6989 3.28906 12.3916 3.28906ZM12.3916 4.49902C11.8857 4.49902 11.4756 4.66309 11.1611 4.99121C10.8512 5.31934 10.6689 5.80013 10.6143 6.43359H14.0596C14.055 6.05534 13.9912 5.72038 13.8682 5.42871C13.7497 5.13704 13.5674 4.90918 13.3213 4.74512C13.0798 4.58105 12.7699 4.49902 12.3916 4.49902ZM19.0566 11H17.4434V0.363281H19.0566V11ZM22.96 3.43262V11H21.3535V3.43262H22.96ZM22.167 0.53418C22.4131 0.53418 22.625 0.60026 22.8027 0.732422C22.985 0.864583 23.0762 1.09245 23.0762 1.41602C23.0762 1.73503 22.985 1.96289 22.8027 2.09961C22.625 2.23177 22.4131 2.29785 22.167 2.29785C21.9118 2.29785 21.6953 2.23177 21.5176 2.09961C21.3444 1.96289 21.2578 1.73503 21.2578 1.41602C21.2578 1.09245 21.3444 0.864583 21.5176 0.732422C21.6953 0.60026 21.9118 0.53418 22.167 0.53418ZM32.8379 1.00586L29.3447 11H27.6084L24.1152 1.00586H25.7969L27.9023 7.26758C27.9661 7.44987 28.0345 7.6709 28.1074 7.93066C28.1849 8.19043 28.2555 8.45247 28.3193 8.7168C28.3877 8.98112 28.4401 9.21582 28.4766 9.4209C28.513 9.21582 28.5632 8.98112 28.627 8.7168C28.6953 8.45247 28.766 8.19043 28.8389 7.93066C28.9118 7.6709 28.9801 7.44759 29.0439 7.26074L31.1562 1.00586H32.8379ZM36.96 1.00586C37.8213 1.00586 38.5322 1.11068 39.0928 1.32031C39.6579 1.52995 40.0771 1.84896 40.3506 2.27734C40.6286 2.70573 40.7676 3.25033 40.7676 3.91113C40.7676 4.40332 40.6764 4.82259 40.4941 5.16895C40.3118 5.5153 40.0726 5.80241 39.7764 6.03027C39.4801 6.25814 39.1634 6.44043 38.8262 6.57715L41.6631 11H39.8105L37.3975 6.99414H35.791V11H34.1504V1.00586H36.96ZM36.8506 2.37305H35.791V5.64062H36.9258C37.6868 5.64062 38.2383 5.49935 38.5801 5.2168C38.9264 4.93424 39.0996 4.51725 39.0996 3.96582C39.0996 3.38704 38.915 2.97689 38.5459 2.73535C38.1813 2.49382 37.6162 2.37305 36.8506 2.37305Z" fill="white"/>
</svg>
