<svg width="313" height="50" viewBox="0 0 313 50" fill="none" xmlns="http://www.w3.org/2000/svg">
<path d="M28.0625 25L51.2426 49H131.532H219.677H259.822L284.062 25L271.942 13L259.822 1H219.677H131.532H51.2426L28.0625 25Z" fill="black" fillOpacity="0.36" stroke="#F1A738" strokeWidth="2"/>
<path d="M66.5775 17.5583H68.6975L70.4375 22.3783L72.1975 17.5583H74.2975L71.8775 23.8783L73.9975 29.0983L78.4175 17.4983H80.8775L75.0175 31.6983H73.0975L70.4575 25.3383L67.7975 31.6983H65.8775L60.0175 17.4983H62.4575L66.8975 29.0983L69.0175 23.8783L66.5775 17.5583ZM85.5222 17.4983H87.4822L93.0822 31.6983H90.7222L89.2222 27.8383H83.7422L82.2622 31.6983H79.8822L85.5222 17.4983ZM88.7822 26.1783L86.5022 20.0783L84.1422 26.1783H88.7822ZM103.852 19.4783H99.132V31.6983H96.872V19.4783H92.132V17.4983H103.852V19.4783ZM104.192 24.4983C104.192 23.645 104.346 22.7983 104.652 21.9583C104.959 21.105 105.406 20.345 105.992 19.6783C106.592 18.9983 107.319 18.4516 108.172 18.0383C109.026 17.625 109.992 17.4183 111.072 17.4183C112.366 17.4183 113.472 17.705 114.392 18.2783C115.312 18.8516 116.006 19.5983 116.472 20.5183L114.712 21.6983C114.512 21.2716 114.272 20.9116 113.992 20.6183C113.712 20.325 113.406 20.0916 113.072 19.9183C112.739 19.745 112.392 19.625 112.032 19.5583C111.672 19.4783 111.326 19.4383 110.992 19.4383C110.246 19.4383 109.592 19.5916 109.032 19.8983C108.472 20.1916 107.999 20.585 107.612 21.0783C107.239 21.5716 106.952 22.125 106.752 22.7383C106.566 23.3516 106.472 23.965 106.472 24.5783C106.472 25.2716 106.586 25.9316 106.812 26.5583C107.039 27.185 107.352 27.7383 107.752 28.2183C108.166 28.6983 108.652 29.085 109.212 29.3783C109.772 29.6583 110.386 29.7983 111.052 29.7983C111.399 29.7983 111.752 29.7583 112.112 29.6783C112.486 29.585 112.839 29.445 113.172 29.2583C113.519 29.0583 113.832 28.8116 114.112 28.5183C114.406 28.225 114.646 27.8716 114.832 27.4583L116.692 28.5183C116.466 29.0516 116.146 29.525 115.732 29.9383C115.319 30.3383 114.852 30.6783 114.332 30.9583C113.812 31.2383 113.259 31.4516 112.672 31.5983C112.099 31.745 111.532 31.8183 110.972 31.8183C109.972 31.8183 109.059 31.605 108.232 31.1783C107.406 30.7516 106.692 30.1983 106.092 29.5183C105.492 28.825 105.026 28.045 104.692 27.1783C104.359 26.2983 104.192 25.405 104.192 24.4983ZM130.424 17.4983V31.6983H128.164V25.4383H121.004V31.6983H118.764V17.4983H121.004V23.4383H128.164V17.4983H130.424ZM148.422 19.4783H143.702V31.6983H141.442V19.4783H136.702V17.4983H148.422V19.4783ZM150.327 31.6983V17.4983H156.507C157.147 17.4983 157.733 17.6316 158.267 17.8983C158.813 18.165 159.28 18.5183 159.667 18.9583C160.053 19.385 160.353 19.8783 160.567 20.4383C160.793 20.985 160.907 21.545 160.907 22.1183C160.907 22.5983 160.84 23.0583 160.707 23.4983C160.573 23.9383 160.387 24.345 160.147 24.7183C159.907 25.0916 159.613 25.4183 159.267 25.6983C158.92 25.965 158.54 26.165 158.127 26.2983L161.467 31.6983H158.927L155.847 26.7583H152.567V31.6983H150.327ZM152.567 24.7783H156.487C156.807 24.7783 157.093 24.7116 157.347 24.5783C157.613 24.4316 157.84 24.2383 158.027 23.9983C158.213 23.745 158.36 23.4583 158.467 23.1383C158.573 22.8183 158.627 22.4783 158.627 22.1183C158.627 21.7583 158.56 21.4183 158.427 21.0983C158.307 20.7783 158.14 20.4983 157.927 20.2583C157.727 20.0183 157.487 19.8316 157.207 19.6983C156.94 19.5516 156.66 19.4783 156.367 19.4783H152.567V24.7783ZM167.514 17.4983H169.474L175.074 31.6983H172.714L171.214 27.8383H165.734L164.254 31.6983H161.874L167.514 17.4983ZM170.774 26.1783L168.494 20.0783L166.134 26.1783H170.774ZM176.83 31.6983V17.4983H179.07V31.6983H176.83ZM182.28 31.6983V17.4983H184.52V29.7183H192.14V31.6983H182.28ZM203.699 29.7183V31.6983H193.959V17.4983H203.519V19.4783H196.199V23.5183H202.539V25.3783H196.199V29.7183H203.699ZM206.01 31.6983V17.4983H212.19C212.83 17.4983 213.417 17.6316 213.95 17.8983C214.497 18.165 214.963 18.5183 215.35 18.9583C215.737 19.385 216.037 19.8783 216.25 20.4383C216.477 20.985 216.59 21.545 216.59 22.1183C216.59 22.5983 216.523 23.0583 216.39 23.4983C216.257 23.9383 216.07 24.345 215.83 24.7183C215.59 25.0916 215.297 25.4183 214.95 25.6983C214.603 25.965 214.223 26.165 213.81 26.2983L217.15 31.6983H214.61L211.53 26.7583H208.25V31.6983H206.01ZM208.25 24.7783H212.17C212.49 24.7783 212.777 24.7116 213.03 24.5783C213.297 24.4316 213.523 24.2383 213.71 23.9983C213.897 23.745 214.043 23.4583 214.15 23.1383C214.257 22.8183 214.31 22.4783 214.31 22.1183C214.31 21.7583 214.243 21.4183 214.11 21.0983C213.99 20.7783 213.823 20.4983 213.61 20.2583C213.41 20.0183 213.17 19.8316 212.89 19.6983C212.623 19.5516 212.343 19.4783 212.05 19.4783H208.25V24.7783Z" fill="white"/>
<path d="M312.062 25L284.062 25" stroke="url(#paint0_linear_104_321)" strokeWidth="2"/>
<path d="M236.161 29.8358C236.442 29.8358 236.692 29.7413 237.012 29.5586L244.612 25.225C245.181 24.9038 245.437 24.6329 245.437 24.1983C245.437 23.77 245.181 23.4991 244.612 23.1716L237.012 18.8379C236.692 18.6553 236.442 18.5608 236.161 18.5608C235.604 18.5608 235.188 18.9828 235.188 19.6568V28.7398C235.188 29.4201 235.604 29.8358 236.161 29.8358Z" fill="#F1A738"/>
<circle cx="238.938" cy="24.1983" r="12" stroke="#F1A738" strokeWidth="2"/>
<path d="M0 25H28" stroke="#F1A738" strokeWidth="2"/>
<defs>
<linearGradient id="paint0_linear_104_321" x1="284.062" y1="25" x2="308.813" y2="25" gradientUnits="userSpaceOnUse">
<stop stop-color="#F1A738"/>
<stop offset="1" stop-color="#F1A738" stop-opacity="0"/>
</linearGradient>
</defs>
</svg>
