<svg width="266" height="50" viewBox="0 0 266 50" fill="none" xmlns="http://www.w3.org/2000/svg">
<path d="M212.697 1H52.1176L28.9375 25L52.1176 49H212.697L236.938 25L224.817 13L212.697 1Z" fill="black" fillOpacity="0.36" stroke="#F1A738" strokeWidth="2"/>
<path d="M237.062 24.875H265.062" stroke="#F1A738" strokeWidth="2"/>
<path d="M0.9375 25H28.9375" stroke="url(#paint0_linear_103_320)" strokeWidth="2"/>
<path d="M82.0375 31.6983V17.4983H87.9975C88.6375 17.4983 89.2242 17.6316 89.7575 17.8983C90.3042 18.165 90.7708 18.5183 91.1575 18.9583C91.5442 19.385 91.8442 19.8783 92.0575 20.4383C92.2842 20.985 92.3975 21.545 92.3975 22.1183C92.3975 22.7183 92.2908 23.2983 92.0775 23.8583C91.8775 24.405 91.5908 24.8983 91.2175 25.3383C90.8442 25.765 90.3908 26.1116 89.8575 26.3783C89.3375 26.6316 88.7575 26.7583 88.1175 26.7583H84.2775V31.6983H82.0375ZM84.2775 24.7783H87.9775C88.2975 24.7783 88.5842 24.7116 88.8375 24.5783C89.1042 24.445 89.3308 24.2583 89.5175 24.0183C89.7042 23.7783 89.8508 23.4983 89.9575 23.1783C90.0642 22.8583 90.1175 22.505 90.1175 22.1183C90.1175 21.7183 90.0575 21.3583 89.9375 21.0383C89.8175 20.7183 89.6508 20.445 89.4375 20.2183C89.2242 19.9783 88.9775 19.7983 88.6975 19.6783C88.4308 19.545 88.1508 19.4783 87.8575 19.4783H84.2775V24.7783ZM94.4984 31.6983V17.4983H96.7384V29.7183H104.358V31.6983H94.4984ZM110.358 17.4983H112.318L117.918 31.6983H115.558L114.058 27.8383H108.578L107.098 31.6983H104.718L110.358 17.4983ZM113.618 26.1783L111.338 20.0783L108.978 26.1783H113.618ZM119.054 17.4983L122.974 24.6183L126.934 17.4983H129.394L124.094 26.6183V31.6983H121.854V26.5783L116.594 17.4983H119.054ZM137.656 21.6983V31.6983H135.416V17.4983H137.176L145.296 27.7383V17.5183H147.556V31.6983H145.696L137.656 21.6983ZM156.648 31.7983C155.635 31.7983 154.708 31.5983 153.868 31.1983C153.042 30.785 152.328 30.245 151.728 29.5783C151.128 28.8983 150.662 28.125 150.328 27.2583C150.008 26.3916 149.848 25.505 149.848 24.5983C149.848 23.6516 150.022 22.745 150.368 21.8783C150.715 21.0116 151.188 20.245 151.788 19.5783C152.402 18.9116 153.122 18.385 153.948 17.9983C154.788 17.5983 155.702 17.3983 156.688 17.3983C157.702 17.3983 158.622 17.6116 159.448 18.0383C160.288 18.4516 161.002 18.9983 161.588 19.6783C162.188 20.3583 162.648 21.1316 162.968 21.9983C163.302 22.8516 163.468 23.725 163.468 24.6183C163.468 25.565 163.295 26.4716 162.948 27.3383C162.615 28.205 162.142 28.9716 161.528 29.6383C160.915 30.2916 160.188 30.8183 159.348 31.2183C158.522 31.605 157.622 31.7983 156.648 31.7983ZM152.128 24.5983C152.128 25.265 152.235 25.9116 152.448 26.5383C152.662 27.165 152.962 27.7183 153.348 28.1983C153.748 28.6783 154.228 29.065 154.788 29.3583C155.348 29.6383 155.975 29.7783 156.668 29.7783C157.388 29.7783 158.022 29.6316 158.568 29.3383C159.128 29.0316 159.602 28.6316 159.988 28.1383C160.375 27.645 160.668 27.0916 160.868 26.4783C161.068 25.865 161.168 25.2383 161.168 24.5983C161.168 23.9183 161.062 23.2716 160.848 22.6583C160.635 22.0316 160.328 21.485 159.928 21.0183C159.542 20.5383 159.068 20.1583 158.508 19.8783C157.962 19.585 157.348 19.4383 156.668 19.4383C155.948 19.4383 155.308 19.5916 154.748 19.8983C154.188 20.1916 153.715 20.5783 153.328 21.0583C152.942 21.5383 152.642 22.0916 152.428 22.7183C152.228 23.3316 152.128 23.9583 152.128 24.5983ZM170.3 17.5583H172.42L174.16 22.3783L175.92 17.5583H178.02L175.6 23.8783L177.72 29.0983L182.14 17.4983H184.6L178.74 31.6983H176.82L174.18 25.3383L171.52 31.6983H169.6L163.74 17.4983H166.18L170.62 29.0983L172.74 23.8783L170.3 17.5583Z" fill="white"/>
<defs>
<linearGradient id="paint0_linear_103_320" x1="28.9375" y1="25" x2="4.1875" y2="25" gradientUnits="userSpaceOnUse">
<stop stop-color="#F1A738"/>
<stop offset="1" stop-color="#F1A738" stop-opacity="0"/>
</linearGradient>
</defs>
</svg>
