<svg width="249" height="60" viewBox="0 0 249 60" fill="none" xmlns="http://www.w3.org/2000/svg">
<line x1="0.0141128" y1="54.5" x2="248.014" y2="55.5" stroke="black" strokeWidth="7"/>
<path d="M170.094 30.0787L149.845 46.3346L149.957 46.6563L175.924 46.6993L177.147 50.1843L146.16 49.7347L144.956 46.3033L168.871 26.5938L170.094 30.0787Z" fill="black"/>
<path d="M203 51.0909V22H212.83C215.102 22 216.968 22.3883 218.426 23.1648C219.884 23.9318 220.964 24.9877 221.665 26.3324C222.366 27.6771 222.716 29.2064 222.716 30.9205C222.716 32.6345 222.366 34.1544 221.665 35.4801C220.964 36.8059 219.889 37.8475 218.44 38.6051C216.991 39.3532 215.14 39.7273 212.886 39.7273H204.932V36.5455H212.773C214.326 36.5455 215.576 36.3182 216.523 35.8636C217.479 35.4091 218.17 34.7652 218.597 33.9318C219.032 33.089 219.25 32.0852 219.25 30.9205C219.25 29.7557 219.032 28.7377 218.597 27.8665C218.161 26.9953 217.465 26.3229 216.509 25.8494C215.552 25.3665 214.288 25.125 212.716 25.125H206.523V51.0909H203ZM216.693 38.0227L223.852 51.0909H219.761L212.716 38.0227H216.693Z" fill="black"/>
<path d="M3 44.0909V15H13.1705C15.197 15 16.8684 15.3504 18.1847 16.0511C19.5009 16.7424 20.4811 17.6752 21.125 18.8494C21.7689 20.0142 22.0909 21.3068 22.0909 22.7273C22.0909 23.9773 21.8684 25.0095 21.4233 25.8239C20.9877 26.6383 20.41 27.2822 19.6903 27.7557C18.9801 28.2292 18.2083 28.5795 17.375 28.8068V29.0909C18.2652 29.1477 19.16 29.4602 20.0597 30.0284C20.9593 30.5966 21.7121 31.411 22.3182 32.4716C22.9242 33.5322 23.2273 34.8295 23.2273 36.3636C23.2273 37.822 22.8958 39.1335 22.233 40.2983C21.5701 41.4631 20.5237 42.3864 19.0938 43.0682C17.6638 43.75 15.803 44.0909 13.5114 44.0909H3ZM6.52273 40.9659H13.5114C15.8125 40.9659 17.446 40.5208 18.4119 39.6307C19.3873 38.7311 19.875 37.642 19.875 36.3636C19.875 35.3788 19.6241 34.4697 19.1222 33.6364C18.6203 32.7936 17.9053 32.1212 16.9773 31.6193C16.0492 31.108 14.9508 30.8523 13.6818 30.8523H6.52273V40.9659ZM6.52273 27.7841H13.0568C14.1174 27.7841 15.0739 27.5758 15.9261 27.1591C16.7879 26.7424 17.4697 26.1553 17.9716 25.3977C18.483 24.6402 18.7386 23.75 18.7386 22.7273C18.7386 21.4489 18.2936 20.3646 17.4034 19.4744C16.5133 18.5748 15.1023 18.125 13.1705 18.125H6.52273V27.7841Z" fill="black"/>
<line x1="7" y1="44" x2="7" y2="48" stroke="black" strokeWidth="2"/>
<line x1="17" y1="43" x2="17" y2="47" stroke="black" strokeWidth="2"/>
<path d="M25.4008 46.7016L25.1733 46.347C25.1701 46.3419 25.1652 46.3384 25.1613 46.3338C25.1413 46.301 25.1177 46.2681 25.0863 46.2356C24.7818 45.921 24.0706 45.8649 22.9704 46.068L23.0116 47.3132C22.9029 47.3384 22.7911 47.3636 22.676 47.3884L22.631 46.0305L22.0277 45.8611L21.6718 46.7667C21.6492 46.8241 21.5988 46.8621 21.5421 46.8716C21.5129 46.8764 21.4822 46.8739 21.4526 46.8622C21.3657 46.8281 21.323 46.7298 21.3571 46.643L21.7005 45.7691L21.2983 45.6561L20.949 46.5449C20.9264 46.6023 20.876 46.6403 20.8194 46.6498C20.7902 46.6546 20.7594 46.6521 20.7299 46.6404C20.6429 46.6063 20.6002 46.508 20.6344 46.4212L20.9711 45.5642L20.569 45.4512L20.2263 46.3231C20.2036 46.3805 20.1533 46.4185 20.0966 46.428C20.0674 46.4328 20.0366 46.4303 20.0071 46.4186C19.9201 46.3845 19.8774 46.2862 19.9116 46.1994L20.2418 45.3593L19.8395 45.2461L19.5035 46.1013C19.4809 46.1587 19.4305 46.1967 19.3738 46.2062C19.3446 46.211 19.3138 46.2085 19.2843 46.1968C19.1973 46.1627 19.1547 46.0644 19.1888 45.9776L19.5124 45.1543L19.0271 45.0178C18.9449 44.9948 18.8585 45.0365 18.8254 45.1153C18.792 45.1946 17.985 47.0506 15.7809 46.2171C15.7721 46.2137 15.7628 46.2155 15.7537 46.2137C15.7424 46.2113 15.7318 46.2068 15.7197 46.2069C15.5868 46.2065 15.4315 46.2056 15.4002 46.0189C15.3848 45.9269 15.2978 45.8646 15.2056 45.8801C15.1136 45.8955 15.0514 45.9827 15.0668 46.0747C15.1103 46.3343 15.2934 46.4619 15.5491 46.5228C15.5336 47.2883 15.5052 48.3983 15.4857 48.5231C15.4845 48.5306 15.4874 48.5377 15.4871 48.5451C15.4869 48.5559 15.4841 48.5665 15.4859 48.5774L15.6524 49.5717C15.6675 49.6624 15.7525 49.7243 15.8433 49.7112C15.8838 49.7052 19.909 49.122 22.4964 48.7686C22.5942 48.7553 22.6888 48.7408 22.7809 48.7254C24.2094 48.4862 24.9392 48.0118 25.3031 47.6446C25.5411 47.4046 25.5832 47.0197 25.4008 46.7016ZM16.6131 47.1197C16.7693 47.0936 16.9841 47.1286 17.1446 47.223C17.2657 47.0814 17.4574 46.9783 17.6134 46.9522C17.7057 46.9368 17.7927 46.999 17.8081 47.091C17.8235 47.1832 17.7615 47.2702 17.6693 47.2857C17.5324 47.3086 17.3622 47.4533 17.3638 47.5086C17.3642 47.5111 17.3646 47.5137 17.3649 47.5164C17.3759 47.6054 17.3147 47.6882 17.225 47.7032C17.1331 47.7186 17.0461 47.6564 17.0304 47.5647L17.0303 47.5641C17.0143 47.5119 16.806 47.4302 16.6689 47.4532C16.5769 47.4686 16.4897 47.4065 16.4743 47.3144C16.4588 47.2223 16.521 47.1351 16.6131 47.1197ZM25.0631 47.4066C24.7125 47.7603 23.9726 48.2248 22.4507 48.4336C20.1595 48.7465 16.7419 49.2395 15.9585 49.3529L15.8494 48.7009C16.4721 48.6426 18.1083 48.4796 19.8456 48.2291L19.8509 48.2282C20.2183 48.1753 20.5896 48.1184 20.9571 48.0578L20.9806 48.0538C21.0091 48.0492 21.0377 48.0446 21.0662 48.0399C21.1237 48.0302 21.1804 48.02 21.2378 48.0103C21.2836 48.0024 21.3294 47.9948 21.3751 47.9868C21.4505 47.9734 21.525 47.9601 21.5997 47.9466C21.6476 47.9379 21.6957 47.9293 21.7433 47.9205C21.8151 47.9072 21.8859 47.8937 21.9568 47.8801C22.0058 47.8707 22.0548 47.8615 22.1033 47.852C22.1712 47.8387 22.2379 47.825 22.3049 47.8114C22.3551 47.8012 22.4055 47.7911 22.4552 47.7807C22.5185 47.7675 22.5807 47.7539 22.6428 47.7404C22.6938 47.7294 22.7449 47.7183 22.795 47.7072C22.8543 47.6938 22.912 47.6804 22.9701 47.6667C23.0207 47.655 23.0717 47.6432 23.1213 47.6311C23.1768 47.6177 23.2306 47.6041 23.2845 47.5906C23.334 47.578 23.3837 47.5656 23.4318 47.5529C23.4832 47.5395 23.5327 47.5257 23.5825 47.5121C23.6305 47.4989 23.6787 47.4857 23.7253 47.4724C23.7726 47.4588 23.8179 47.4449 23.8635 47.4313C23.9091 47.4174 23.9548 47.4036 23.9986 47.3896C24.0422 47.3758 24.0837 47.3616 24.1256 47.3476C24.1678 47.3333 24.21 47.3192 24.2502 47.3048C24.29 47.2906 24.3276 47.2762 24.3653 47.2619C24.4038 47.2472 24.4424 47.2325 24.4789 47.2177C24.5143 47.2031 24.5473 47.1885 24.5809 47.1738C24.6152 47.1588 24.6496 47.1438 24.6818 47.1285C24.7129 47.1137 24.7414 47.0986 24.7703 47.0837C24.8001 47.0682 24.8299 47.0528 24.8571 47.0373C24.8837 47.022 24.9075 47.0067 24.9317 46.9913C24.9563 46.9756 24.9811 46.9598 25.0031 46.9439C25.0248 46.9283 25.0438 46.9124 25.0628 46.8967C25.0758 46.8858 25.0919 46.8752 25.1038 46.8642L25.1119 46.8769C25.2146 47.0563 25.1945 47.2741 25.0631 47.4066Z" fill="black"/>
<path d="M15.0886 48.7293L14.9228 48.342C14.9204 48.3364 14.9162 48.3322 14.9132 48.327C14.8988 48.2913 14.881 48.2549 14.8553 48.2178C14.607 47.8572 13.9149 47.6844 12.7963 47.703L12.6313 48.9379C12.5199 48.9449 12.4054 48.9513 12.2878 48.9567L12.4676 47.61L11.9006 47.3433L11.4001 48.1777C11.3683 48.2306 11.3123 48.2597 11.2548 48.2597C11.2253 48.2597 11.1953 48.2521 11.1681 48.2357C11.088 48.1877 11.0621 48.0837 11.1101 48.0037L11.5931 47.1985L11.2151 47.0207L10.7238 47.8396C10.6921 47.8925 10.6361 47.9216 10.5786 47.9216C10.549 47.9216 10.5191 47.914 10.4919 47.8976C10.4118 47.8496 10.3859 47.7456 10.4339 47.6656L10.9076 46.876L10.5296 46.6981L10.0476 47.5015C10.0158 47.5544 9.95987 47.5835 9.90239 47.5835C9.8728 47.5835 9.84289 47.5759 9.81566 47.5595C9.73552 47.5115 9.70966 47.4075 9.75767 47.3275L10.2221 46.5534L9.84406 46.3754L9.37139 47.1634C9.3396 47.2163 9.28365 47.2454 9.22617 47.2454C9.19658 47.2454 9.16665 47.2378 9.13944 47.2214C9.0593 47.1733 9.03344 47.0694 9.08145 46.9894L9.53654 46.2309L9.08043 46.016C9.00317 45.9798 8.91104 46.0067 8.8654 46.0789C8.81942 46.1516 7.71702 47.8489 5.68077 46.6628C5.67265 46.6581 5.66319 46.6582 5.65457 46.655C5.64375 46.6508 5.6341 46.6446 5.6221 46.6427C5.49108 46.6204 5.33809 46.5938 5.33809 46.4045C5.33809 46.3112 5.26252 46.2355 5.16904 46.2355C5.07573 46.2355 5 46.3112 5 46.4045C5 46.6677 5.15958 46.8238 5.40167 46.926C5.26 47.6785 5.04868 48.7685 5.0088 48.8884C5.00645 48.8957 5.00812 48.9031 5.00661 48.9104C5.00461 48.921 5.00004 48.931 5.00004 48.942V49.9502C5.00004 50.0422 5.07358 50.1172 5.16538 50.1192C5.20629 50.1201 9.27253 50.2095 11.8827 50.2883C11.9814 50.2913 12.0771 50.2927 12.1704 50.2927C13.6189 50.2927 14.417 49.9453 14.8366 49.6432C15.1109 49.4458 15.2159 49.0732 15.0886 48.7293ZM6.35248 47.6905C6.51089 47.6905 6.71695 47.7605 6.85963 47.8802C7.00247 47.7605 7.20855 47.6905 7.36678 47.6905C7.46028 47.6905 7.53583 47.7662 7.53583 47.8595C7.53583 47.953 7.46026 48.0286 7.36678 48.0286C7.22799 48.0286 7.03629 48.1432 7.02867 48.198C7.02867 48.2005 7.02867 48.2032 7.02851 48.2059C7.02462 48.2955 6.95059 48.367 6.85963 48.367C6.76648 48.367 6.69091 48.2913 6.69058 48.1983V48.1976C6.68347 48.1435 6.49145 48.0286 6.35248 48.0286C6.25916 48.0286 6.18343 47.953 6.18343 47.8595C6.18341 47.7662 6.25914 47.6905 6.35248 47.6905ZM14.6391 49.3688C14.2349 49.6598 13.4285 49.9957 11.893 49.9504C9.58154 49.8806 6.12947 49.8025 5.33815 49.7849V49.1239C5.96196 49.1692 7.60261 49.2786 9.35739 49.3185H9.36281C9.73388 49.3269 10.1095 49.3322 10.4819 49.333H10.5058C10.5347 49.3332 10.5636 49.3334 10.5925 49.3334C10.6508 49.3334 10.7085 49.3327 10.7666 49.3325C10.8131 49.3323 10.8596 49.3323 10.9059 49.332C10.9825 49.3313 11.0582 49.3305 11.1341 49.3295C11.1828 49.3288 11.2317 49.3283 11.28 49.3274C11.3531 49.3262 11.4251 49.3246 11.4973 49.3229C11.5471 49.3217 11.597 49.3207 11.6464 49.3193C11.7155 49.3175 11.7836 49.3149 11.8519 49.3125C11.9032 49.3109 11.9546 49.3092 12.0053 49.3071C12.0699 49.3046 12.1334 49.3014 12.197 49.2983C12.249 49.296 12.3013 49.2935 12.3525 49.2907C12.4132 49.2874 12.4724 49.2836 12.5319 49.2797C12.5838 49.2765 12.636 49.2733 12.6869 49.2696C12.7439 49.2655 12.7991 49.261 12.8546 49.2566C12.9055 49.2523 12.9565 49.2483 13.0061 49.2437C13.059 49.239 13.11 49.2336 13.1614 49.2283C13.211 49.2233 13.2607 49.2182 13.3089 49.2128C13.3577 49.2072 13.4047 49.2009 13.4519 49.195C13.4992 49.189 13.5465 49.1829 13.592 49.1763C13.6373 49.1698 13.6806 49.1628 13.7242 49.1558C13.7682 49.1487 13.8121 49.1418 13.8542 49.1342C13.8958 49.1267 13.9352 49.1188 13.9748 49.1109C14.0152 49.1027 14.0557 49.0946 14.0941 49.086C14.1315 49.0775 14.1665 49.0686 14.202 49.0596C14.2383 49.0505 14.2747 49.0414 14.309 49.0316C14.3421 49.0221 14.3727 49.012 14.4036 49.002C14.4356 48.9917 14.4675 48.9814 14.497 48.9706C14.5257 48.9599 14.5517 48.9487 14.5781 48.9376C14.605 48.9261 14.632 48.9146 14.6564 48.9026C14.6804 48.8908 14.7017 48.8782 14.723 48.8659C14.7377 48.8573 14.7553 48.8495 14.7688 48.8406L14.7747 48.8544C14.8464 49.0483 14.7906 49.2598 14.6391 49.3688Z" fill="black"/>
<path d="M91.0918 44.3523L62.0009 44.3523L62.0009 41L91.0918 41L91.0918 44.3523Z" fill="black"/>
<line x1="68" y1="44" x2="68" y2="48" stroke="black" strokeWidth="2"/>
<path d="M76.368 48.5849L76.2057 48.1961C76.2034 48.1905 76.1992 48.1862 76.1962 48.1809C76.1822 48.1451 76.1647 48.1086 76.1394 48.0712C75.8943 47.7084 75.2038 47.5293 74.0851 47.5377L73.9088 48.7711C73.7974 48.777 73.6829 48.7824 73.5652 48.7867L73.7573 47.4417L73.1928 47.1698L72.6846 47.9996C72.6524 48.0523 72.5961 48.0808 72.5387 48.0803C72.5091 48.08 72.4792 48.0722 72.4522 48.0555C72.3725 48.0068 72.3475 47.9026 72.3963 47.8231L72.8866 47.0223L72.5102 46.841L72.0115 47.6554C71.9792 47.708 71.923 47.7366 71.8656 47.7361C71.836 47.7358 71.8061 47.7279 71.779 47.7113C71.6994 47.6625 71.6744 47.5583 71.7232 47.4788L72.204 46.6935L71.8277 46.5122L71.3384 47.3111C71.3061 47.3637 71.2499 47.3923 71.1924 47.3918C71.1628 47.3915 71.133 47.3836 71.1059 47.367C71.0262 47.3182 71.0013 47.214 71.0501 47.1345L71.5215 46.3647L71.1451 46.1832L70.6653 46.9669C70.633 47.0195 70.5768 47.0481 70.5193 47.0475C70.4897 47.0473 70.4599 47.0394 70.4328 47.0227C70.3531 46.974 70.3282 46.8698 70.3769 46.7903L70.8389 46.0359L70.3848 45.8169C70.3079 45.78 70.2155 45.806 70.1692 45.8778C70.1226 45.9501 69.0047 47.6372 66.9794 46.4327C66.9713 46.4279 66.9618 46.4279 66.9533 46.4246C66.9425 46.4203 66.9329 46.414 66.9209 46.412C66.7901 46.3885 66.6373 46.3606 66.6391 46.1712C66.6399 46.0779 66.565 46.0015 66.4716 46.0007C66.3783 45.9998 66.3018 46.0748 66.301 46.1682C66.2986 46.4314 66.4567 46.5888 66.6979 46.6933C66.5494 47.4445 66.3281 48.5325 66.2871 48.652C66.2847 48.6593 66.2863 48.6667 66.2848 48.674C66.2827 48.6846 66.278 48.6945 66.2779 48.7055L66.2687 49.7137C66.2679 49.8057 66.3407 49.8814 66.4325 49.8842C66.4734 49.8855 70.5387 50.012 73.148 50.1145C73.2467 50.1185 73.3423 50.1207 73.4357 50.1216C74.8841 50.1348 75.6853 49.7946 76.1076 49.4964C76.3838 49.3015 76.4922 48.9299 76.368 48.5849ZM67.6417 47.4664C67.8001 47.4679 68.0055 47.5397 68.1471 47.6607C68.291 47.5423 68.4977 47.4742 68.656 47.4757C68.7494 47.4765 68.8243 47.5529 68.8234 47.6462C68.8226 47.7397 68.7463 47.8146 68.6529 47.8137C68.5141 47.8125 68.3213 47.9253 68.3132 47.98C68.3132 47.9826 68.3132 47.9853 68.313 47.988C68.3083 48.0775 68.2336 48.1484 68.1427 48.1476C68.0495 48.1467 67.9746 48.0703 67.9752 47.9773L67.9752 47.9766C67.9685 47.9225 67.7776 47.8058 67.6386 47.8045C67.5453 47.8036 67.4703 47.7274 67.4711 47.6339C67.4719 47.5406 67.5484 47.4656 67.6417 47.4664ZM75.9127 49.2203C75.5058 49.5075 74.6964 49.8361 73.1614 49.7767C70.8506 49.6859 67.3994 49.5763 66.6083 49.5515L66.6143 48.8905C67.2377 48.9415 68.8773 49.0658 70.6316 49.1217L70.637 49.1218C71.008 49.1336 71.3836 49.1423 71.756 49.1465L71.7798 49.1468C71.8087 49.1472 71.8377 49.1476 71.8666 49.1479C71.9249 49.1484 71.9825 49.1483 72.0407 49.1486C72.0872 49.1489 72.1336 49.1493 72.18 49.1494C72.2566 49.1494 72.3323 49.1493 72.4082 49.1489C72.4569 49.1487 72.5058 49.1486 72.5541 49.1482C72.6272 49.1477 72.6992 49.1467 72.7714 49.1456C72.8213 49.1449 72.8711 49.1444 72.9205 49.1435C72.9897 49.1422 73.0578 49.1403 73.1261 49.1386C73.1774 49.1373 73.2288 49.1361 73.2795 49.1346C73.3441 49.1326 73.4077 49.13 73.4713 49.1275C73.5234 49.1256 73.5756 49.1236 73.6269 49.1213C73.6876 49.1185 73.7468 49.1153 73.8063 49.112C73.8583 49.1092 73.9105 49.1065 73.9614 49.1032C74.0185 49.0997 74.0738 49.0956 74.1293 49.0917C74.1802 49.088 74.2313 49.0844 74.2808 49.0803C74.3338 49.076 74.3849 49.0711 74.4363 49.0663C74.4859 49.0617 74.5357 49.0571 74.5839 49.0521C74.6328 49.047 74.6798 49.0411 74.7271 49.0357C74.7745 49.03 74.8218 49.0244 74.8674 49.0182C74.9127 49.0122 74.9561 49.0055 74.9998 48.9989C75.0438 48.9922 75.0878 48.9857 75.13 48.9785C75.1716 48.9714 75.2111 48.9638 75.2507 48.9562C75.2912 48.9485 75.3318 48.9408 75.3703 48.9325C75.4077 48.9244 75.4428 48.9157 75.4784 48.9071C75.5148 48.8983 75.5512 48.8895 75.5856 48.88C75.6188 48.8709 75.6495 48.861 75.6806 48.8513C75.7126 48.8413 75.7447 48.8313 75.7742 48.8207C75.803 48.8103 75.8291 48.7994 75.8556 48.7885C75.8826 48.7772 75.9097 48.766 75.9342 48.7542C75.9583 48.7426 75.9797 48.7303 76.0011 48.7181C76.0159 48.7097 76.0336 48.702 76.0472 48.6932L76.053 48.7071C76.1229 48.9017 76.0651 49.1126 75.9127 49.2203Z" fill="black"/>
<line x1="85" y1="43" x2="85" y2="47" stroke="black" strokeWidth="2"/>
<path d="M93.4008 46.7016L93.1733 46.347C93.1701 46.3419 93.1652 46.3384 93.1613 46.3338C93.1413 46.301 93.1177 46.2681 93.0863 46.2356C92.7818 45.921 92.0706 45.8649 90.9704 46.068L91.0116 47.3132C90.9029 47.3384 90.7911 47.3636 90.676 47.3884L90.631 46.0305L90.0277 45.8611L89.6718 46.7667C89.6492 46.8241 89.5988 46.8621 89.5421 46.8716C89.5129 46.8764 89.4822 46.8739 89.4526 46.8622C89.3657 46.8281 89.323 46.7298 89.3571 46.643L89.7005 45.7691L89.2983 45.6561L88.949 46.5449C88.9264 46.6023 88.876 46.6403 88.8194 46.6498C88.7902 46.6546 88.7594 46.6521 88.7299 46.6404C88.6429 46.6063 88.6002 46.508 88.6344 46.4212L88.9711 45.5642L88.569 45.4512L88.2263 46.3231C88.2036 46.3805 88.1533 46.4185 88.0966 46.428C88.0674 46.4328 88.0366 46.4303 88.0071 46.4186C87.9201 46.3845 87.8774 46.2862 87.9116 46.1994L88.2418 45.3593L87.8395 45.2461L87.5035 46.1013C87.4809 46.1587 87.4305 46.1967 87.3738 46.2062C87.3446 46.211 87.3138 46.2085 87.2843 46.1968C87.1973 46.1627 87.1547 46.0644 87.1888 45.9776L87.5124 45.1543L87.0271 45.0178C86.9449 44.9948 86.8585 45.0365 86.8254 45.1153C86.792 45.1946 85.985 47.0506 83.7809 46.2171C83.7721 46.2137 83.7628 46.2155 83.7537 46.2137C83.7424 46.2113 83.7318 46.2068 83.7197 46.2069C83.5868 46.2065 83.4315 46.2056 83.4002 46.0189C83.3848 45.9269 83.2978 45.8646 83.2056 45.8801C83.1136 45.8955 83.0514 45.9827 83.0668 46.0747C83.1103 46.3343 83.2934 46.4619 83.5491 46.5228C83.5336 47.2883 83.5052 48.3983 83.4857 48.5231C83.4845 48.5306 83.4874 48.5377 83.4871 48.5451C83.4869 48.5559 83.4841 48.5665 83.4859 48.5774L83.6524 49.5717C83.6675 49.6624 83.7525 49.7243 83.8433 49.7112C83.8838 49.7052 87.909 49.122 90.4964 48.7686C90.5942 48.7553 90.6888 48.7408 90.7809 48.7254C92.2094 48.4862 92.9392 48.0118 93.3031 47.6446C93.5411 47.4046 93.5832 47.0197 93.4008 46.7016ZM84.6131 47.1197C84.7693 47.0936 84.9841 47.1286 85.1446 47.223C85.2657 47.0814 85.4574 46.9783 85.6134 46.9522C85.7057 46.9368 85.7927 46.999 85.8081 47.091C85.8235 47.1832 85.7615 47.2702 85.6693 47.2857C85.5324 47.3086 85.3622 47.4533 85.3638 47.5086C85.3642 47.5111 85.3646 47.5137 85.3649 47.5164C85.3759 47.6054 85.3147 47.6882 85.225 47.7032C85.1331 47.7186 85.0461 47.6564 85.0304 47.5647L85.0303 47.5641C85.0143 47.5119 84.806 47.4302 84.6689 47.4532C84.5769 47.4686 84.4897 47.4065 84.4743 47.3144C84.4588 47.2223 84.521 47.1351 84.6131 47.1197ZM93.0631 47.4066C92.7125 47.7603 91.9726 48.2248 90.4507 48.4336C88.1595 48.7465 84.7419 49.2395 83.9585 49.3529L83.8494 48.7009C84.4721 48.6426 86.1083 48.4796 87.8456 48.2291L87.8509 48.2282C88.2183 48.1753 88.5896 48.1184 88.9571 48.0578L88.9806 48.0538C89.0091 48.0492 89.0377 48.0446 89.0662 48.0399C89.1237 48.0302 89.1804 48.02 89.2378 48.0103C89.2836 48.0024 89.3294 47.9948 89.3751 47.9868C89.4505 47.9734 89.525 47.9601 89.5997 47.9466C89.6476 47.9379 89.6957 47.9293 89.7433 47.9205C89.8151 47.9072 89.8859 47.8937 89.9568 47.8801C90.0058 47.8707 90.0548 47.8615 90.1033 47.852C90.1712 47.8387 90.2379 47.825 90.3049 47.8114C90.3551 47.8012 90.4055 47.7911 90.4552 47.7807C90.5185 47.7675 90.5807 47.7539 90.6428 47.7404C90.6938 47.7294 90.7449 47.7183 90.795 47.7072C90.8543 47.6938 90.912 47.6804 90.9701 47.6667C91.0207 47.655 91.0717 47.6432 91.1213 47.6311C91.1768 47.6177 91.2306 47.6041 91.2845 47.5906C91.334 47.578 91.3837 47.5656 91.4318 47.5529C91.4832 47.5395 91.5327 47.5257 91.5825 47.5121C91.6305 47.4989 91.6787 47.4857 91.7253 47.4724C91.7726 47.4588 91.8179 47.4449 91.8635 47.4313C91.9091 47.4174 91.9548 47.4036 91.9986 47.3896C92.0422 47.3758 92.0837 47.3616 92.1256 47.3476C92.1678 47.3333 92.21 47.3192 92.2502 47.3048C92.29 47.2906 92.3276 47.2762 92.3653 47.2619C92.4038 47.2472 92.4424 47.2325 92.4789 47.2177C92.5143 47.2031 92.5473 47.1885 92.5809 47.1738C92.6152 47.1588 92.6496 47.1438 92.6818 47.1285C92.7129 47.1137 92.7414 47.0986 92.7703 47.0837C92.8001 47.0682 92.8299 47.0528 92.8571 47.0373C92.8837 47.022 92.9075 47.0067 92.9317 46.9913C92.9563 46.9756 92.9811 46.9598 93.0031 46.9439C93.0248 46.9283 93.0438 46.9124 93.0628 46.8967C93.0758 46.8858 93.0919 46.8752 93.1038 46.8642L93.1119 46.8769C93.2146 47.0563 93.1945 47.2741 93.0631 47.4066Z" fill="black"/>
<path d="M44.1705 44.5568C42.0682 44.5568 40.2547 44.0928 38.7301 43.1648C37.215 42.2273 36.0455 40.9205 35.2216 39.2443C34.4072 37.5587 34 35.5985 34 33.3636C34 31.1288 34.4072 29.1591 35.2216 27.4545C36.0455 25.7405 37.1913 24.4053 38.6591 23.4489C40.1364 22.483 41.8598 22 43.8295 22C44.9659 22 46.0881 22.1894 47.196 22.5682C48.304 22.947 49.3125 23.5625 50.2216 24.4148C51.1307 25.2576 51.8551 26.375 52.3949 27.767C52.9347 29.1591 53.2045 30.8731 53.2045 32.9091V34.3295H36.3864V31.4318H49.7955C49.7955 30.2008 49.5492 29.1023 49.0568 28.1364C48.5739 27.1705 47.8826 26.4081 46.983 25.8494C46.0928 25.2907 45.0417 25.0114 43.8295 25.0114C42.4943 25.0114 41.339 25.3428 40.3636 26.0057C39.3977 26.6591 38.6544 27.5114 38.1335 28.5625C37.6127 29.6136 37.3523 30.7405 37.3523 31.9432V33.875C37.3523 35.5227 37.6364 36.9195 38.2045 38.0653C38.7822 39.2017 39.5824 40.0682 40.6051 40.6648C41.6278 41.2519 42.8163 41.5455 44.1705 41.5455C45.0511 41.5455 45.8466 41.4223 46.5568 41.1761C47.2765 40.9205 47.8968 40.5417 48.4176 40.0398C48.9384 39.5284 49.3409 38.8939 49.625 38.1364L52.8636 39.0455C52.5227 40.1439 51.9498 41.1098 51.1449 41.9432C50.34 42.767 49.3456 43.411 48.1619 43.875C46.9782 44.3295 45.6477 44.5568 44.1705 44.5568Z" fill="black"/>
<line x1="48" y1="43" x2="48" y2="47" stroke="black" strokeWidth="2"/>
<path d="M56.4008 46.7016L56.1733 46.347C56.1701 46.3419 56.1652 46.3384 56.1613 46.3338C56.1413 46.301 56.1177 46.2681 56.0863 46.2356C55.7818 45.921 55.0706 45.8649 53.9704 46.068L54.0116 47.3132C53.9029 47.3384 53.7911 47.3636 53.676 47.3884L53.631 46.0305L53.0277 45.8611L52.6718 46.7667C52.6492 46.8241 52.5988 46.8621 52.5421 46.8716C52.5129 46.8764 52.4822 46.8739 52.4526 46.8622C52.3657 46.8281 52.323 46.7298 52.3571 46.643L52.7005 45.7691L52.2983 45.6561L51.949 46.5449C51.9264 46.6023 51.876 46.6403 51.8194 46.6498C51.7902 46.6546 51.7594 46.6521 51.7299 46.6404C51.6429 46.6063 51.6002 46.508 51.6344 46.4212L51.9711 45.5642L51.569 45.4512L51.2263 46.3231C51.2036 46.3805 51.1533 46.4185 51.0966 46.428C51.0674 46.4328 51.0366 46.4303 51.0071 46.4186C50.9201 46.3845 50.8774 46.2862 50.9116 46.1994L51.2418 45.3593L50.8395 45.2461L50.5035 46.1013C50.4809 46.1587 50.4305 46.1967 50.3738 46.2062C50.3446 46.211 50.3138 46.2085 50.2843 46.1968C50.1973 46.1627 50.1547 46.0644 50.1888 45.9776L50.5124 45.1543L50.0271 45.0178C49.9449 44.9948 49.8585 45.0365 49.8254 45.1153C49.792 45.1946 48.985 47.0506 46.7809 46.2171C46.7721 46.2137 46.7628 46.2155 46.7537 46.2137C46.7424 46.2113 46.7318 46.2068 46.7197 46.2069C46.5868 46.2065 46.4315 46.2056 46.4002 46.0189C46.3848 45.9269 46.2978 45.8646 46.2056 45.8801C46.1136 45.8955 46.0514 45.9827 46.0668 46.0747C46.1103 46.3343 46.2934 46.4619 46.5491 46.5228C46.5336 47.2883 46.5052 48.3983 46.4857 48.5231C46.4845 48.5306 46.4874 48.5377 46.4871 48.5451C46.4869 48.5559 46.4841 48.5665 46.4859 48.5774L46.6524 49.5717C46.6675 49.6624 46.7525 49.7243 46.8433 49.7112C46.8838 49.7052 50.909 49.122 53.4964 48.7686C53.5942 48.7553 53.6888 48.7408 53.7809 48.7254C55.2094 48.4862 55.9392 48.0118 56.3031 47.6446C56.5411 47.4046 56.5832 47.0197 56.4008 46.7016ZM47.6131 47.1197C47.7693 47.0936 47.9841 47.1286 48.1446 47.223C48.2657 47.0814 48.4574 46.9783 48.6134 46.9522C48.7057 46.9368 48.7927 46.999 48.8081 47.091C48.8235 47.1832 48.7615 47.2702 48.6693 47.2857C48.5324 47.3086 48.3622 47.4533 48.3638 47.5086C48.3642 47.5111 48.3646 47.5137 48.3649 47.5164C48.3759 47.6054 48.3147 47.6882 48.225 47.7032C48.1331 47.7186 48.0461 47.6564 48.0304 47.5647L48.0303 47.5641C48.0143 47.5119 47.806 47.4302 47.6689 47.4532C47.5769 47.4686 47.4897 47.4065 47.4743 47.3144C47.4588 47.2223 47.521 47.1351 47.6131 47.1197ZM56.0631 47.4066C55.7125 47.7603 54.9726 48.2248 53.4507 48.4336C51.1595 48.7465 47.7419 49.2395 46.9585 49.3529L46.8494 48.7009C47.4721 48.6426 49.1083 48.4796 50.8456 48.2291L50.8509 48.2282C51.2183 48.1753 51.5896 48.1184 51.9571 48.0578L51.9806 48.0538C52.0091 48.0492 52.0377 48.0446 52.0662 48.0399C52.1237 48.0302 52.1804 48.02 52.2378 48.0103C52.2836 48.0024 52.3294 47.9948 52.3751 47.9868C52.4505 47.9734 52.525 47.9601 52.5997 47.9466C52.6476 47.9379 52.6957 47.9293 52.7433 47.9205C52.8151 47.9072 52.8859 47.8937 52.9568 47.8801C53.0058 47.8707 53.0548 47.8615 53.1033 47.852C53.1712 47.8387 53.2379 47.825 53.3049 47.8114C53.3551 47.8012 53.4055 47.7911 53.4552 47.7807C53.5185 47.7675 53.5807 47.7539 53.6428 47.7404C53.6938 47.7294 53.7449 47.7183 53.795 47.7072C53.8543 47.6938 53.912 47.6804 53.9701 47.6667C54.0207 47.655 54.0717 47.6432 54.1213 47.6311C54.1768 47.6177 54.2306 47.6041 54.2845 47.5906C54.334 47.578 54.3837 47.5656 54.4318 47.5529C54.4832 47.5395 54.5327 47.5257 54.5825 47.5121C54.6305 47.4989 54.6787 47.4857 54.7253 47.4724C54.7726 47.4588 54.8179 47.4449 54.8635 47.4313C54.9091 47.4174 54.9548 47.4036 54.9986 47.3896C55.0422 47.3758 55.0837 47.3616 55.1256 47.3476C55.1678 47.3333 55.21 47.3192 55.2502 47.3048C55.29 47.2906 55.3276 47.2762 55.3653 47.2619C55.4038 47.2472 55.4424 47.2325 55.4789 47.2177C55.5143 47.2031 55.5473 47.1885 55.5809 47.1738C55.6152 47.1588 55.6496 47.1438 55.6818 47.1285C55.7129 47.1137 55.7414 47.0986 55.7703 47.0837C55.8001 47.0682 55.8299 47.0528 55.8571 47.0373C55.8837 47.022 55.9075 47.0067 55.9317 46.9913C55.9563 46.9756 55.9811 46.9598 56.0031 46.9439C56.0248 46.9283 56.0438 46.9124 56.0628 46.8967C56.0758 46.8858 56.0919 46.8752 56.1038 46.8642L56.1119 46.8769C56.2146 47.0563 56.1945 47.2741 56.0631 47.4066Z" fill="black"/>
<line x1="40" y1="43" x2="40" y2="47" stroke="black" strokeWidth="2"/>
<path d="M48.0886 47.7293L47.9228 47.342C47.9204 47.3364 47.9162 47.3322 47.9132 47.327C47.8988 47.2913 47.881 47.2549 47.8553 47.2178C47.607 46.8572 46.9149 46.6844 45.7963 46.703L45.6313 47.9379C45.5199 47.9449 45.4054 47.9513 45.2878 47.9567L45.4676 46.61L44.9006 46.3433L44.4001 47.1777C44.3683 47.2306 44.3123 47.2597 44.2548 47.2597C44.2253 47.2597 44.1953 47.2521 44.1681 47.2357C44.088 47.1877 44.0621 47.0837 44.1101 47.0037L44.5931 46.1985L44.2151 46.0207L43.7238 46.8396C43.6921 46.8925 43.6361 46.9216 43.5786 46.9216C43.549 46.9216 43.5191 46.914 43.4919 46.8976C43.4118 46.8496 43.3859 46.7456 43.4339 46.6656L43.9076 45.876L43.5296 45.6981L43.0476 46.5015C43.0158 46.5544 42.9599 46.5835 42.9024 46.5835C42.8728 46.5835 42.8429 46.5759 42.8157 46.5595C42.7355 46.5115 42.7097 46.4075 42.7577 46.3275L43.2221 45.5534L42.8441 45.3754L42.3714 46.1634C42.3396 46.2163 42.2837 46.2454 42.2262 46.2454C42.1966 46.2454 42.1667 46.2378 42.1394 46.2214C42.0593 46.1733 42.0334 46.0694 42.0815 45.9894L42.5365 45.2309L42.0804 45.016C42.0032 44.9798 41.911 45.0067 41.8654 45.0789C41.8194 45.1516 40.717 46.8489 38.6808 45.6628C38.6727 45.6581 38.6632 45.6582 38.6546 45.655C38.6438 45.6508 38.6341 45.6446 38.6221 45.6427C38.4911 45.6204 38.3381 45.5938 38.3381 45.4045C38.3381 45.3112 38.2625 45.2355 38.169 45.2355C38.0757 45.2355 38 45.3112 38 45.4045C38 45.6677 38.1596 45.8238 38.4017 45.926C38.26 46.6785 38.0487 47.7685 38.0088 47.8884C38.0064 47.8957 38.0081 47.9031 38.0066 47.9104C38.0046 47.921 38 47.931 38 47.942V48.9502C38 49.0422 38.0736 49.1172 38.1654 49.1192C38.2063 49.1201 42.2725 49.2095 44.8827 49.2883C44.9814 49.2913 45.0771 49.2927 45.1704 49.2927C46.6189 49.2927 47.417 48.9453 47.8366 48.6432C48.1109 48.4458 48.2159 48.0732 48.0886 47.7293ZM39.3525 46.6905C39.5109 46.6905 39.7169 46.7605 39.8596 46.8802C40.0025 46.7605 40.2086 46.6905 40.3668 46.6905C40.4603 46.6905 40.5358 46.7662 40.5358 46.8595C40.5358 46.953 40.4603 47.0286 40.3668 47.0286C40.228 47.0286 40.0363 47.1432 40.0287 47.198C40.0287 47.2005 40.0287 47.2032 40.0285 47.2059C40.0246 47.2955 39.9506 47.367 39.8596 47.367C39.7665 47.367 39.6909 47.2913 39.6906 47.1983V47.1976C39.6835 47.1435 39.4914 47.0286 39.3525 47.0286C39.2592 47.0286 39.1834 46.953 39.1834 46.8595C39.1834 46.7662 39.2591 46.6905 39.3525 46.6905ZM47.6391 48.3688C47.2349 48.6598 46.4285 48.9957 44.893 48.9504C42.5815 48.8806 39.1295 48.8025 38.3381 48.7849V48.1239C38.962 48.1692 40.6026 48.2786 42.3574 48.3185H42.3628C42.7339 48.3269 43.1095 48.3322 43.4819 48.333H43.5058C43.5347 48.3332 43.5636 48.3334 43.5925 48.3334C43.6508 48.3334 43.7085 48.3327 43.7666 48.3325C43.8131 48.3323 43.8596 48.3323 43.9059 48.332C43.9825 48.3313 44.0582 48.3305 44.1341 48.3295C44.1828 48.3288 44.2317 48.3283 44.28 48.3274C44.3531 48.3262 44.4251 48.3246 44.4973 48.3229C44.5471 48.3217 44.597 48.3207 44.6464 48.3193C44.7155 48.3175 44.7836 48.3149 44.8519 48.3125C44.9032 48.3109 44.9546 48.3092 45.0053 48.3071C45.0699 48.3046 45.1334 48.3014 45.197 48.2983C45.249 48.296 45.3013 48.2935 45.3525 48.2907C45.4132 48.2874 45.4724 48.2836 45.5319 48.2797C45.5838 48.2765 45.636 48.2733 45.6869 48.2696C45.7439 48.2655 45.7991 48.261 45.8546 48.2566C45.9055 48.2523 45.9565 48.2483 46.0061 48.2437C46.059 48.239 46.11 48.2336 46.1614 48.2283C46.211 48.2233 46.2607 48.2182 46.3089 48.2128C46.3577 48.2072 46.4047 48.2009 46.4519 48.195C46.4992 48.189 46.5465 48.1829 46.592 48.1763C46.6373 48.1698 46.6806 48.1628 46.7242 48.1558C46.7682 48.1487 46.8121 48.1418 46.8542 48.1342C46.8958 48.1267 46.9352 48.1188 46.9748 48.1109C47.0152 48.1027 47.0557 48.0946 47.0941 48.086C47.1315 48.0775 47.1665 48.0686 47.202 48.0596C47.2383 48.0505 47.2747 48.0414 47.309 48.0316C47.3421 48.0221 47.3727 48.012 47.4036 48.002C47.4356 47.9917 47.4675 47.9814 47.497 47.9706C47.5257 47.9599 47.5517 47.9487 47.5781 47.9376C47.605 47.9261 47.632 47.9146 47.6564 47.9026C47.6804 47.8908 47.7017 47.8782 47.723 47.8659C47.7377 47.8573 47.7553 47.8495 47.7688 47.8406L47.7747 47.8544C47.8464 48.0483 47.7906 48.2598 47.6391 48.3688Z" fill="black"/>
<path d="M140.352 20V49.0909H137V20H140.352Z" fill="black"/>
<circle cx="138.5" cy="14.5" r="2.5" fill="black"/>
<path d="M141 15C141 16.3807 139.881 17.5 138.5 17.5C137.119 17.5 136 16.3807 136 15C136 13.6193 137.119 0 138.5 0C139.881 0 141 13.6193 141 15Z" fill="black"/>
</svg>
