<svg width="838" height="838" viewBox="0 0 838 838" fill="none" xmlns="http://www.w3.org/2000/svg">
<circle cx="419" cy="419" r="406.5" stroke="white" strokeWidth="25" stroke-dasharray="69 59 68 67"/>
<path d="M415.783 372.609H407.304C402.622 372.609 398.826 368.813 398.826 364.131V364.131C398.826 359.448 402.622 355.652 407.304 355.652H415.783C420.465 355.652 424.261 359.448 424.261 364.131V364.131C424.261 368.813 420.465 372.609 415.783 372.609Z" stroke="white" strokeWidth="8" strokeMiterlimit="10" strokeLinecap="round" strokeLinejoin="round"/>
<path d="M398.826 364.13H364.906" stroke="white" strokeWidth="8" strokeMiterlimit="10" strokeLinecap="round" strokeLinejoin="round"/>
<path d="M424.261 364.13H457.404" stroke="white" strokeWidth="8" strokeMiterlimit="10" strokeLinecap="round" strokeLinejoin="round"/>
<path d="M360.479 377.432C342.503 381.32 331 387.203 331 393.804C331 405.51 367.061 415 411.543 415C456.026 415 492.087 405.51 492.087 393.804C492.087 387.157 480.406 381.242 462.212 377.356" stroke="white" strokeWidth="8" strokeMiterlimit="10" strokeLinecap="round" strokeLinejoin="round"/>
<path d="M356.435 389.565L390.348 287.826L441.218 220L432.739 296.304L466.652 389.565" stroke="white" strokeWidth="8" strokeMiterlimit="10" strokeLinecap="round" strokeLinejoin="round"/>
<path d="M223.836 483.548L224.007 480.301C224.007 479.959 223.779 479.105 223.323 477.738C222.981 476.257 222.754 474.889 222.64 473.636C222.64 472.383 222.64 471.358 222.64 470.56C222.754 469.649 222.811 468.851 222.811 468.167C222.924 467.37 222.754 466.345 222.298 465.091C221.956 463.724 222.127 462.471 222.811 461.332C223.494 460.192 223.893 459.11 224.007 458.084C224.121 456.945 224.463 455.863 225.032 454.837C225.602 453.698 226.741 452.787 228.45 452.103C230.273 451.419 231.64 451.362 232.552 451.932C233.577 452.502 234.66 453.185 235.799 453.983C238.989 456.262 242.065 457.287 245.027 457.059C248.104 456.831 250.211 457.059 251.351 457.743C252.49 458.312 253.344 459.11 253.914 460.135C254.484 461.161 254.882 462.243 255.11 463.382C255.338 464.522 255.623 465.661 255.965 466.8C256.307 467.94 256.591 469.421 256.819 471.244C257.047 473.067 256.591 474.946 255.452 476.883C254.427 478.706 253.914 480.301 253.914 481.668C254.028 483.036 254.256 484.517 254.598 486.112C255.281 490.441 255.053 494.429 253.914 498.075C253.686 498.53 253.515 498.986 253.401 499.442C253.401 499.784 253.287 500.125 253.06 500.467C257.959 497.163 260.978 494.714 262.117 493.119C263.484 491.524 264.567 489.587 265.364 487.308C266.162 484.916 266.731 483.434 267.073 482.865C267.415 482.295 267.7 481.839 267.928 481.498C268.497 480.928 268.953 479.732 269.295 477.909C270.206 473.124 271.46 470.104 273.055 468.851C272.713 465.433 273.169 462.186 274.422 459.11C275.675 455.92 278.125 454.097 281.771 453.641C285.416 453.071 288.037 453.47 289.632 454.837C292.48 454.268 294.588 454.154 295.955 454.496C297.322 454.723 298.689 455.578 300.057 457.059C302.563 459.566 303.076 464.123 301.595 470.731C301.253 471.984 301.025 473.351 300.911 474.833C300.911 476.2 300.797 477.567 300.569 478.934C300 482.124 298.576 484.688 296.297 486.625C291.967 490.27 289.803 495.511 289.803 502.347C289.803 505.309 289.233 507.36 288.094 508.5C287.068 509.525 285.872 509.981 284.505 509.867C283.138 509.753 281.827 510.095 280.574 510.892C279.435 511.69 278.353 512.658 277.327 513.797C274.821 516.76 273.51 519.038 273.396 520.633C273.396 522.228 273.909 523.88 274.935 525.589C275.96 527.298 277.156 529.406 278.523 531.913L282.454 538.919C287.353 547.692 289.803 557.206 289.803 567.459C289.803 569.168 290.315 571.219 291.341 573.612C292.48 575.89 292.48 578.112 291.341 580.277C290.315 582.442 289.005 583.695 287.41 584.037C281.486 585.746 277.555 582.271 275.618 573.612C274.137 567.459 270.605 562.162 265.022 557.718C263.541 556.465 262.516 554.87 261.946 552.933L260.579 548.661C260.237 547.521 259.725 546.553 259.041 545.755C258.471 544.844 257.845 543.932 257.161 543.021C256.478 541.996 255.623 541.54 254.598 541.654C253.003 541.882 252.148 543.591 252.034 546.781V551.395C252.034 560.624 250.838 565.921 248.445 567.289C247.42 567.858 246.622 568.941 246.053 570.536L244.515 575.321C243.945 577.03 243.204 578.625 242.293 580.106C241.495 581.473 240.185 582.271 238.362 582.499C234.83 582.954 232.381 581.302 231.014 577.542C229.76 573.783 229.077 569.51 228.963 564.725C228.849 559.94 228.678 556.921 228.45 555.667C228.222 554.414 227.881 553.389 227.425 552.591C227.083 551.68 226.684 550.882 226.229 550.199C225.887 549.401 225.488 548.376 225.032 547.123C224.007 544.16 223.38 540.799 223.152 537.04C223.038 533.166 223.038 530.602 223.152 529.349C223.38 528.096 223.323 526.501 222.981 524.564C222.526 522.627 222.469 520.918 222.811 519.437C223.152 517.842 223.266 516.418 223.152 515.165C223.038 513.797 223.095 512.544 223.323 511.405C223.551 510.265 223.779 509.012 224.007 507.645C224.576 504.569 224.747 501.778 224.52 499.271C224.292 496.651 224.178 494.828 224.178 493.802C224.292 492.777 224.349 491.922 224.349 491.239C224.463 490.555 224.52 489.872 224.52 489.188L223.836 483.548ZM370.979 582.499C370.296 583.752 369.384 584.663 368.245 585.233C367.106 585.917 365.966 585.803 364.827 584.891C363.688 584.094 362.833 583.752 362.264 583.866C361.808 583.98 361.352 584.094 360.896 584.208C359.871 584.321 358.846 583.581 357.82 581.986C356.795 580.391 356.225 579.138 356.111 578.226C355.997 577.201 355.997 576.232 356.111 575.321C356.567 573.27 356.225 571.447 355.086 569.852C354.061 568.257 353.32 567.061 352.864 566.263C352.522 565.466 352.352 564.326 352.352 562.845C352.352 561.25 352.238 560.282 352.01 559.94C351.896 559.484 351.782 559.142 351.668 558.915C351.098 557.889 350.87 556.294 350.984 554.129C351.212 551.965 350.927 550.484 350.13 549.686C349.332 548.775 348.25 548.091 346.883 547.635C345.63 547.18 344.604 547.35 343.807 548.148C343.123 548.832 342.439 549.686 341.756 550.711C341.186 551.737 340.446 552.648 339.534 553.446C338.623 554.129 337.426 554.3 335.945 553.958C334.578 553.617 333.04 553.958 331.331 554.984C329.622 556.009 328.597 557.263 328.255 558.744C327.913 560.111 327.514 561.535 327.059 563.016C326.603 564.497 326.432 565.864 326.546 567.118C326.774 568.371 326.774 569.624 326.546 570.877C326.432 572.017 326.147 573.156 325.691 574.295C324.78 577.144 323.698 578.682 322.444 578.91C321.419 579.024 320.337 579.024 319.197 578.91C317.944 581.188 316.463 582.556 314.754 583.011C310.083 584.037 307.291 583.296 306.38 580.79C305.81 579.308 305.468 577.372 305.354 574.979C305.127 570.194 304.614 566.947 303.816 565.238C303.019 563.529 302.791 561.478 303.133 559.085C303.589 556.693 303.759 554.3 303.646 551.908C303.532 549.515 303.532 547.692 303.646 546.439C303.759 545.186 303.873 544.046 303.987 543.021C304.215 541.996 304.443 541.027 304.671 540.116C304.899 539.09 305.013 537.951 305.013 536.698C305.127 535.331 305.354 533.792 305.696 532.083C306.038 530.375 306.38 528.609 306.722 526.786C307.633 522.228 307.975 518.81 307.747 516.532C307.519 514.253 307.69 512.316 308.26 510.721C308.943 509.126 309.684 507.702 310.481 506.449C312.532 503.145 313.501 500.467 313.387 498.417C313.273 496.252 313.159 494.6 313.045 493.46C313.045 492.207 313.102 490.954 313.216 489.701C313.785 483.548 316.691 473.921 321.932 460.819C322.273 459.566 323.356 458.597 325.179 457.914C327.002 457.23 328.825 457.173 330.647 457.743C332.584 458.198 334.122 458.426 335.262 458.426C336.515 458.312 337.54 457.857 338.338 457.059C339.249 456.148 340.161 455.293 341.072 454.496C342.098 453.698 343.294 453.071 344.661 452.616C346.028 452.046 347.566 451.761 349.275 451.761C350.984 451.761 352.807 452.274 354.744 453.299C357.934 455.008 360.042 456.603 361.067 458.084C362.093 459.566 362.776 460.762 363.118 461.673C363.46 462.585 364.03 463.838 364.827 465.433C365.625 467.028 365.966 468.452 365.853 469.706C365.853 470.959 366.08 472.44 366.536 474.149C366.992 475.858 366.992 477.852 366.536 480.13C366.08 482.409 366.08 484.688 366.536 486.966C366.992 489.131 367.22 490.612 367.22 491.41C367.22 492.207 367.277 492.948 367.391 493.631C367.505 495.568 367.903 497.277 368.587 498.758C369.271 500.353 369.441 502.347 369.1 504.74C368.872 507.018 368.815 508.955 368.929 510.55C369.157 512.031 369.783 513.569 370.809 515.165C372.745 518.241 373.429 521.659 372.859 525.418C372.745 526.444 372.745 527.583 372.859 528.836C373.087 529.976 373.201 531.058 373.201 532.083C373.201 532.995 373.087 534.191 372.859 535.672C372.518 537.837 372.575 540.458 373.03 543.534C373.714 549.23 374.056 553.047 374.056 554.984C374.056 556.921 374.113 558.573 374.227 559.94C374.34 561.193 374.454 562.56 374.568 564.042C374.91 567.915 374.91 571.846 374.568 575.833C374.34 579.707 373.144 581.929 370.979 582.499ZM344.832 513.626C345.06 511.462 344.946 508.784 344.49 505.594C344.148 502.404 343.978 500.069 343.978 498.587C343.978 496.992 343.864 495.625 343.636 494.486C343.294 492.663 342.326 492.435 340.73 493.802C338.908 491.979 337.426 491.922 336.287 493.631C335.49 494.885 335.091 496.935 335.091 499.784C334.863 501.721 334.407 503.486 333.724 505.082C333.154 506.677 332.755 508.443 332.527 510.379C332.186 512.658 331.559 515.449 330.647 518.753C329.85 522.057 329.964 524.507 330.989 526.102C332.129 527.697 333.496 528.267 335.091 527.811C336.686 527.355 337.882 527.127 338.68 527.127C339.477 527.014 340.161 526.9 340.73 526.786C342.098 526.672 343.123 526.159 343.807 525.248C344.604 524.222 345.003 523.368 345.003 522.684C345.117 521.887 345.117 521.089 345.003 520.292C344.661 518.013 344.604 515.791 344.832 513.626ZM412.85 550.711L413.362 558.915C413.59 563.358 412.451 566.263 409.944 567.63C409.261 572.188 408.919 576.232 408.919 579.764C408.121 581.359 406.811 582.328 404.988 582.669C401.57 583.125 399.349 582.214 398.323 579.935C396.842 577.087 395.646 575.549 394.734 575.321C394.507 575.207 394.108 575.15 393.538 575.15C393.082 575.036 392.513 574.865 391.829 574.637C391.146 574.295 390.861 573.384 390.975 571.903C391.202 570.422 391.202 569.225 390.975 568.314C390.747 567.403 390.462 566.434 390.12 565.409C389.209 562.446 388.753 559.598 388.753 556.864C388.753 554.927 388.753 553.161 388.753 551.566C388.867 549.971 388.924 548.376 388.924 546.781C388.696 541.654 388.012 537.267 386.873 533.622C385.848 529.976 385.164 527.583 384.822 526.444C384.139 523.937 383.797 521.545 383.797 519.266C383.797 517.899 383.968 516.931 384.31 516.361C384.651 515.677 384.993 514.994 385.335 514.31C386.246 512.601 386.588 510.607 386.36 508.329C386.246 506.05 386.076 503.771 385.848 501.493C385.734 499.1 385.563 496.48 385.335 493.631C385.221 490.669 385.05 487.536 384.822 484.232C384.708 480.928 384.651 477.738 384.651 474.662C384.651 464.636 385.905 458.996 388.411 457.743C388.867 457.515 389.38 457.287 389.949 457.059C390.633 456.717 391.43 456.262 392.342 455.692C393.253 455.122 394.051 454.553 394.734 453.983C395.532 453.413 396.329 452.958 397.127 452.616C398.608 451.932 400.374 452.046 402.425 452.958C404.59 453.755 406.128 454.325 407.039 454.667C407.951 454.894 408.862 455.122 409.773 455.35C410.685 455.464 411.71 455.521 412.85 455.521C414.103 455.407 415.812 455.35 417.977 455.35C420.255 455.236 422.648 455.236 425.154 455.35C427.775 455.464 430.281 455.806 432.674 456.375C440.421 457.971 446.403 462.243 450.618 469.193C452.441 472.269 453.41 475.003 453.523 477.396C453.637 479.789 453.751 482.124 453.865 484.403C454.093 486.568 454.549 489.074 455.232 491.922C455.916 494.657 456.144 497.277 455.916 499.784C455.688 502.29 455.403 504.056 455.062 505.082C454.834 505.993 454.549 506.847 454.207 507.645C453.637 509.354 453.41 511.12 453.523 512.943C453.751 515.905 453.523 518.241 452.84 519.95C452.156 521.545 451.473 523.197 450.789 524.906C448.852 529.121 446.744 531.514 444.466 532.083C443.213 532.311 442.187 532.539 441.39 532.767C440.592 532.995 440.136 533.508 440.022 534.305C439.795 534.875 440.136 535.558 441.048 536.356C441.959 537.04 442.871 538.122 443.782 539.603C444.808 541.084 445.662 542.053 446.346 542.508C447.029 542.964 447.656 543.249 448.226 543.363C449.935 543.705 451.017 544.103 451.473 544.559C452.498 545.812 453.239 546.838 453.694 547.635C454.264 548.433 454.435 549.629 454.207 551.224C453.979 552.819 453.979 554.471 454.207 556.18C454.435 557.889 454.663 559.712 454.891 561.649C455.118 563.472 455.118 565.01 454.891 566.263C454.777 567.516 454.72 568.428 454.72 568.998L455.403 573.441C455.403 576.175 454.606 578.397 453.011 580.106C451.416 581.815 450.162 582.783 449.251 583.011C448.34 583.239 447.485 583.182 446.688 582.84C445.89 582.499 445.206 582.043 444.637 581.473C444.067 581.017 443.611 580.733 443.27 580.619C442.928 580.391 442.472 580.277 441.902 580.277C441.447 580.163 440.934 579.992 440.364 579.764C438.313 579.194 436.548 575.207 435.066 567.801C434.269 564.155 432.902 561.82 430.965 560.794C428.003 559.313 426.408 557.263 426.18 554.642C426.066 553.389 425.952 551.68 425.838 549.515C425.382 545.186 423.901 542.508 421.395 541.483C420.141 541.027 419.002 540.799 417.977 540.799C416.951 540.799 415.926 541.369 414.9 542.508C413.533 544.217 412.85 546.952 412.85 550.711ZM421.395 518.241C422.876 516.874 424.3 515.677 425.667 514.652C427.148 513.513 428.344 512.088 429.256 510.379C430.281 508.556 431.079 506.734 431.648 504.911C432.56 501.493 432.845 498.36 432.503 495.511C432.275 492.549 431.933 490.612 431.478 489.701C431.136 488.675 429.996 488.163 428.06 488.163C426.237 488.163 424.357 487.707 422.42 486.795C420.597 485.884 419.572 484.802 419.344 483.548C419.116 480.814 418.261 479.846 416.78 480.643C415.983 481.099 415.413 481.555 415.071 482.01C414.729 482.352 414.445 483.491 414.217 485.428C413.875 489.416 413.875 492.549 414.217 494.828C414.673 497.106 414.957 498.644 415.071 499.442C415.185 500.125 415.242 500.923 415.242 501.834C415.356 502.632 415.413 503.6 415.413 504.74C415.527 505.765 415.641 507.474 415.755 509.867C415.983 512.145 416.04 514.082 415.926 515.677C415.812 517.272 415.983 518.924 416.438 520.633C418.261 520.405 419.913 519.608 421.395 518.241ZM506.16 540.287C502.97 540.287 501.489 538.806 501.717 535.843C501.945 533.451 501.888 531.514 501.546 530.033C500.976 527.526 500.862 525.703 501.204 524.564C502.116 521.146 505.818 520.348 512.312 522.171C513.452 522.513 514.363 522.684 515.047 522.684C515.73 522.684 516.414 522.627 517.098 522.513C519.148 522.171 520.971 522.171 522.566 522.513C524.275 522.741 525.757 522.798 527.01 522.684C528.263 522.57 529.402 522.399 530.428 522.171C531.567 521.944 532.592 521.716 533.504 521.488C534.415 521.26 535.27 521.146 536.067 521.146C537.207 521.146 538.004 522.114 538.46 524.051C539.03 525.874 539.257 527.925 539.144 530.204C538.802 536.014 537.435 539.375 535.042 540.287C533.333 540.97 531.681 542.053 530.086 543.534C528.605 545.015 528.035 547.236 528.377 550.199C528.833 553.047 529.061 555.326 529.061 557.035C529.174 558.63 529.174 560.054 529.061 561.307C529.061 562.446 529.004 563.472 528.89 564.383C528.89 565.181 528.947 566.263 529.061 567.63C529.288 568.884 529.231 570.593 528.89 572.757C528.662 574.922 528.149 576.859 527.352 578.568C525.415 582.669 522.965 584.208 520.003 583.182C517.838 582.499 515.73 580.676 513.68 577.713C512.996 576.688 512.312 575.833 511.629 575.15C511.059 574.352 510.262 574.125 509.236 574.466C508.211 574.694 507.299 575.264 506.502 576.175C505.818 576.973 505.078 577.827 504.28 578.739C499.495 584.663 493.4 585.518 485.994 581.302C482.234 579.251 479.614 576.688 478.133 573.612C477.563 572.245 476.937 570.707 476.253 568.998C475.683 567.289 475 565.637 474.202 564.042C472.379 560.282 470.613 557.775 468.904 556.522C467.309 555.269 466.398 549.116 466.17 538.065C466.056 535.672 466.113 533.622 466.341 531.913C466.569 530.09 466.683 527.811 466.683 525.077V517.215C466.683 514.709 466.626 512.316 466.512 510.038C466.512 506.392 466.797 503.202 467.366 500.467C463.72 498.075 462.296 493.46 463.094 486.625C463.663 482.295 464.461 479.162 465.486 477.225C466.626 475.174 467.48 473.181 468.05 471.244C468.733 469.193 469.417 467.085 470.101 464.92C470.784 462.642 471.753 461.161 473.006 460.477C474.259 459.793 475.057 459.224 475.398 458.768C475.74 458.312 476.082 457.857 476.424 457.401C478.589 454.211 483.26 452.046 490.438 450.907C493.628 450.337 496.761 450.622 499.837 451.761C502.913 452.901 505.477 453.584 507.527 453.812C509.578 454.04 511.515 454.211 513.338 454.325C521.199 454.78 526.326 456.432 528.719 459.281C530.428 461.218 531.51 463.211 531.966 465.262C532.422 467.199 532.991 468.794 533.675 470.047C534.472 471.187 534.757 472.44 534.529 473.807C534.301 475.06 534.244 476.143 534.358 477.054C534.586 477.852 534.529 478.706 534.188 479.618C533.846 480.529 533.504 481.441 533.162 482.352C532.479 484.745 532.535 486.454 533.333 487.479C534.244 488.504 535.042 489.473 535.726 490.384C536.409 491.182 536.922 492.036 537.264 492.948C538.289 495.226 538.403 497.163 537.605 498.758C536.808 500.353 535.896 501.891 534.871 503.373C533.96 504.854 532.763 505.651 531.282 505.765C527.295 506.107 524.617 506.791 523.25 507.816C521.883 508.727 520.743 509.354 519.832 509.696C517.553 510.721 515.446 510.607 513.509 509.354C510.319 507.873 508.951 505.139 509.407 501.151C509.635 496.366 507.869 493.745 504.109 493.29C502.4 493.062 500.634 493.574 498.812 494.828C496.989 496.081 495.564 497.733 494.539 499.784C492.146 505.139 491.862 510.095 493.685 514.652C494.14 515.791 494.368 517.215 494.368 518.924V523.368C494.368 525.988 494.026 527.925 493.343 529.178C492.773 530.431 492.431 531.913 492.317 533.622C492.203 535.217 492.146 537.097 492.146 539.261C492.26 541.426 492.431 543.762 492.659 546.268C493.001 548.661 493.4 550.882 493.855 552.933C495.109 557.718 496.875 559.997 499.153 559.769C500.976 559.769 502.4 558.915 503.426 557.206C503.768 556.522 504.166 555.838 504.622 555.155C505.078 554.471 505.761 553.958 506.673 553.617C507.584 553.161 508.211 552.477 508.553 551.566C509.008 550.654 509.236 549.572 509.236 548.319C509.35 546.952 509.236 544.16 508.895 539.945C507.983 540.173 507.072 540.287 506.16 540.287ZM612.117 582.499C611.434 583.752 610.522 584.663 609.383 585.233C608.243 585.917 607.104 585.803 605.965 584.891C604.826 584.094 603.971 583.752 603.401 583.866C602.946 583.98 602.49 584.094 602.034 584.208C601.009 584.321 599.983 583.581 598.958 581.986C597.933 580.391 597.363 579.138 597.249 578.226C597.135 577.201 597.135 576.232 597.249 575.321C597.705 573.27 597.363 571.447 596.224 569.852C595.198 568.257 594.458 567.061 594.002 566.263C593.66 565.466 593.489 564.326 593.489 562.845C593.489 561.25 593.375 560.282 593.147 559.94C593.034 559.484 592.92 559.142 592.806 558.915C592.236 557.889 592.008 556.294 592.122 554.129C592.35 551.965 592.065 550.484 591.268 549.686C590.47 548.775 589.388 548.091 588.021 547.635C586.767 547.18 585.742 547.35 584.944 548.148C584.261 548.832 583.577 549.686 582.894 550.711C582.324 551.737 581.583 552.648 580.672 553.446C579.76 554.129 578.564 554.3 577.083 553.958C575.716 553.617 574.178 553.958 572.469 554.984C570.76 556.009 569.734 557.263 569.393 558.744C569.051 560.111 568.652 561.535 568.196 563.016C567.741 564.497 567.57 565.864 567.684 567.118C567.911 568.371 567.911 569.624 567.684 570.877C567.57 572.017 567.285 573.156 566.829 574.295C565.918 577.144 564.835 578.682 563.582 578.91C562.557 579.024 561.474 579.024 560.335 578.91C559.082 581.188 557.601 582.556 555.892 583.011C551.22 584.037 548.429 583.296 547.518 580.79C546.948 579.308 546.606 577.372 546.492 574.979C546.264 570.194 545.752 566.947 544.954 565.238C544.157 563.529 543.929 561.478 544.271 559.085C544.726 556.693 544.897 554.3 544.783 551.908C544.669 549.515 544.669 547.692 544.783 546.439C544.897 545.186 545.011 544.046 545.125 543.021C545.353 541.996 545.581 541.027 545.809 540.116C546.036 539.09 546.15 537.951 546.15 536.698C546.264 535.331 546.492 533.792 546.834 532.083C547.176 530.375 547.518 528.609 547.859 526.786C548.771 522.228 549.113 518.81 548.885 516.532C548.657 514.253 548.828 512.316 549.397 510.721C550.081 509.126 550.822 507.702 551.619 506.449C553.67 503.145 554.638 500.467 554.524 498.417C554.41 496.252 554.297 494.6 554.183 493.46C554.183 492.207 554.24 490.954 554.354 489.701C554.923 483.548 557.828 473.921 563.069 460.819C563.411 459.566 564.493 458.597 566.316 457.914C568.139 457.23 569.962 457.173 571.785 457.743C573.722 458.198 575.26 458.426 576.399 458.426C577.653 458.312 578.678 457.857 579.476 457.059C580.387 456.148 581.299 455.293 582.21 454.496C583.235 453.698 584.432 453.071 585.799 452.616C587.166 452.046 588.704 451.761 590.413 451.761C592.122 451.761 593.945 452.274 595.882 453.299C599.072 455.008 601.18 456.603 602.205 458.084C603.23 459.566 603.914 460.762 604.256 461.673C604.598 462.585 605.167 463.838 605.965 465.433C606.762 467.028 607.104 468.452 606.99 469.706C606.99 470.959 607.218 472.44 607.674 474.149C608.13 475.858 608.13 477.852 607.674 480.13C607.218 482.409 607.218 484.688 607.674 486.966C608.13 489.131 608.357 490.612 608.357 491.41C608.357 492.207 608.414 492.948 608.528 493.631C608.642 495.568 609.041 497.277 609.725 498.758C610.408 500.353 610.579 502.347 610.237 504.74C610.009 507.018 609.952 508.955 610.066 510.55C610.294 512.031 610.921 513.569 611.946 515.165C613.883 518.241 614.567 521.659 613.997 525.418C613.883 526.444 613.883 527.583 613.997 528.836C614.225 529.976 614.339 531.058 614.339 532.083C614.339 532.995 614.225 534.191 613.997 535.672C613.655 537.837 613.712 540.458 614.168 543.534C614.852 549.23 615.193 553.047 615.193 554.984C615.193 556.921 615.25 558.573 615.364 559.94C615.478 561.193 615.592 562.56 615.706 564.042C616.048 567.915 616.048 571.846 615.706 575.833C615.478 579.707 614.282 581.929 612.117 582.499ZM585.97 513.626C586.198 511.462 586.084 508.784 585.628 505.594C585.286 502.404 585.115 500.069 585.115 498.587C585.115 496.992 585.001 495.625 584.773 494.486C584.432 492.663 583.463 492.435 581.868 493.802C580.045 491.979 578.564 491.922 577.425 493.631C576.627 494.885 576.229 496.935 576.229 499.784C576.001 501.721 575.545 503.486 574.861 505.082C574.292 506.677 573.893 508.443 573.665 510.379C573.323 512.658 572.697 515.449 571.785 518.753C570.988 522.057 571.102 524.507 572.127 526.102C573.266 527.697 574.633 528.267 576.229 527.811C577.824 527.355 579.02 527.127 579.817 527.127C580.615 527.014 581.299 526.9 581.868 526.786C583.235 526.672 584.261 526.159 584.944 525.248C585.742 524.222 586.141 523.368 586.141 522.684C586.255 521.887 586.255 521.089 586.141 520.292C585.799 518.013 585.742 515.791 585.97 513.626Z" fill="white"/>
<circle cx="419.5" cy="419.5" r="318" stroke="white" strokeWidth="17" stroke-dasharray="69 59 68 67"/>
</svg>
