<svg width="1010" height="1076" viewBox="0 0 1010 1076" fill="none" xmlns="http://www.w3.org/2000/svg">
<path d="M891.2 1029.17L866.804 986.912H878.594C878.963 986.912 879.304 986.715 879.489 986.396C879.673 986.077 879.673 985.683 879.489 985.363L856.103 944.859H866.099C866.468 944.859 866.809 944.663 866.993 944.343C867.178 944.024 867.178 943.63 866.993 943.311L850.69 915.072H860.535C860.904 915.072 861.245 914.875 861.429 914.556C861.614 914.236 861.614 913.842 861.429 913.523L840.064 876.516C839.879 876.197 839.539 876 839.17 876C838.801 876 838.46 876.197 838.276 876.516L816.909 913.523C816.725 913.842 816.725 914.236 816.909 914.556C817.094 914.875 817.435 915.072 817.804 915.072H827.649L811.345 943.311C811.161 943.63 811.161 944.024 811.345 944.343C811.53 944.663 811.871 944.859 812.24 944.859H822.235L798.85 985.363C798.666 985.683 798.666 986.077 798.85 986.396C799.035 986.715 799.375 986.912 799.744 986.912H811.535L787.138 1029.17C786.954 1029.49 786.954 1029.88 787.138 1030.2C787.323 1030.52 787.664 1030.72 788.033 1030.72H830.499V1040.97C830.499 1041.54 830.961 1042 831.531 1042H846.804C847.374 1042 847.836 1041.54 847.836 1040.97V1030.72H890.306C890.675 1030.72 891.016 1030.52 891.2 1030.2C891.385 1029.88 891.385 1029.49 891.2 1029.17ZM845.771 1039.93H832.564V1030.72H845.771V1039.93ZM789.821 1028.65L814.218 986.396C814.402 986.077 814.402 985.683 814.218 985.363C814.033 985.044 813.693 984.847 813.324 984.847H801.533L824.918 944.343C825.102 944.024 825.102 943.63 824.918 943.311C824.733 942.991 824.393 942.794 824.024 942.794H814.028L830.331 914.556C830.516 914.236 830.516 913.842 830.331 913.523C830.147 913.204 829.806 913.007 829.437 913.007H819.592L839.17 879.098L858.747 913.007H848.902C848.533 913.007 848.192 913.204 848.008 913.523C847.823 913.842 847.823 914.236 848.008 914.556L864.311 942.794H854.315C853.946 942.794 853.606 942.991 853.421 943.311C853.237 943.63 853.237 944.024 853.421 944.343L876.806 984.847H865.016C864.647 984.847 864.306 985.044 864.122 985.363C863.937 985.683 863.937 986.077 864.122 986.396L888.518 1028.65H789.821V1028.65Z" fill="white"/>
<path d="M993.118 707L983.822 716.433L981.192 724.911L982.905 728.497L984.899 729.404L988.139 724.025L989.243 723.672L995.273 726.294L997.251 725.025L997.688 720.758L998.803 725.995L997.766 727.378L998.134 727.538L998.646 728.173L999.313 731.527L1004.78 725.006L1006.14 725.028L1008.33 727.819L1007.41 722.717L1004.47 712.655L993.119 707H993.118ZM974.162 708.171L971.278 713.259L970.828 715.957L973.365 715.132L974.508 715.853L974.517 715.915L977.28 721.761L978.625 721.317L979.693 721.773L980.076 722.575L981.982 716.43L981.877 713.175L977.956 713.124L975.053 710.802L978.379 711.865L982.528 711.11L985.071 712.661L988.614 709.066C988.343 708.951 988.066 708.836 987.776 708.722L980.004 709.711L979.66 709.687L974.161 708.171H974.162ZM998.51 711.728L1003.11 718.175L1003.31 724.28L1000.84 718.45L994.463 712.551L998.51 711.728V711.728ZM972.905 717.13L966.632 719.169L965 726.84L969.96 727.385L970.019 726.688L973.696 723.103L972.905 717.131V717.13ZM978.441 723.229L974.882 724.402L971.792 727.414L973.998 730.428L979.596 730.598L981.207 729.02L978.441 723.229V723.229ZM989.248 725.591L984.921 732.773L984.918 738.354L994.416 739.546L998.737 737.639L997.012 728.967L989.248 725.591V725.591ZM1005.43 726.966L1000.86 732.423L1000.88 732.596L1007.25 733.952L1009.76 732.495L1005.43 726.966L1005.43 726.966ZM991.916 728.518L995.747 730.749L997.057 735.696L994.438 738.024L990.042 737.775L993.808 735.017L994.05 731.185L991.916 728.518V728.518ZM968.638 733.776L967.781 736.56L969.066 741.296L977.956 740.133L978.085 737.553L971.974 734.429L968.638 733.776L968.638 733.776Z" fill="white"/>
<path d="M133.03 361.169L108.634 318.912H120.424C120.793 318.912 121.134 318.715 121.319 318.396C121.503 318.077 121.503 317.683 121.319 317.363L97.9335 276.859H107.929C108.298 276.859 108.639 276.663 108.823 276.343C109.008 276.024 109.008 275.63 108.823 275.311L92.5199 247.072H102.365C102.734 247.072 103.075 246.875 103.259 246.556C103.444 246.236 103.444 245.842 103.259 245.523L81.894 208.516C81.7095 208.197 81.3688 208 80.9998 208C80.6308 208 80.2901 208.197 80.1056 208.516L58.7395 245.523C58.555 245.842 58.555 246.236 58.7395 246.556C58.924 246.875 59.2647 247.072 59.6337 247.072H69.479L53.1754 275.311C52.991 275.63 52.991 276.024 53.1754 276.343C53.3599 276.663 53.7007 276.859 54.0696 276.859H64.0654L40.6803 317.363C40.4958 317.683 40.4958 318.077 40.6803 318.396C40.8647 318.715 41.2055 318.912 41.5744 318.912H53.3651L28.9684 361.169C28.784 361.488 28.784 361.882 28.9684 362.201C29.1529 362.52 29.4937 362.717 29.8626 362.717H72.3288V372.967C72.3288 373.537 72.7911 374 73.3614 374H88.6338C89.2041 374 89.6663 373.537 89.6663 372.967V362.717H132.136C132.505 362.717 132.846 362.52 133.03 362.201C133.215 361.882 133.215 361.488 133.03 361.169ZM87.6012 371.935H74.3939V362.718H87.6012V371.935ZM31.6513 360.652L56.048 318.396C56.2325 318.077 56.2325 317.683 56.048 317.363C55.8635 317.044 55.5228 316.847 55.1538 316.847H43.3628L66.7479 276.343C66.9324 276.024 66.9324 275.63 66.7479 275.311C66.5634 274.991 66.2227 274.794 65.8537 274.794H55.858L72.1616 246.556C72.346 246.236 72.346 245.842 72.1616 245.523C71.9771 245.204 71.6363 245.007 71.2674 245.007H61.422L80.9998 211.098L100.577 245.007H90.7319C90.3629 245.007 90.0222 245.204 89.8377 245.523C89.6532 245.842 89.6532 246.236 89.8377 246.556L106.141 274.794H96.1455C95.7766 274.794 95.4358 274.991 95.2513 275.311C95.0669 275.63 95.0669 276.024 95.2513 276.343L118.636 316.847H106.846C106.477 316.847 106.136 317.044 105.952 317.363C105.767 317.683 105.767 318.077 105.952 318.396L130.348 360.652H31.6513V360.652Z" fill="white"/>
<path d="M943.2 153.169L918.804 110.912H930.594C930.963 110.912 931.304 110.715 931.489 110.396C931.673 110.077 931.673 109.683 931.489 109.363L908.103 68.8595H918.099C918.468 68.8595 918.809 68.6629 918.993 68.3432C919.178 68.0238 919.178 67.6304 918.993 67.3106L902.69 39.0719H912.535C912.904 39.0719 913.245 38.875 913.429 38.5556C913.614 38.2362 913.614 37.8425 913.429 37.5231L892.064 0.516273C891.879 0.196872 891.539 0 891.17 0C890.801 0 890.46 0.196872 890.276 0.516273L868.909 37.5231C868.725 37.8425 868.725 38.2362 868.909 38.5556C869.094 38.875 869.435 39.0719 869.804 39.0719H879.649L863.345 67.3106C863.161 67.6304 863.161 68.0238 863.345 68.3432C863.53 68.6629 863.871 68.8595 864.24 68.8595H874.235L850.85 109.363C850.666 109.683 850.666 110.077 850.85 110.396C851.035 110.715 851.375 110.912 851.744 110.912H863.535L839.138 153.169C838.954 153.488 838.954 153.882 839.138 154.201C839.323 154.52 839.664 154.717 840.033 154.717H882.499V164.967C882.499 165.537 882.961 166 883.531 166H898.804C899.374 166 899.836 165.537 899.836 164.967V154.717H942.306C942.675 154.717 943.016 154.52 943.2 154.201C943.385 153.882 943.385 153.488 943.2 153.169ZM897.771 163.935H884.564V154.718H897.771V163.935ZM841.821 152.652L866.218 110.396C866.402 110.077 866.402 109.683 866.218 109.363C866.033 109.044 865.693 108.847 865.324 108.847H853.533L876.918 68.3432C877.102 68.0238 877.102 67.6304 876.918 67.3106C876.733 66.9912 876.393 66.7944 876.024 66.7944H866.028L882.331 38.5556C882.516 38.2362 882.516 37.8425 882.331 37.5231C882.147 37.2037 881.806 37.0068 881.437 37.0068H871.592L891.17 3.09764L910.747 37.0068H900.902C900.533 37.0068 900.192 37.2037 900.008 37.5231C899.823 37.8425 899.823 38.2362 900.008 38.5556L916.311 66.7944H906.315C905.946 66.7944 905.606 66.9912 905.421 67.3106C905.237 67.6304 905.237 68.0238 905.421 68.3432L928.806 108.847H917.016C916.647 108.847 916.306 109.044 916.122 109.363C915.937 109.683 915.937 110.077 916.122 110.396L940.518 152.652H841.821V152.652Z" fill="white"/>
<path d="M29.0284 454.635L19.7323 464.068L17.1024 472.546L18.8153 476.132L20.8092 477.039L24.0496 471.66L25.1528 471.308L31.1831 473.93L33.1616 472.66L33.5981 468.393L34.7134 473.63L33.6761 475.013L34.0444 475.174L34.556 475.808L35.2231 479.162L40.6896 472.641L42.0549 472.664L44.2421 475.454L43.3189 470.352L40.3842 460.29L29.0287 454.635H29.0284ZM10.0717 455.806L7.18789 460.895L6.73838 463.592L9.27549 462.767L10.4185 463.488L10.4267 463.55L13.1898 469.396L14.5349 468.952L15.6032 469.408L15.9862 470.21L17.8922 464.066L17.7873 460.81L13.8664 460.759L10.9629 458.437L14.2891 459.5L18.4385 458.746L20.9809 460.296L24.524 456.701C24.2528 456.586 23.9757 456.471 23.6861 456.358L15.9146 457.346L15.5701 457.322L10.0714 455.806H10.0717ZM34.4203 459.363L39.0158 465.81L39.2216 471.915L36.7525 466.085L30.3734 460.186L34.4203 459.363V459.363ZM8.81484 464.766L2.54199 466.804L0.910156 474.475L5.87051 475.02L5.92871 474.323L9.60664 470.738L8.81484 464.766V464.766ZM14.3508 470.864L10.7922 472.038L7.70195 475.049L9.90781 478.064L15.5061 478.234L17.1174 476.655L14.3508 470.864V470.864ZM25.158 473.226L20.8312 480.409L20.8279 485.989L30.3264 487.182L34.6469 485.275L32.9217 476.602L25.158 473.227V473.226ZM41.3402 474.602L36.7657 480.058L36.7937 480.232L43.1558 481.588L45.6733 480.13L41.3403 474.601L41.3402 474.602ZM27.8264 476.153L31.6574 478.384L32.967 483.331L30.3479 485.659L25.9519 485.41L29.7177 482.652L29.9602 478.821L27.8264 476.154V476.153ZM4.54805 481.411L3.6916 484.195L4.97598 488.931L13.8663 487.768L13.9952 485.188L7.88369 482.064L4.54815 481.411L4.54805 481.411Z" fill="white"/>
<path d="M812.028 1041.64L802.732 1051.07L800.102 1059.55L801.815 1063.13L803.809 1064.04L807.05 1058.66L808.153 1058.31L814.183 1060.93L816.162 1059.66L816.598 1055.39L817.713 1060.63L816.676 1062.01L817.044 1062.17L817.556 1062.81L818.223 1066.16L823.69 1059.64L825.055 1059.66L827.242 1062.45L826.319 1057.35L823.384 1047.29L812.029 1041.64H812.028ZM793.072 1042.81L790.188 1047.89L789.738 1050.59L792.275 1049.77L793.418 1050.49L793.427 1050.55L796.19 1056.4L797.535 1055.95L798.603 1056.41L798.986 1057.21L800.892 1051.07L800.787 1047.81L796.866 1047.76L793.963 1045.44L797.289 1046.5L801.438 1045.75L803.981 1047.3L807.524 1043.7C807.253 1043.59 806.976 1043.47 806.686 1043.36L798.915 1044.35L798.57 1044.32L793.071 1042.81H793.072ZM817.42 1046.36L822.016 1052.81L822.222 1058.91L819.753 1053.09L813.373 1047.19L817.42 1046.36V1046.36ZM791.815 1051.77L785.542 1053.8L783.91 1061.48L788.871 1062.02L788.929 1061.32L792.607 1057.74L791.815 1051.77V1051.77ZM797.351 1057.86L793.792 1059.04L790.702 1062.05L792.908 1065.06L798.506 1065.23L800.117 1063.66L797.351 1057.86V1057.86ZM808.158 1060.23L803.831 1067.41L803.828 1072.99L813.326 1074.18L817.647 1072.27L815.922 1063.6L808.158 1060.23V1060.23ZM824.34 1061.6L819.766 1067.06L819.794 1067.23L826.156 1068.59L828.673 1067.13L824.34 1061.6L824.34 1061.6ZM810.826 1063.15L814.657 1065.38L815.967 1070.33L813.348 1072.66L808.952 1072.41L812.718 1069.65L812.96 1065.82L810.826 1063.15V1063.15ZM787.548 1068.41L786.692 1071.2L787.976 1075.93L796.866 1074.77L796.995 1072.19L790.884 1069.06L787.548 1068.41L787.548 1068.41Z" fill="white"/>
<path d="M519 946.5C743.504 946.5 925.5 764.504 925.5 540C925.5 315.496 743.504 133.5 519 133.5C294.496 133.5 112.5 315.496 112.5 540C112.5 764.504 294.496 946.5 519 946.5Z" stroke="white" strokeWidth="15" stroke-dasharray="69 59 68 67"/>
<path d="M515.783 493.609H507.304C502.622 493.609 498.826 489.813 498.826 485.131C498.826 480.448 502.622 476.652 507.304 476.652H515.783C520.465 476.652 524.261 480.448 524.261 485.131C524.261 489.813 520.465 493.609 515.783 493.609Z" stroke="white"/>
<path d="M498.826 485.13H464.906" stroke="white"/>
<path d="M524.261 485.13H557.404" stroke="white"/>
<path d="M460.479 498.432C442.503 502.32 431 508.203 431 514.804C431 526.51 467.061 536 511.543 536C556.026 536 592.087 526.51 592.087 514.804C592.087 508.157 580.406 502.242 562.212 498.356" stroke="white" strokeWidth="3"/>
<path d="M456.435 510.565L490.348 408.826L541.218 341L532.739 417.304L566.652 510.565" stroke="white" strokeWidth="4"/>
<path d="M323.836 604.548L324.007 601.301C324.007 600.959 323.779 600.105 323.323 598.738C322.981 597.257 322.754 595.889 322.64 594.636C322.64 593.383 322.64 592.358 322.64 591.56C322.754 590.649 322.811 589.851 322.811 589.167C322.924 588.37 322.754 587.345 322.298 586.091C321.956 584.724 322.127 583.471 322.811 582.332C323.494 581.192 323.893 580.11 324.007 579.084C324.121 577.945 324.463 576.863 325.032 575.837C325.602 574.698 326.741 573.787 328.45 573.103C330.273 572.419 331.64 572.362 332.552 572.932C333.577 573.502 334.66 574.185 335.799 574.983C338.989 577.262 342.065 578.287 345.027 578.059C348.104 577.831 350.211 578.059 351.351 578.743C352.49 579.312 353.344 580.11 353.914 581.135C354.484 582.161 354.882 583.243 355.11 584.382C355.338 585.522 355.623 586.661 355.965 587.8C356.307 588.94 356.591 590.421 356.819 592.244C357.047 594.067 356.591 595.946 355.452 597.883C354.427 599.706 353.914 601.301 353.914 602.668C354.028 604.036 354.256 605.517 354.598 607.112C355.281 611.441 355.053 615.429 353.914 619.075C353.686 619.53 353.515 619.986 353.401 620.442C353.401 620.784 353.287 621.125 353.06 621.467C357.959 618.163 360.978 615.714 362.117 614.119C363.484 612.524 364.567 610.587 365.364 608.308C366.162 605.916 366.731 604.434 367.073 603.865C367.415 603.295 367.7 602.839 367.928 602.498C368.497 601.928 368.953 600.732 369.295 598.909C370.206 594.124 371.46 591.104 373.055 589.851C372.713 586.433 373.169 583.186 374.422 580.11C375.675 576.92 378.125 575.097 381.771 574.641C385.416 574.071 388.037 574.47 389.632 575.837C392.48 575.268 394.588 575.154 395.955 575.496C397.322 575.723 398.689 576.578 400.057 578.059C402.563 580.566 403.076 585.123 401.595 591.731C401.253 592.984 401.025 594.351 400.911 595.833C400.911 597.2 400.797 598.567 400.569 599.934C400 603.124 398.576 605.688 396.297 607.625C391.967 611.27 389.803 616.511 389.803 623.347C389.803 626.309 389.233 628.36 388.094 629.5C387.068 630.525 385.872 630.981 384.505 630.867C383.138 630.753 381.827 631.095 380.574 631.892C379.435 632.69 378.353 633.658 377.327 634.797C374.821 637.76 373.51 640.038 373.396 641.633C373.396 643.228 373.909 644.88 374.935 646.589C375.96 648.298 377.156 650.406 378.523 652.913L382.454 659.919C387.353 668.692 389.803 678.206 389.803 688.459C389.803 690.168 390.315 692.219 391.341 694.612C392.48 696.89 392.48 699.112 391.341 701.277C390.315 703.442 389.005 704.695 387.41 705.037C381.486 706.746 377.555 703.271 375.618 694.612C374.137 688.459 370.605 683.162 365.022 678.718C363.541 677.465 362.516 675.87 361.946 673.933L360.579 669.661C360.237 668.521 359.725 667.553 359.041 666.755C358.471 665.844 357.845 664.932 357.161 664.021C356.478 662.996 355.623 662.54 354.598 662.654C353.003 662.882 352.148 664.591 352.034 667.781V672.395C352.034 681.624 350.838 686.921 348.445 688.289C347.42 688.858 346.622 689.941 346.053 691.536L344.515 696.321C343.945 698.03 343.204 699.625 342.293 701.106C341.495 702.473 340.185 703.271 338.362 703.499C334.83 703.954 332.381 702.302 331.014 698.542C329.76 694.783 329.077 690.51 328.963 685.725C328.849 680.94 328.678 677.921 328.45 676.667C328.222 675.414 327.881 674.389 327.425 673.591C327.083 672.68 326.684 671.882 326.229 671.199C325.887 670.401 325.488 669.376 325.032 668.123C324.007 665.16 323.38 661.799 323.152 658.04C323.038 654.166 323.038 651.602 323.152 650.349C323.38 649.096 323.323 647.501 322.981 645.564C322.526 643.627 322.469 641.918 322.811 640.437C323.152 638.842 323.266 637.418 323.152 636.165C323.038 634.797 323.095 633.544 323.323 632.405C323.551 631.265 323.779 630.012 324.007 628.645C324.576 625.569 324.747 622.778 324.52 620.271C324.292 617.651 324.178 615.828 324.178 614.802C324.292 613.777 324.349 612.922 324.349 612.239C324.463 611.555 324.52 610.872 324.52 610.188L323.836 604.548ZM470.979 703.499C470.296 704.752 469.384 705.663 468.245 706.233C467.106 706.917 465.966 706.803 464.827 705.891C463.688 705.094 462.833 704.752 462.264 704.866C461.808 704.98 461.352 705.094 460.896 705.208C459.871 705.321 458.846 704.581 457.82 702.986C456.795 701.391 456.225 700.138 456.111 699.226C455.997 698.201 455.997 697.232 456.111 696.321C456.567 694.27 456.225 692.447 455.086 690.852C454.061 689.257 453.32 688.061 452.864 687.263C452.522 686.466 452.352 685.326 452.352 683.845C452.352 682.25 452.238 681.282 452.01 680.94C451.896 680.484 451.782 680.142 451.668 679.915C451.098 678.889 450.87 677.294 450.984 675.129C451.212 672.965 450.927 671.484 450.13 670.686C449.332 669.775 448.25 669.091 446.883 668.635C445.63 668.18 444.604 668.35 443.807 669.148C443.123 669.832 442.439 670.686 441.756 671.711C441.186 672.737 440.446 673.648 439.534 674.446C438.623 675.129 437.426 675.3 435.945 674.958C434.578 674.617 433.04 674.958 431.331 675.984C429.622 677.009 428.597 678.263 428.255 679.744C427.913 681.111 427.514 682.535 427.059 684.016C426.603 685.497 426.432 686.864 426.546 688.118C426.774 689.371 426.774 690.624 426.546 691.877C426.432 693.017 426.147 694.156 425.691 695.295C424.78 698.144 423.698 699.682 422.444 699.91C421.419 700.024 420.337 700.024 419.197 699.91C417.944 702.188 416.463 703.556 414.754 704.011C410.083 705.037 407.291 704.296 406.38 701.79C405.81 700.308 405.468 698.372 405.354 695.979C405.127 691.194 404.614 687.947 403.816 686.238C403.019 684.529 402.791 682.478 403.133 680.085C403.589 677.693 403.759 675.3 403.646 672.908C403.532 670.515 403.532 668.692 403.646 667.439C403.759 666.186 403.873 665.046 403.987 664.021C404.215 662.996 404.443 662.027 404.671 661.116C404.899 660.09 405.013 658.951 405.013 657.698C405.127 656.331 405.354 654.792 405.696 653.083C406.038 651.375 406.38 649.609 406.722 647.786C407.633 643.228 407.975 639.81 407.747 637.532C407.519 635.253 407.69 633.316 408.26 631.721C408.943 630.126 409.684 628.702 410.481 627.449C412.532 624.145 413.501 621.467 413.387 619.417C413.273 617.252 413.159 615.6 413.045 614.46C413.045 613.207 413.102 611.954 413.216 610.701C413.785 604.548 416.691 594.921 421.932 581.819C422.273 580.566 423.356 579.597 425.179 578.914C427.002 578.23 428.825 578.173 430.647 578.743C432.584 579.198 434.122 579.426 435.262 579.426C436.515 579.312 437.54 578.857 438.338 578.059C439.249 577.148 440.161 576.293 441.072 575.496C442.098 574.698 443.294 574.071 444.661 573.616C446.028 573.046 447.566 572.761 449.275 572.761C450.984 572.761 452.807 573.274 454.744 574.299C457.934 576.008 460.042 577.603 461.067 579.084C462.093 580.566 462.776 581.762 463.118 582.673C463.46 583.585 464.03 584.838 464.827 586.433C465.625 588.028 465.966 589.452 465.853 590.706C465.853 591.959 466.08 593.44 466.536 595.149C466.992 596.858 466.992 598.852 466.536 601.13C466.08 603.409 466.08 605.688 466.536 607.966C466.992 610.131 467.22 611.612 467.22 612.41C467.22 613.207 467.277 613.948 467.391 614.631C467.505 616.568 467.903 618.277 468.587 619.758C469.271 621.353 469.441 623.347 469.1 625.74C468.872 628.018 468.815 629.955 468.929 631.55C469.157 633.031 469.783 634.569 470.809 636.165C472.745 639.241 473.429 642.659 472.859 646.418C472.745 647.444 472.745 648.583 472.859 649.836C473.087 650.976 473.201 652.058 473.201 653.083C473.201 653.995 473.087 655.191 472.859 656.672C472.518 658.837 472.575 661.458 473.03 664.534C473.714 670.23 474.056 674.047 474.056 675.984C474.056 677.921 474.113 679.573 474.227 680.94C474.34 682.193 474.454 683.56 474.568 685.042C474.91 688.915 474.91 692.846 474.568 696.833C474.34 700.707 473.144 702.929 470.979 703.499ZM444.832 634.626C445.06 632.462 444.946 629.784 444.49 626.594C444.148 623.404 443.978 621.069 443.978 619.587C443.978 617.992 443.864 616.625 443.636 615.486C443.294 613.663 442.326 613.435 440.73 614.802C438.908 612.979 437.426 612.922 436.287 614.631C435.49 615.885 435.091 617.935 435.091 620.784C434.863 622.721 434.407 624.486 433.724 626.082C433.154 627.677 432.755 629.443 432.527 631.379C432.186 633.658 431.559 636.449 430.647 639.753C429.85 643.057 429.964 645.507 430.989 647.102C432.129 648.697 433.496 649.267 435.091 648.811C436.686 648.355 437.882 648.127 438.68 648.127C439.477 648.014 440.161 647.9 440.73 647.786C442.098 647.672 443.123 647.159 443.807 646.248C444.604 645.222 445.003 644.368 445.003 643.684C445.117 642.887 445.117 642.089 445.003 641.292C444.661 639.013 444.604 636.791 444.832 634.626ZM512.85 671.711L513.362 679.915C513.59 684.358 512.451 687.263 509.944 688.63C509.261 693.188 508.919 697.232 508.919 700.764C508.121 702.359 506.811 703.328 504.988 703.669C501.57 704.125 499.349 703.214 498.323 700.935C496.842 698.087 495.646 696.549 494.734 696.321C494.507 696.207 494.108 696.15 493.538 696.15C493.082 696.036 492.513 695.865 491.829 695.637C491.146 695.295 490.861 694.384 490.975 692.903C491.202 691.422 491.202 690.225 490.975 689.314C490.747 688.403 490.462 687.434 490.12 686.409C489.209 683.446 488.753 680.598 488.753 677.864C488.753 675.927 488.753 674.161 488.753 672.566C488.867 670.971 488.924 669.376 488.924 667.781C488.696 662.654 488.012 658.267 486.873 654.622C485.848 650.976 485.164 648.583 484.822 647.444C484.139 644.937 483.797 642.545 483.797 640.266C483.797 638.899 483.968 637.931 484.31 637.361C484.651 636.677 484.993 635.994 485.335 635.31C486.246 633.601 486.588 631.607 486.36 629.329C486.246 627.05 486.076 624.771 485.848 622.493C485.734 620.1 485.563 617.48 485.335 614.631C485.221 611.669 485.05 608.536 484.822 605.232C484.708 601.928 484.651 598.738 484.651 595.662C484.651 585.636 485.905 579.996 488.411 578.743C488.867 578.515 489.38 578.287 489.949 578.059C490.633 577.717 491.43 577.262 492.342 576.692C493.253 576.122 494.051 575.553 494.734 574.983C495.532 574.413 496.329 573.958 497.127 573.616C498.608 572.932 500.374 573.046 502.425 573.958C504.59 574.755 506.128 575.325 507.039 575.667C507.951 575.894 508.862 576.122 509.773 576.35C510.685 576.464 511.71 576.521 512.85 576.521C514.103 576.407 515.812 576.35 517.977 576.35C520.255 576.236 522.648 576.236 525.154 576.35C527.775 576.464 530.281 576.806 532.674 577.375C540.421 578.971 546.403 583.243 550.618 590.193C552.441 593.269 553.41 596.003 553.523 598.396C553.637 600.789 553.751 603.124 553.865 605.403C554.093 607.568 554.549 610.074 555.232 612.922C555.916 615.657 556.144 618.277 555.916 620.784C555.688 623.29 555.403 625.056 555.062 626.082C554.834 626.993 554.549 627.847 554.207 628.645C553.637 630.354 553.41 632.12 553.523 633.943C553.751 636.905 553.523 639.241 552.84 640.95C552.156 642.545 551.473 644.197 550.789 645.906C548.852 650.121 546.744 652.514 544.466 653.083C543.213 653.311 542.187 653.539 541.39 653.767C540.592 653.995 540.136 654.508 540.022 655.305C539.795 655.875 540.136 656.558 541.048 657.356C541.959 658.04 542.871 659.122 543.782 660.603C544.808 662.084 545.662 663.053 546.346 663.508C547.029 663.964 547.656 664.249 548.226 664.363C549.935 664.705 551.017 665.103 551.473 665.559C552.498 666.812 553.239 667.838 553.694 668.635C554.264 669.433 554.435 670.629 554.207 672.224C553.979 673.819 553.979 675.471 554.207 677.18C554.435 678.889 554.663 680.712 554.891 682.649C555.118 684.472 555.118 686.01 554.891 687.263C554.777 688.516 554.72 689.428 554.72 689.998L555.403 694.441C555.403 697.175 554.606 699.397 553.011 701.106C551.416 702.815 550.162 703.783 549.251 704.011C548.34 704.239 547.485 704.182 546.688 703.84C545.89 703.499 545.206 703.043 544.637 702.473C544.067 702.017 543.611 701.733 543.27 701.619C542.928 701.391 542.472 701.277 541.902 701.277C541.447 701.163 540.934 700.992 540.364 700.764C538.313 700.194 536.548 696.207 535.066 688.801C534.269 685.155 532.902 682.82 530.965 681.794C528.003 680.313 526.408 678.263 526.18 675.642C526.066 674.389 525.952 672.68 525.838 670.515C525.382 666.186 523.901 663.508 521.395 662.483C520.141 662.027 519.002 661.799 517.977 661.799C516.951 661.799 515.926 662.369 514.9 663.508C513.533 665.217 512.85 667.952 512.85 671.711ZM521.395 639.241C522.876 637.874 524.3 636.677 525.667 635.652C527.148 634.513 528.344 633.088 529.256 631.379C530.281 629.556 531.079 627.734 531.648 625.911C532.56 622.493 532.845 619.36 532.503 616.511C532.275 613.549 531.933 611.612 531.478 610.701C531.136 609.675 529.996 609.163 528.06 609.163C526.237 609.163 524.357 608.707 522.42 607.795C520.597 606.884 519.572 605.802 519.344 604.548C519.116 601.814 518.261 600.846 516.78 601.643C515.983 602.099 515.413 602.555 515.071 603.01C514.729 603.352 514.445 604.491 514.217 606.428C513.875 610.416 513.875 613.549 514.217 615.828C514.673 618.106 514.957 619.644 515.071 620.442C515.185 621.125 515.242 621.923 515.242 622.834C515.356 623.632 515.413 624.6 515.413 625.74C515.527 626.765 515.641 628.474 515.755 630.867C515.983 633.145 516.04 635.082 515.926 636.677C515.812 638.272 515.983 639.924 516.438 641.633C518.261 641.405 519.913 640.608 521.395 639.241ZM606.16 661.287C602.97 661.287 601.489 659.806 601.717 656.843C601.945 654.451 601.888 652.514 601.546 651.033C600.976 648.526 600.862 646.703 601.204 645.564C602.116 642.146 605.818 641.348 612.312 643.171C613.452 643.513 614.363 643.684 615.047 643.684C615.73 643.684 616.414 643.627 617.098 643.513C619.148 643.171 620.971 643.171 622.566 643.513C624.275 643.741 625.757 643.798 627.01 643.684C628.263 643.57 629.402 643.399 630.428 643.171C631.567 642.944 632.592 642.716 633.504 642.488C634.415 642.26 635.27 642.146 636.067 642.146C637.207 642.146 638.004 643.114 638.46 645.051C639.03 646.874 639.257 648.925 639.144 651.204C638.802 657.014 637.435 660.375 635.042 661.287C633.333 661.97 631.681 663.053 630.086 664.534C628.605 666.015 628.035 668.236 628.377 671.199C628.833 674.047 629.061 676.326 629.061 678.035C629.174 679.63 629.174 681.054 629.061 682.307C629.061 683.446 629.004 684.472 628.89 685.383C628.89 686.181 628.947 687.263 629.061 688.63C629.288 689.884 629.231 691.593 628.89 693.757C628.662 695.922 628.149 697.859 627.352 699.568C625.415 703.669 622.965 705.208 620.003 704.182C617.838 703.499 615.73 701.676 613.68 698.713C612.996 697.688 612.312 696.833 611.629 696.15C611.059 695.352 610.262 695.125 609.236 695.466C608.211 695.694 607.299 696.264 606.502 697.175C605.818 697.973 605.078 698.827 604.28 699.739C599.495 705.663 593.4 706.518 585.994 702.302C582.234 700.251 579.614 697.688 578.133 694.612C577.563 693.245 576.937 691.707 576.253 689.998C575.683 688.289 575 686.637 574.202 685.042C572.379 681.282 570.613 678.775 568.904 677.522C567.309 676.269 566.398 670.116 566.17 659.065C566.056 656.672 566.113 654.622 566.341 652.913C566.569 651.09 566.683 648.811 566.683 646.077V638.215C566.683 635.709 566.626 633.316 566.512 631.038C566.512 627.392 566.797 624.202 567.366 621.467C563.72 619.075 562.296 614.46 563.094 607.625C563.663 603.295 564.461 600.162 565.486 598.225C566.626 596.174 567.48 594.181 568.05 592.244C568.733 590.193 569.417 588.085 570.101 585.92C570.784 583.642 571.753 582.161 573.006 581.477C574.259 580.793 575.057 580.224 575.398 579.768C575.74 579.312 576.082 578.857 576.424 578.401C578.589 575.211 583.26 573.046 590.438 571.907C593.628 571.337 596.761 571.622 599.837 572.761C602.913 573.901 605.477 574.584 607.527 574.812C609.578 575.04 611.515 575.211 613.338 575.325C621.199 575.78 626.326 577.432 628.719 580.281C630.428 582.218 631.51 584.211 631.966 586.262C632.422 588.199 632.991 589.794 633.675 591.047C634.472 592.187 634.757 593.44 634.529 594.807C634.301 596.06 634.244 597.143 634.358 598.054C634.586 598.852 634.529 599.706 634.188 600.618C633.846 601.529 633.504 602.441 633.162 603.352C632.479 605.745 632.535 607.454 633.333 608.479C634.244 609.504 635.042 610.473 635.726 611.384C636.409 612.182 636.922 613.036 637.264 613.948C638.289 616.226 638.403 618.163 637.605 619.758C636.808 621.353 635.896 622.891 634.871 624.373C633.96 625.854 632.763 626.651 631.282 626.765C627.295 627.107 624.617 627.791 623.25 628.816C621.883 629.727 620.743 630.354 619.832 630.696C617.553 631.721 615.446 631.607 613.509 630.354C610.319 628.873 608.951 626.139 609.407 622.151C609.635 617.366 607.869 614.745 604.109 614.29C602.4 614.062 600.634 614.574 598.812 615.828C596.989 617.081 595.564 618.733 594.539 620.784C592.146 626.139 591.862 631.095 593.685 635.652C594.14 636.791 594.368 638.215 594.368 639.924V644.368C594.368 646.988 594.026 648.925 593.343 650.178C592.773 651.431 592.431 652.913 592.317 654.622C592.203 656.217 592.146 658.097 592.146 660.261C592.26 662.426 592.431 664.762 592.659 667.268C593.001 669.661 593.4 671.882 593.855 673.933C595.109 678.718 596.875 680.997 599.153 680.769C600.976 680.769 602.4 679.915 603.426 678.206C603.768 677.522 604.166 676.838 604.622 676.155C605.078 675.471 605.761 674.958 606.673 674.617C607.584 674.161 608.211 673.477 608.553 672.566C609.008 671.654 609.236 670.572 609.236 669.319C609.35 667.952 609.236 665.16 608.895 660.945C607.983 661.173 607.072 661.287 606.16 661.287ZM712.117 703.499C711.434 704.752 710.522 705.663 709.383 706.233C708.243 706.917 707.104 706.803 705.965 705.891C704.826 705.094 703.971 704.752 703.401 704.866C702.946 704.98 702.49 705.094 702.034 705.208C701.009 705.321 699.983 704.581 698.958 702.986C697.933 701.391 697.363 700.138 697.249 699.226C697.135 698.201 697.135 697.232 697.249 696.321C697.705 694.27 697.363 692.447 696.224 690.852C695.198 689.257 694.458 688.061 694.002 687.263C693.66 686.466 693.489 685.326 693.489 683.845C693.489 682.25 693.375 681.282 693.147 680.94C693.034 680.484 692.92 680.142 692.806 679.915C692.236 678.889 692.008 677.294 692.122 675.129C692.35 672.965 692.065 671.484 691.268 670.686C690.47 669.775 689.388 669.091 688.021 668.635C686.767 668.18 685.742 668.35 684.944 669.148C684.261 669.832 683.577 670.686 682.894 671.711C682.324 672.737 681.583 673.648 680.672 674.446C679.76 675.129 678.564 675.3 677.083 674.958C675.716 674.617 674.178 674.958 672.469 675.984C670.76 677.009 669.734 678.263 669.393 679.744C669.051 681.111 668.652 682.535 668.196 684.016C667.741 685.497 667.57 686.864 667.684 688.118C667.911 689.371 667.911 690.624 667.684 691.877C667.57 693.017 667.285 694.156 666.829 695.295C665.918 698.144 664.835 699.682 663.582 699.91C662.557 700.024 661.474 700.024 660.335 699.91C659.082 702.188 657.601 703.556 655.892 704.011C651.22 705.037 648.429 704.296 647.518 701.79C646.948 700.308 646.606 698.372 646.492 695.979C646.264 691.194 645.752 687.947 644.954 686.238C644.157 684.529 643.929 682.478 644.271 680.085C644.726 677.693 644.897 675.3 644.783 672.908C644.669 670.515 644.669 668.692 644.783 667.439C644.897 666.186 645.011 665.046 645.125 664.021C645.353 662.996 645.581 662.027 645.809 661.116C646.036 660.09 646.15 658.951 646.15 657.698C646.264 656.331 646.492 654.792 646.834 653.083C647.176 651.375 647.518 649.609 647.859 647.786C648.771 643.228 649.113 639.81 648.885 637.532C648.657 635.253 648.828 633.316 649.397 631.721C650.081 630.126 650.822 628.702 651.619 627.449C653.67 624.145 654.638 621.467 654.524 619.417C654.41 617.252 654.297 615.6 654.183 614.46C654.183 613.207 654.24 611.954 654.354 610.701C654.923 604.548 657.828 594.921 663.069 581.819C663.411 580.566 664.493 579.597 666.316 578.914C668.139 578.23 669.962 578.173 671.785 578.743C673.722 579.198 675.26 579.426 676.399 579.426C677.653 579.312 678.678 578.857 679.476 578.059C680.387 577.148 681.299 576.293 682.21 575.496C683.235 574.698 684.432 574.071 685.799 573.616C687.166 573.046 688.704 572.761 690.413 572.761C692.122 572.761 693.945 573.274 695.882 574.299C699.072 576.008 701.18 577.603 702.205 579.084C703.23 580.566 703.914 581.762 704.256 582.673C704.598 583.585 705.167 584.838 705.965 586.433C706.762 588.028 707.104 589.452 706.99 590.706C706.99 591.959 707.218 593.44 707.674 595.149C708.13 596.858 708.13 598.852 707.674 601.13C707.218 603.409 707.218 605.688 707.674 607.966C708.13 610.131 708.357 611.612 708.357 612.41C708.357 613.207 708.414 613.948 708.528 614.631C708.642 616.568 709.041 618.277 709.725 619.758C710.408 621.353 710.579 623.347 710.237 625.74C710.009 628.018 709.952 629.955 710.066 631.55C710.294 633.031 710.921 634.569 711.946 636.165C713.883 639.241 714.567 642.659 713.997 646.418C713.883 647.444 713.883 648.583 713.997 649.836C714.225 650.976 714.339 652.058 714.339 653.083C714.339 653.995 714.225 655.191 713.997 656.672C713.655 658.837 713.712 661.458 714.168 664.534C714.852 670.23 715.193 674.047 715.193 675.984C715.193 677.921 715.25 679.573 715.364 680.94C715.478 682.193 715.592 683.56 715.706 685.042C716.048 688.915 716.048 692.846 715.706 696.833C715.478 700.707 714.282 702.929 712.117 703.499ZM685.97 634.626C686.198 632.462 686.084 629.784 685.628 626.594C685.286 623.404 685.115 621.069 685.115 619.587C685.115 617.992 685.001 616.625 684.773 615.486C684.432 613.663 683.463 613.435 681.868 614.802C680.045 612.979 678.564 612.922 677.425 614.631C676.627 615.885 676.229 617.935 676.229 620.784C676.001 622.721 675.545 624.486 674.861 626.082C674.292 627.677 673.893 629.443 673.665 631.379C673.323 633.658 672.697 636.449 671.785 639.753C670.988 643.057 671.102 645.507 672.127 647.102C673.266 648.697 674.633 649.267 676.229 648.811C677.824 648.355 679.02 648.127 679.817 648.127C680.615 648.014 681.299 647.9 681.868 647.786C683.235 647.672 684.261 647.159 684.944 646.248C685.742 645.222 686.141 644.368 686.141 643.684C686.255 642.887 686.255 642.089 686.141 641.292C685.799 639.013 685.742 636.791 685.97 634.626Z" fill="white"/>
<path d="M519.5 858.5C695.127 858.5 837.5 716.127 837.5 540.5C837.5 364.873 695.127 222.5 519.5 222.5C343.873 222.5 201.5 364.873 201.5 540.5C201.5 716.127 343.873 858.5 519.5 858.5Z" stroke="white" strokeWidth="9" stroke-dasharray="69 59 68 67"/>
<path d="M919.028 165.635L909.732 175.068L907.102 183.546L908.815 187.132L910.809 188.039L914.05 182.66L915.153 182.308L921.183 184.93L923.162 183.66L923.598 179.393L924.713 184.63L923.676 186.013L924.044 186.174L924.556 186.808L925.223 190.162L930.69 183.641L932.055 183.664L934.242 186.454L933.319 181.352L930.384 171.29L919.029 165.635H919.028ZM900.072 166.806L897.188 171.895L896.738 174.592L899.275 173.767L900.418 174.488L900.427 174.55L903.19 180.396L904.535 179.952L905.603 180.408L905.986 181.21L907.892 175.066L907.787 171.81L903.866 171.759L900.963 169.437L904.289 170.5L908.438 169.746L910.981 171.296L914.524 167.701C914.253 167.586 913.976 167.471 913.686 167.358L905.915 168.346L905.57 168.322L900.071 166.806H900.072ZM924.42 170.363L929.016 176.81L929.222 182.915L926.753 177.085L920.373 171.186L924.42 170.363V170.363ZM898.815 175.766L892.542 177.804L890.91 185.475L895.871 186.02L895.929 185.323L899.607 181.738L898.815 175.766V175.766ZM904.351 181.864L900.792 183.038L897.702 186.049L899.908 189.064L905.506 189.234L907.117 187.655L904.351 181.864V181.864ZM915.158 184.226L910.831 191.409L910.828 196.989L920.326 198.182L924.647 196.275L922.922 187.602L915.158 184.227V184.226ZM931.34 185.602L926.766 191.058L926.794 191.232L933.156 192.588L935.673 191.13L931.34 185.601L931.34 185.602ZM917.826 187.153L921.657 189.384L922.967 194.331L920.348 196.659L915.952 196.41L919.718 193.652L919.96 189.821L917.826 187.154V187.153ZM894.548 192.411L893.692 195.195L894.976 199.931L903.866 198.768L903.995 196.188L897.884 193.064L894.548 192.411L894.548 192.411Z" fill="white"/>
</svg>
