<svg width="410" height="513" viewBox="0 0 410 513" fill="none" xmlns="http://www.w3.org/2000/svg">
<path d="M401.269 41.964C399.076 41.964 397.079 42.783 395.577 44.14C381.779 48.68 315.765 68.272 205.002 68.272C100.486 68.272 35.82 50.83 17.269 45.044V22.465C40.847 32.816 97.824 51.205 205.002 51.205C350.973 51.205 403.82 17.089 406.005 15.638C409.913 13.035 410.963 7.76997 408.377 3.85297C405.791 -0.0640252 400.501 -1.14803 396.567 1.41197C396.072 1.74497 344.804 34.137 205.002 34.137C65.2 34.137 13.933 1.74597 13.472 1.43897C10.844 -0.319025 7.47303 -0.472025 4.70803 1.01197C1.93503 2.49697 0.202026 5.38998 0.202026 8.53798V51.205C0.202026 54.763 2.41203 57.946 5.74003 59.201C8.52203 60.242 73.998 84.135 196.469 85.236V145.072C196.469 149.782 200.292 153.605 205.002 153.605C209.712 153.605 213.535 149.782 213.535 145.072V85.262C308.195 84.417 368.825 69.953 392.735 62.922V256.006H333.002C328.292 256.006 324.469 259.829 324.469 264.539C324.469 269.249 328.292 273.072 333.002 273.072H392.735V307.205C392.735 407.856 313.102 490.245 213.535 494.725V418.138C213.535 413.428 209.712 409.605 205.002 409.605C200.292 409.605 196.469 413.428 196.469 418.138V494.725C96.902 490.245 17.269 407.856 17.269 307.205V273.072H77.002C81.712 273.072 85.535 269.249 85.535 264.539C85.535 259.829 81.712 256.006 77.002 256.006H17.269V85.339C17.269 80.629 13.446 76.806 8.73603 76.806C4.02603 76.806 0.203026 80.629 0.203026 85.339V307.206C0.203026 420.128 92.081 512.006 205.003 512.006C317.925 512.006 409.803 420.128 409.803 307.206V50.497C409.803 45.778 405.98 41.964 401.269 41.964Z" fill="black"/>
<path d="M239.392 230.405C239.392 225.695 235.578 221.872 230.859 221.872H230.774C226.064 221.872 222.283 225.695 222.283 230.405C222.283 235.115 226.14 238.938 230.859 238.938C235.578 238.939 239.392 235.116 239.392 230.405Z" fill="black"/>
<path d="M102.859 262.465C102.219 265.016 102.791 267.722 104.412 269.787C106.025 271.861 108.508 273.072 111.136 273.072C112.51 273.072 114.208 273.703 115.906 274.617C102.423 293.962 103.976 320.501 120.565 353.687C121.922 356.392 124.601 358.184 127.622 358.389C130.677 358.577 133.527 357.186 135.242 354.694C141.121 346.118 146.881 339.59 151.814 334.786C154.144 348.559 163.556 367.682 191.008 390.56C192.578 391.874 194.515 392.54 196.469 392.54C198.039 392.54 199.609 392.113 201.009 391.234C204.132 389.271 205.643 385.517 204.747 381.933C198.193 355.736 208.638 349.097 208.817 348.977C213.032 346.869 214.748 341.741 212.64 337.525C210.532 333.309 205.412 331.586 201.188 333.711C200.463 334.069 187.373 340.922 185.734 362.127C161.431 335.366 169.444 320.476 169.435 320.476C171.594 317.242 171.287 312.958 168.701 310.057C166.115 307.156 161.9 306.371 158.427 308.154C157.796 308.478 145.089 315.16 130.079 333.225C120.607 309.118 121.998 291.395 134.209 279.294C137.546 275.983 137.58 270.599 134.286 267.245C133.544 266.485 128.799 261.809 122.263 258.729C131.709 239.435 153.29 238.949 154.28 238.94C157.736 238.94 160.859 236.849 162.173 233.641C163.487 230.433 162.728 226.755 160.262 224.331C155.731 219.86 151.404 212.837 151.78 210.84C154.707 207.913 163.087 210.396 166.893 212.359C169.342 213.648 172.269 213.665 174.752 212.41C177.218 211.147 178.925 208.766 179.317 206.019C180.478 197.964 184.761 187.741 187.936 187.741C194.123 187.741 196.649 198.024 196.666 198.066C197.511 202 200.984 204.807 205.003 204.807H222.07C228.248 204.807 241.091 210.294 267.237 236.44C271.751 240.954 277.23 242.328 281.633 243.429C288.323 245.101 290.337 245.605 290.337 256.007C290.337 264.54 287.879 264.54 281.343 264.54C280.592 264.531 279.397 264.361 277.887 264.19C268.04 263.047 249.701 260.905 238.617 270.761C234.965 274.021 230.604 280.02 230.604 290.14C230.604 306.132 244.53 312.83 256.204 314.946V329.726C244.65 325.485 225.774 316.772 211.208 301.344C207.965 297.914 202.572 297.769 199.15 301.003C195.72 304.237 195.566 309.639 198.8 313.069C224.741 340.538 261.255 349.293 262.8 349.651C265.334 350.231 268.005 349.642 270.045 348.021C272.084 346.408 273.271 343.942 273.271 341.339V307.206C273.271 302.513 269.457 298.707 264.763 298.673C264.592 298.673 247.671 298.195 247.671 290.14C247.671 286.027 248.977 284.389 249.966 283.518C255.325 278.739 269.755 280.412 275.907 281.137C278.313 281.419 280.199 281.606 281.326 281.606C298.632 281.606 307.404 272.996 307.404 256.006C307.404 232.275 293.862 228.887 285.772 226.865C282.93 226.157 280.481 225.542 279.304 224.373C262.254 207.315 240.332 187.739 222.071 187.739H211.148C207.59 179.598 200.302 170.672 187.937 170.672C174.488 170.672 167.85 183.771 164.778 193.524C156.595 191.578 146.721 191.766 139.716 198.772C136.465 202.023 134.758 206.222 134.767 210.906C134.793 215.625 136.619 220.318 138.94 224.397C124.849 228.81 108.55 239.698 102.859 262.465Z" fill="black"/>
</svg>
