<svg width="181" height="293" viewBox="0 0 181 293" fill="none" xmlns="http://www.w3.org/2000/svg">
<path d="M0.226497 6.5L6 12.2735L11.7735 6.5L6 0.726497L0.226497 6.5ZM180.774 6.5L175 0.726497L169.226 6.5L175 12.2735L180.774 6.5ZM6 7.5H175V5.5H6V7.5Z" fill="black"/>
<path d="M51.2546 246.344L51.245 246.333L51.2352 246.322L16.5297 208.684C16.1891 208.314 16 207.83 16 207.328V4C16 2.89543 16.8954 2 18 2H163C164.105 2 165 2.89543 165 4V207.359C165 207.849 164.82 208.322 164.495 208.688L133.256 243.832L133.253 243.836L92.0237 289.803C91.2207 290.699 89.8148 290.688 89.0256 289.78L51.2546 246.344Z" fill="url(#paint0_linear_161_206)" stroke="#6A6A6A" strokeWidth="2"/>
<path d="M161.5 207.808L90.5048 286.747L55.3761 246.67L55.3695 246.663L19.5 207.306V5.5H161.5V207.808Z" stroke="black"/>
<g clip-path="url(#clip0_161_206)">
<path d="M93.8062 164.025L87.251 164.025C86.2458 164.025 85.4311 163.21 85.4311 162.205L85.4311 64.3789C85.4311 63.3737 86.2458 62.559 87.251 62.559L93.8062 62.559C94.8115 62.559 95.6261 63.3737 95.6261 64.3789L95.626 162.205C95.6262 163.21 94.8112 164.025 93.8062 164.025Z" fill="#A16125"/>
<path d="M93.806 62.559L90.5284 62.559L90.5282 164.025L93.8058 164.025C94.8111 164.025 95.6257 163.21 95.6257 162.205L95.6258 64.3788C95.6259 63.374 94.8111 62.5592 93.806 62.559Z" fill="#5E3C16"/>
<path d="M93.9069 86.9264L93.9069 73.9252L130.015 78.9217C130.766 79.0257 131.325 79.6674 131.325 80.4257C131.325 81.1839 130.766 81.8256 130.015 81.9296L93.9069 86.9264Z" fill="#E1E1E3"/>
<path d="M87.1498 86.9263L87.1498 73.925L51.0421 78.9218C50.2911 79.0258 49.732 79.6676 49.732 80.4258C49.732 81.184 50.2911 81.8257 51.0421 81.9297L87.1498 86.9263Z" fill="#E1E1E3"/>
<path d="M93.9071 86.9262L130.015 81.9295C130.766 81.8255 131.325 81.1837 131.325 80.4255L93.9071 80.4254L93.9071 86.9262Z" fill="#ACACB2"/>
<path d="M49.732 80.4257C49.732 81.184 50.2911 81.8257 51.0421 81.9297L87.1497 86.9262L87.1497 80.4255L49.732 80.4257Z" fill="#ACACB2"/>
<path d="M96.6908 91.689L84.3661 91.689C83.2784 91.689 82.3965 90.8071 82.3965 89.7195L82.3965 71.8118C82.3965 70.7241 83.2784 69.8423 84.3661 69.8423L96.6908 69.8423C97.7784 69.8423 98.6603 70.7241 98.6603 71.8118L98.6603 89.7195C98.6604 90.8073 97.7787 91.689 96.6908 91.689Z" fill="#797882"/>
<path d="M96.6908 69.8413L90.5283 69.8413L90.5283 91.688L96.6907 91.6879C97.7783 91.6879 98.6602 90.806 98.6602 89.7184L98.6602 71.8107C98.6603 70.7231 97.7785 69.8413 96.6908 69.8413Z" fill="#2D2E30"/>
<path d="M85.4311 95.625H95.6265V91.6885H85.4311V95.625Z" fill="#5E3C16"/>
</g>
<path d="M76.4781 115.44C77.074 116.51 76.6768 117.857 75.594 118.444C74.5112 119.031 73.1461 118.638 72.5522 117.57C71.9582 116.5 72.3555 115.151 73.4382 114.564C73.779 114.38 74.1471 114.291 74.5112 114.291C75.3038 114.291 76.0711 114.707 76.4781 115.44Z" fill="#AD723D"/>
<path d="M120.006 101.815L120.538 102.772L98.5713 114.688C98.4642 114.344 98.2948 114.015 98.0728 113.716L120.006 101.815Z" fill="#999999"/>
<path d="M116.444 95.4033L118.6 99.2831L104.368 107.004L99.7334 104.47L116.444 95.4033Z" fill="#999999"/>
<path d="M101.341 108.65L93.7592 112.762L65.3835 128.156C64.2462 128.774 62.9083 128.843 61.7126 128.351C61.0388 128.072 60.3338 127.906 59.6269 127.841C59.4692 126.992 59.8645 126.099 60.6727 125.662L66.3981 122.556L67.1108 123.239C67.3952 123.511 67.7613 123.647 68.1274 123.647C68.5091 123.647 68.8908 123.501 69.177 123.209C69.7379 122.637 69.7243 121.723 69.1459 121.169L69.0777 121.103L70.881 120.124C71.8567 121.08 73.1751 121.605 74.5246 121.605C75.362 121.605 76.213 121.403 76.9998 120.976C78.2072 120.32 79.0855 119.24 79.4711 117.932C79.7145 117.1 79.7418 116.24 79.5587 115.416L96.7057 106.115L101.341 108.65Z" fill="#808080"/>
<path d="M59.355 158.383C60.0464 159.056 60.0503 160.165 59.3667 160.85C55.6296 164.604 50.0542 166.013 44.9753 164.541C44.0192 160.906 43.7193 157.314 44.0698 153.793L55.17 152.394C55.8127 154.16 57.0882 156.169 59.355 158.383Z" fill="#AD723D"/>
<path d="M95.6503 115.346C95.7516 115.437 95.8528 115.592 95.7535 115.818C94.3787 118.991 91.9366 121.653 88.8733 123.313L69.3661 133.896C61.3895 138.224 57.3856 140.397 55.0507 146.912C54.7839 147.654 54.6008 148.542 54.6183 149.552L44.521 150.826C45.0001 148.509 45.7673 146.226 46.8248 143.986C49.4713 138.373 53.3428 134.239 56.1237 131.758C57.3291 130.684 59.0818 130.39 60.5852 131.011C62.6086 131.845 64.8676 131.727 66.7877 130.684L95.1654 115.29C95.3835 115.171 95.549 115.256 95.6503 115.346Z" fill="#E0974F"/>
<path d="M123.8 102.647C124.19 103.346 123.931 104.224 123.224 104.607L97.7048 118.449C96.0066 121.552 93.4185 124.142 90.2793 125.845L77.1985 132.943L77.105 136.338C77.0291 139.101 75.4575 141.643 73.0057 142.973C71.8237 143.614 70.5247 143.941 69.2122 143.941C68.4702 143.941 67.7244 143.837 66.9902 143.626C65.3972 143.168 64.0223 142.248 63.0136 140.987C60.4566 142.839 58.924 144.75 57.8023 147.877C57.3135 149.241 57.1304 152.155 61.407 156.329C63.2414 158.119 63.2609 161.056 61.4498 162.876C58.1334 166.206 53.6134 167.999 49.0195 167.999C47.0954 167.999 45.1578 167.686 43.2902 167.037C42.8423 166.881 42.4976 166.519 42.3691 166.069C40.0633 158.042 40.6729 150.202 44.1763 142.769C47.0312 136.715 51.185 132.275 54.1665 129.617C54.9162 128.949 55.7887 128.461 56.7215 128.16C56.4391 126.182 57.3933 124.146 59.2668 123.13L64.1937 120.457C63.4654 119.879 62.4644 119.787 61.6309 120.237L58.2736 122.06C57.5667 122.443 56.6786 122.187 56.2911 121.488C55.9036 120.79 56.1606 119.912 56.8675 119.529L60.2249 117.707C62.2541 116.606 64.7351 116.937 66.3962 118.53L66.8831 118.998L69.4751 117.591C68.9999 115.441 69.9834 113.146 72.032 112.033C74.0827 110.921 76.5695 111.335 78.1508 112.886L116.32 92.1782C116.659 91.9935 117.058 91.9511 117.43 92.057C117.802 92.1647 118.116 92.413 118.303 92.7498L123.8 102.647ZM120.538 102.771L120.007 101.814L98.0728 113.715C98.2948 114.014 98.4643 114.343 98.5714 114.687L120.538 102.771ZM118.601 99.2834L116.445 95.4037L99.734 104.47L104.369 107.005L118.601 99.2834ZM93.7593 112.761L101.341 108.648L96.7057 106.113L79.5588 115.415C79.7418 116.238 79.7146 117.098 79.4712 117.93C79.0856 119.239 78.2073 120.318 76.9999 120.974C76.2131 121.402 75.3621 121.604 74.5247 121.604C73.1752 121.604 71.8568 121.078 70.8811 120.122L69.0778 121.101L69.146 121.167C69.7244 121.721 69.738 122.635 69.1771 123.207C68.8909 123.499 68.5092 123.646 68.1275 123.646C67.7614 123.646 67.3952 123.509 67.1109 123.238L66.3982 122.554L60.6728 125.661C59.8646 126.097 59.4693 126.99 59.627 127.839C60.3339 127.904 61.0389 128.07 61.7127 128.349C62.9084 128.842 64.2463 128.772 65.3836 128.155L93.7593 112.761ZM95.7535 115.819C95.8528 115.594 95.7515 115.438 95.6503 115.347C95.549 115.257 95.3835 115.172 95.1653 115.291L66.7877 130.685C64.8675 131.728 62.6085 131.846 60.5852 131.013C59.0817 130.391 57.3291 130.685 56.1236 131.759C53.3427 134.24 49.4713 138.374 46.8247 143.987C45.7673 146.228 45 148.51 44.5209 150.827L54.6183 149.553C54.6008 148.543 54.7838 147.656 55.0506 146.913C57.3856 140.398 61.3894 138.226 69.366 133.897L88.8733 123.315C91.9365 121.654 94.3786 118.992 95.7535 115.819ZM75.5939 118.444C76.6766 117.857 77.0739 116.51 76.478 115.44C76.071 114.706 75.3037 114.291 74.5111 114.291C74.1469 114.291 73.7789 114.379 73.4381 114.564C72.3553 115.151 71.958 116.5 72.552 117.57C73.146 118.638 74.5111 119.031 75.5939 118.444ZM74.1839 136.259L74.2307 134.552L70.7721 136.428C70.5871 136.528 70.406 136.626 70.2248 136.724L71.1908 137.952C71.6873 138.582 71.5724 139.488 70.9356 139.979C70.6688 140.183 70.3534 140.283 70.0398 140.283C69.6036 140.283 69.1732 140.09 68.885 139.725L67.6406 138.141C66.8597 138.576 66.1372 138.99 65.4673 139.39C66.0866 140.083 66.8889 140.591 67.8081 140.854C69.0856 141.222 70.4332 141.076 71.5997 140.443C73.146 139.603 74.1352 138 74.1839 136.259ZM59.3661 160.85C60.0496 160.165 60.0457 159.056 59.3544 158.383C57.0876 156.17 55.812 154.16 55.1694 152.394L44.0691 153.793C43.7186 157.315 44.0185 160.906 44.9747 164.541C50.0535 166.013 55.629 164.605 59.3661 160.85Z" fill="#4D4D4D"/>
<path d="M104.883 115.44C104.287 116.51 104.685 117.857 105.768 118.444C106.85 119.031 108.216 118.638 108.81 117.57C109.404 116.5 109.006 115.151 107.924 114.564C107.583 114.38 107.215 114.291 106.85 114.291C106.058 114.291 105.29 114.707 104.883 115.44Z" fill="#AD723D"/>
<path d="M61.3519 101.814L60.8202 102.771L82.7885 114.687C82.8957 114.343 83.0651 114.014 83.2871 113.716L61.3519 101.814Z" fill="#999999"/>
<path d="M64.9141 95.4023L62.7581 99.2822L76.9908 107.003L81.626 104.469L64.9141 95.4023Z" fill="#999999"/>
<path d="M80.0184 108.648L87.6002 112.761L115.978 128.155C117.115 128.772 118.453 128.842 119.649 128.349C120.323 128.07 121.028 127.904 121.735 127.839C121.893 126.99 121.497 126.097 120.689 125.661L114.963 122.554L114.25 123.238C113.966 123.509 113.6 123.646 113.234 123.646C112.852 123.646 112.47 123.499 112.184 123.207C111.623 122.635 111.637 121.721 112.215 121.167L112.283 121.101L110.48 120.122C109.504 121.078 108.186 121.604 106.836 121.604C105.999 121.604 105.148 121.402 104.361 120.974C103.153 120.318 102.275 119.238 101.889 117.93C101.646 117.098 101.619 116.238 101.802 115.414L84.6535 106.113L80.0184 108.648Z" fill="#808080"/>
<path d="M122.008 158.383C121.317 159.056 121.313 160.165 121.996 160.85C125.734 164.605 131.31 166.013 136.389 164.541C137.345 160.906 137.645 157.315 137.294 153.793L126.193 152.394C125.551 154.16 124.275 156.169 122.008 158.383Z" fill="#AD723D"/>
<path d="M85.7098 115.346C85.6086 115.437 85.5073 115.592 85.6066 115.818C86.9816 118.991 89.4238 121.653 92.4873 123.314L111.996 133.896C119.973 138.225 123.977 140.397 126.312 146.912C126.579 147.655 126.762 148.542 126.745 149.552L136.843 150.826C136.364 148.509 135.596 146.227 134.539 143.987C131.892 138.373 128.02 134.239 125.239 131.758C124.034 130.684 122.281 130.39 120.777 131.012C118.754 131.845 116.495 131.727 114.574 130.684L86.1948 115.29C85.9767 115.171 85.8111 115.256 85.7098 115.346Z" fill="#E0974F"/>
<path d="M57.5578 102.648C57.1683 103.346 57.4273 104.224 58.1343 104.607L83.655 118.45C85.3532 121.552 87.9415 124.142 91.081 125.846L104.163 132.943L104.256 136.338C104.332 139.102 105.904 141.644 108.356 142.974C109.538 143.615 110.837 143.942 112.15 143.942C112.892 143.942 113.638 143.838 114.372 143.626C115.965 143.168 117.34 142.248 118.349 140.988C120.906 142.839 122.438 144.75 123.56 147.877C124.049 149.242 124.232 152.156 119.955 156.33C118.121 158.12 118.101 161.056 119.913 162.877C123.229 166.206 127.749 168 132.344 168C134.268 168 136.206 167.686 138.073 167.038C138.521 166.882 138.866 166.52 138.995 166.07C141.301 158.043 140.691 150.202 137.187 142.77C134.332 136.715 130.178 132.275 127.196 129.618C126.447 128.95 125.574 128.461 124.641 128.161C124.924 126.182 123.969 124.146 122.096 123.13L117.168 120.457C117.897 119.88 118.898 119.787 119.731 120.238L123.089 122.06C123.796 122.443 124.684 122.187 125.072 121.488C125.459 120.79 125.202 119.912 124.495 119.529L121.138 117.707C119.108 116.606 116.627 116.937 114.966 118.531L114.479 118.998L111.887 117.591C112.362 115.442 111.378 113.146 109.33 112.033C107.279 110.921 104.792 111.335 103.21 112.886L65.0384 92.1782C64.6995 91.9935 64.3002 91.9511 63.9283 92.057C63.5563 92.1647 63.2427 92.413 63.0558 92.7498L57.5578 102.648ZM60.82 102.771L61.3516 101.814L83.2869 113.715C83.0649 114.014 82.8954 114.343 82.7883 114.687L60.82 102.771ZM62.7578 99.2835L64.9137 95.4037L81.6256 104.47L76.9905 107.005L62.7578 99.2835ZM87.6007 112.761L80.0189 108.648L84.6541 106.114L101.802 115.415C101.619 116.238 101.646 117.099 101.89 117.93C102.276 119.239 103.154 120.318 104.361 120.975C105.148 121.402 105.999 121.604 106.837 121.604C108.186 121.604 109.505 121.079 110.481 120.122L112.284 121.102L112.216 121.167C111.637 121.721 111.624 122.635 112.185 123.207C112.471 123.5 112.853 123.646 113.234 123.646C113.601 123.646 113.967 123.509 114.251 123.238L114.964 122.555L120.69 125.661C121.498 126.098 121.893 126.991 121.735 127.839C121.028 127.905 120.323 128.07 119.65 128.349C118.454 128.842 117.116 128.773 115.978 128.155L87.6007 112.761ZM85.6064 115.819C85.5071 115.594 85.6084 115.438 85.7096 115.347C85.8109 115.257 85.9765 115.172 86.1946 115.292L114.574 130.686C116.495 131.729 118.754 131.846 120.777 131.013C122.281 130.391 124.034 130.686 125.239 131.76C128.02 134.24 131.892 138.374 134.539 143.988C135.596 146.228 136.363 148.511 136.843 150.828L126.745 149.554C126.762 148.543 126.579 147.656 126.312 146.913C123.977 140.399 119.973 138.226 111.996 133.898L92.4871 123.315C89.4236 121.654 86.9814 118.992 85.6064 115.819ZM105.767 118.444C104.685 117.857 104.287 116.51 104.883 115.44C105.29 114.707 106.058 114.291 106.85 114.291C107.214 114.291 107.583 114.379 107.923 114.564C109.006 115.151 109.404 116.5 108.81 117.57C108.216 118.638 106.85 119.031 105.767 118.444ZM107.177 136.259L107.131 134.552L110.59 136.428C110.775 136.529 110.956 136.627 111.137 136.725L110.171 137.953C109.674 138.582 109.789 139.488 110.426 139.979C110.693 140.183 111.008 140.283 111.322 140.283C111.758 140.283 112.189 140.091 112.477 139.725L113.721 138.141C114.502 138.576 115.225 138.99 115.895 139.39C115.275 140.083 114.473 140.591 113.554 140.855C112.276 141.222 110.928 141.076 109.762 140.443C108.216 139.604 107.226 138.001 107.177 136.259ZM121.996 160.85C121.313 160.165 121.317 159.057 122.008 158.383C124.275 156.17 125.551 154.161 126.193 152.394L137.294 153.793C137.645 157.315 137.345 160.906 136.389 164.542C131.31 166.014 125.734 164.605 121.996 160.85Z" fill="#4D4D4D"/>
<path d="M100.722 209.189L98.5167 202.741C98.5167 202.73 98.5167 202.73 98.5055 202.719C98.4721 202.63 98.2049 202.073 97.893 202.073H85.0311C84.7193 202.073 84.452 202.63 84.4186 202.719C84.4186 202.73 84.4075 202.73 84.4075 202.741L82.2026 209.189C82.1357 209.378 82.2694 209.568 82.4476 209.568H100.477C100.655 209.568 100.788 209.378 100.722 209.189Z" fill="#EDBD44"/>
<path d="M100.109 209.48L98.0042 203.355L97.9931 203.333C97.9374 203.21 97.659 202.598 97.2247 202.598H85.6879C85.2536 202.598 84.9752 203.21 84.9195 203.333L82.8148 209.48C82.8037 209.513 82.8037 209.535 82.8037 209.569H83.2826L85.3538 203.533C85.4541 203.31 85.6211 203.099 85.6879 203.099H97.2358C97.3138 203.099 97.4808 203.321 97.5699 203.533L99.6412 209.569H100.12C100.12 209.535 100.12 209.513 100.109 209.48Z" fill="#C5802A"/>
<path d="M94.8082 208.81H84.3182C84.218 208.81 84.1289 208.721 84.1289 208.61C84.1289 208.498 84.2069 208.409 84.3182 208.409H94.8082C94.9085 208.409 94.9975 208.498 94.9975 208.61C94.9975 208.721 94.9196 208.81 94.8082 208.81Z" fill="#C5802A"/>
<path d="M97.3476 208.81H95.577C95.4768 208.81 95.3877 208.721 95.3877 208.61C95.3877 208.498 95.4656 208.409 95.577 208.409H97.3476C97.4478 208.409 97.5369 208.498 97.5369 208.61C97.5369 208.721 97.459 208.81 97.3476 208.81Z" fill="#C5802A"/>
<path d="M98.6169 208.81H98.0267C97.9265 208.81 97.8374 208.721 97.8374 208.61C97.8374 208.498 97.9154 208.409 98.0267 208.409H98.6169C98.7171 208.409 98.8062 208.498 98.8062 208.61C98.8062 208.721 98.7171 208.81 98.6169 208.81Z" fill="#C5802A"/>
<path d="M100.722 224.178L98.5167 217.731C98.5167 217.72 98.5167 217.72 98.5055 217.708C98.4721 217.619 98.2049 217.062 97.893 217.062H85.0311C84.7193 217.062 84.452 217.619 84.4186 217.708C84.4186 217.72 84.4075 217.72 84.4075 217.731L82.2026 224.178C82.1357 224.368 82.2694 224.557 82.4476 224.557H100.477C100.655 224.557 100.788 224.368 100.722 224.178Z" fill="#EDBD44"/>
<path d="M100.109 224.468L98.0047 218.343L97.9936 218.321C97.9379 218.198 97.6595 217.586 97.2252 217.586H85.6884C85.2541 217.586 84.9757 218.198 84.92 218.321L82.8153 224.468C82.8042 224.501 82.8042 224.524 82.8042 224.557H83.283L85.3543 218.521C85.4545 218.299 85.6216 218.087 85.6884 218.087H97.2363C97.3143 218.087 97.4813 218.31 97.5704 218.521L99.6417 224.557H100.121C100.121 224.535 100.121 224.501 100.109 224.468Z" fill="#C5802A"/>
<path d="M94.8082 223.799H84.3182C84.218 223.799 84.1289 223.71 84.1289 223.599C84.1289 223.488 84.2069 223.398 84.3182 223.398H94.8082C94.9085 223.398 94.9975 223.488 94.9975 223.599C94.9975 223.71 94.9196 223.799 94.8082 223.799Z" fill="#C5802A"/>
<path d="M97.3476 223.799H95.577C95.4768 223.799 95.3877 223.71 95.3877 223.599C95.3877 223.488 95.4656 223.398 95.577 223.398H97.3476C97.4478 223.398 97.5369 223.488 97.5369 223.599C97.5369 223.71 97.459 223.799 97.3476 223.799Z" fill="#C5802A"/>
<path d="M98.6169 223.799H98.0267C97.9265 223.799 97.8374 223.71 97.8374 223.599C97.8374 223.488 97.9154 223.398 98.0267 223.398H98.6169C98.7171 223.398 98.8062 223.488 98.8062 223.599C98.8062 223.71 98.7171 223.799 98.6169 223.799Z" fill="#C5802A"/>
<path d="M91.4456 216.684L89.2407 210.237C89.2407 210.225 89.2407 210.225 89.2296 210.214C89.1961 210.125 88.9289 209.568 88.6171 209.568H75.744C75.4322 209.568 75.1649 210.125 75.1315 210.214C75.1315 210.225 75.1204 210.225 75.1204 210.237L72.9155 216.684C72.8486 216.874 72.9823 217.063 73.1604 217.063H91.1895C91.3788 217.063 91.5124 216.874 91.4456 216.684Z" fill="#EDBD44"/>
<path d="M90.8219 216.974L88.7283 210.849L88.7172 210.827C88.6615 210.704 88.3831 210.092 87.9488 210.092H76.412C75.9777 210.092 75.6993 210.704 75.6437 210.827L73.539 216.974C73.5278 217.007 73.5278 217.029 73.5278 217.063H74.0067L76.078 211.027C76.1782 210.804 76.3452 210.593 76.412 210.593H87.96C88.0379 210.593 88.2049 210.816 88.294 211.027L90.3653 217.063H90.8442C90.8442 217.029 90.833 217.007 90.8219 216.974Z" fill="#C5802A"/>
<path d="M85.5324 216.306H75.0423C74.9421 216.306 74.853 216.217 74.853 216.106C74.853 215.994 74.931 215.905 75.0423 215.905H85.5324C85.6326 215.905 85.7217 215.994 85.7217 216.106C85.7217 216.217 85.6326 216.306 85.5324 216.306Z" fill="#C5802A"/>
<path d="M88.0712 216.306H86.3006C86.2004 216.306 86.1113 216.217 86.1113 216.106C86.1113 215.994 86.1893 215.905 86.3006 215.905H88.0712C88.1715 215.905 88.2606 215.994 88.2606 216.106C88.2606 216.217 88.1715 216.306 88.0712 216.306Z" fill="#C5802A"/>
<path d="M89.3293 216.306H88.7391C88.6389 216.306 88.5498 216.217 88.5498 216.106C88.5498 215.994 88.6278 215.905 88.7391 215.905H89.3293C89.4295 215.905 89.5186 215.994 89.5186 216.106C89.5186 216.217 89.4407 216.306 89.3293 216.306Z" fill="#C5802A"/>
<path d="M110.009 216.684L107.804 210.237C107.804 210.225 107.804 210.225 107.793 210.214C107.76 210.125 107.492 209.568 107.181 209.568H94.3074C93.9956 209.568 93.7284 210.125 93.695 210.214C93.695 210.225 93.6838 210.225 93.6838 210.237L91.4789 216.684C91.4121 216.874 91.5457 217.063 91.7239 217.063H109.753C109.942 217.063 110.065 216.874 110.009 216.684Z" fill="#EDBD44"/>
<path d="M109.385 216.974L107.281 210.849L107.27 210.827C107.214 210.704 106.935 210.092 106.501 210.092H94.9755C94.5412 210.092 94.2628 210.704 94.2071 210.827L92.1024 216.974C92.0913 217.007 92.0913 217.029 92.0913 217.063H92.5702L94.6414 211.027C94.7417 210.804 94.9087 210.593 94.9755 210.593H106.523C106.601 210.593 106.768 210.816 106.858 211.027L108.929 217.063H109.408C109.396 217.029 109.396 217.007 109.385 216.974Z" fill="#C5802A"/>
<path d="M104.096 216.306H93.6063C93.5061 216.306 93.417 216.217 93.417 216.106C93.417 215.994 93.4949 215.905 93.6063 215.905H104.096C104.197 215.905 104.286 215.994 104.286 216.106C104.286 216.217 104.197 216.306 104.096 216.306Z" fill="#C5802A"/>
<path d="M106.635 216.306H104.865C104.764 216.306 104.675 216.217 104.675 216.106C104.675 215.994 104.753 215.905 104.865 215.905H106.635C106.735 215.905 106.825 215.994 106.825 216.106C106.825 216.217 106.735 216.306 106.635 216.306Z" fill="#C5802A"/>
<path d="M107.893 216.306H107.303C107.203 216.306 107.114 216.217 107.114 216.106C107.114 215.994 107.192 215.905 107.303 215.905H107.893C107.994 215.905 108.083 215.994 108.083 216.106C108.083 216.217 107.994 216.306 107.893 216.306Z" fill="#C5802A"/>
<path d="M119.285 224.178L117.08 217.731C117.08 217.72 117.08 217.72 117.069 217.708C117.035 217.619 116.768 217.062 116.456 217.062H103.583C103.272 217.062 103.004 217.619 102.971 217.708C102.971 217.72 102.96 217.72 102.96 217.731L100.755 224.178C100.688 224.368 100.822 224.557 101 224.557H119.029C119.218 224.557 119.352 224.368 119.285 224.178Z" fill="#EDBD44"/>
<path d="M118.661 224.467L116.557 218.331L116.545 218.309C116.49 218.187 116.211 217.574 115.777 217.574H104.251C103.817 217.574 103.539 218.187 103.483 218.309L101.378 224.456C101.367 224.49 101.367 224.512 101.367 224.545H101.846L103.917 218.51C104.018 218.287 104.185 218.075 104.251 218.075H115.799C115.877 218.075 116.044 218.298 116.133 218.51L118.205 224.545H118.684C118.684 224.534 118.672 224.501 118.661 224.467Z" fill="#C5802A"/>
<path d="M113.372 223.799H102.882C102.781 223.799 102.692 223.71 102.692 223.599C102.692 223.488 102.77 223.398 102.882 223.398H113.372C113.472 223.398 113.561 223.488 113.561 223.599C113.561 223.71 113.472 223.799 113.372 223.799Z" fill="#C5802A"/>
<path d="M115.911 223.799H114.14C114.04 223.799 113.951 223.71 113.951 223.599C113.951 223.488 114.029 223.398 114.14 223.398H115.911C116.011 223.398 116.1 223.488 116.1 223.599C116.1 223.71 116.011 223.799 115.911 223.799Z" fill="#C5802A"/>
<path d="M117.17 223.799H116.579C116.479 223.799 116.39 223.71 116.39 223.599C116.39 223.488 116.468 223.398 116.579 223.398H117.17C117.27 223.398 117.359 223.488 117.359 223.599C117.359 223.71 117.27 223.799 117.17 223.799Z" fill="#C5802A"/>
<path d="M82.1692 224.178L79.9643 217.731C79.9643 217.72 79.9643 217.72 79.9532 217.708C79.9198 217.619 79.6525 217.062 79.3407 217.062H66.4676C66.1558 217.062 65.8885 217.619 65.8551 217.708C65.8551 217.72 65.844 217.72 65.844 217.731L63.6391 224.178C63.5723 224.368 63.7059 224.557 63.8841 224.557H81.9131C82.1024 224.557 82.2249 224.368 82.1692 224.178Z" fill="#EDBD44"/>
<path d="M81.546 224.467L79.4413 218.331L79.4302 218.309C79.3745 218.187 79.0961 217.574 78.6618 217.574H67.1362C66.7019 217.574 66.4235 218.187 66.3678 218.309L64.2631 224.467C64.252 224.501 64.252 224.523 64.252 224.556H64.7308L66.8021 218.521C66.9023 218.298 67.0693 218.086 67.1362 218.086H78.6841C78.762 218.086 78.9291 218.309 79.0182 218.521L81.0894 224.556H81.5683C81.5571 224.534 81.5571 224.501 81.546 224.467Z" fill="#C5802A"/>
<path d="M76.256 223.799H65.766C65.6657 223.799 65.5767 223.71 65.5767 223.599C65.5767 223.488 65.6546 223.398 65.766 223.398H76.256C76.3562 223.398 76.4453 223.488 76.4453 223.599C76.4453 223.71 76.3562 223.799 76.256 223.799Z" fill="#C5802A"/>
<path d="M78.7949 223.799H77.0243C76.924 223.799 76.835 223.71 76.835 223.599C76.835 223.488 76.9129 223.398 77.0243 223.398H78.7949C78.8951 223.398 78.9842 223.488 78.9842 223.599C78.9731 223.71 78.8951 223.799 78.7949 223.799Z" fill="#C5802A"/>
<path d="M80.053 223.799H79.4627C79.3625 223.799 79.2734 223.71 79.2734 223.599C79.2734 223.488 79.3514 223.398 79.4627 223.398H80.053C80.1532 223.398 80.2423 223.488 80.2423 223.599C80.2423 223.71 80.1532 223.799 80.053 223.799Z" fill="#C5802A"/>
<path d="M100.243 200.581C99.9869 200.503 99.7865 200.303 99.7085 200.047L99.4078 199L99.1072 200.047C99.0292 200.303 98.8288 200.503 98.5727 200.581L97.5259 200.882L98.5727 201.183C98.8288 201.261 99.0292 201.461 99.1072 201.717L99.4078 202.764L99.7085 201.717C99.7865 201.461 99.9869 201.261 100.243 201.183L101.29 200.882L100.243 200.581Z" fill="#EDBD44"/>
<path d="M119.062 215.515C118.806 215.437 118.606 215.236 118.528 214.98L118.227 213.934L117.927 214.98C117.849 215.236 117.648 215.437 117.392 215.515L116.345 215.816L117.392 216.116C117.648 216.194 117.849 216.395 117.927 216.651L118.227 217.698L118.528 216.651C118.606 216.395 118.806 216.194 119.062 216.116L120.109 215.816L119.062 215.515Z" fill="#EDBD44"/>
<path d="M75.2983 207.775C75.109 207.719 74.9642 207.574 74.9197 207.396L74.697 206.639L74.4742 207.396C74.4186 207.585 74.2738 207.73 74.0956 207.775L73.3384 207.997L74.0956 208.22C74.2849 208.276 74.4297 208.42 74.4742 208.599L74.697 209.356L74.9197 208.599C74.9754 208.409 75.1201 208.265 75.2983 208.22L76.0555 207.997L75.2983 207.775Z" fill="#EDBD44"/>
<path d="M101.813 202.754C101.679 202.72 101.579 202.609 101.534 202.475L101.378 201.93L101.222 202.475C101.189 202.609 101.078 202.709 100.944 202.754L100.398 202.91L100.944 203.066C101.078 203.099 101.178 203.21 101.222 203.344L101.378 203.89L101.534 203.344C101.568 203.21 101.679 203.11 101.813 203.066L102.358 202.91L101.813 202.754Z" fill="#EDBD44"/>
<path d="M73.7727 209.936C73.639 209.903 73.5388 209.792 73.4943 209.658L73.3384 209.112L73.1825 209.658C73.149 209.792 73.0377 209.892 72.9041 209.936L72.3584 210.092L72.9041 210.248C73.0377 210.282 73.1379 210.393 73.1825 210.527L73.3384 211.072L73.4943 210.527C73.5277 210.393 73.639 210.293 73.7727 210.248L74.3183 210.092L73.7727 209.936Z" fill="#EDBD44"/>
<path d="M70.3987 224.836H61.2784C61.1225 224.836 61 224.714 61 224.558C61 224.402 61.1225 224.279 61.2784 224.279H70.3987C70.5546 224.279 70.6771 224.402 70.6771 224.558C70.6771 224.714 70.5546 224.836 70.3987 224.836Z" fill="#C5802A"/>
<path d="M102.938 224.836H74.7086C74.5527 224.836 74.4302 224.714 74.4302 224.558C74.4302 224.402 74.5527 224.279 74.7086 224.279H102.938C103.094 224.279 103.216 224.402 103.216 224.558C103.216 224.714 103.094 224.836 102.938 224.836Z" fill="#C5802A"/>
<path d="M114.23 224.836H105.811C105.655 224.836 105.533 224.714 105.533 224.558C105.533 224.402 105.655 224.279 105.811 224.279H114.23C114.386 224.279 114.508 224.402 114.508 224.558C114.508 224.714 114.386 224.836 114.23 224.836Z" fill="#C5802A"/>
<path d="M120.622 224.836H118.25C118.094 224.836 117.971 224.714 117.971 224.558C117.971 224.402 118.094 224.279 118.25 224.279H120.622C120.777 224.279 120.9 224.402 120.9 224.558C120.9 224.714 120.766 224.836 120.622 224.836Z" fill="#C5802A"/>
<line x1="25.7061" y1="209.038" x2="87.0377" y2="277.294" stroke="black" strokeLinecap="round"/>
<line x1="93.9632" y1="277.295" x2="155.293" y2="209.037" stroke="black" strokeLinecap="round"/>
<defs>
<linearGradient id="paint0_linear_161_206" x1="162" y1="1" x2="54.5" y2="252.5" gradientUnits="userSpaceOnUse">
<stop stop-color="#E2F8FB"/>
<stop offset="1" stop-color="#6B6B6B"/>
</linearGradient>
<clipPath id="clip0_161_206">
<rect width="91.2572" height="91.2572" fill="white" transform="translate(26 103.528) rotate(-45)"/>
</clipPath>
</defs>
</svg>
