<svg width="343" height="206" viewBox="0 0 343 206" fill="none" xmlns="http://www.w3.org/2000/svg">
<rect x="70.5797" y="103.109" width="142.969" height="142.969" transform="rotate(-45 70.5797 103.109)" stroke="#F1A738" strokeWidth="2"/>
<g clip-path="url(#clip0_110_338)">
<path d="M214.767 113.702V121.07C214.556 121.191 214.642 121.398 214.63 121.57C214.56 122.469 214.487 123.37 214.433 124.272C214.411 124.647 214.261 124.903 213.947 125.127C207.586 129.714 200.682 133.211 193.19 135.55C192.731 135.692 192.487 135.627 192.212 135.238C190.72 133.14 189.364 130.963 188.158 128.688C187.928 128.255 188.025 128.134 188.44 127.977C190.39 127.241 192.275 126.354 194.102 125.349C195.241 124.724 195.215 124.75 194.227 123.906C193.704 123.46 193.289 123.398 192.634 123.692C186.745 126.342 180.563 127.838 174.111 128.128C166.232 128.481 158.663 127.052 151.435 123.922C150.347 123.452 149.592 123.438 148.762 124.287C148.411 124.649 148.318 124.75 148.814 125.026C150.798 126.131 152.828 127.14 154.96 127.926C155.514 128.13 155.514 128.339 155.268 128.799C154.097 130.986 152.788 133.084 151.363 135.115C151.028 135.593 150.732 135.694 150.171 135.516C142.762 133.16 135.913 129.706 129.608 125.165C129.251 124.909 129.086 124.643 129.076 124.204C129.062 123.511 128.973 122.821 128.927 122.128C128.544 116.257 128.828 110.421 129.878 104.629C131.729 94.4015 135.818 85.1065 141.558 76.4942C141.756 76.1945 141.987 75.9761 142.322 75.8253C147.713 73.4077 153.318 71.6928 159.131 70.6448C159.508 70.5773 159.73 70.6448 159.905 71.008C160.478 72.195 161.097 73.3601 161.659 74.553C161.859 74.9777 162.02 75.1742 162.571 75.0968C168.73 74.2275 174.897 74.2572 181.055 75.1068C181.466 75.1643 181.621 75.0532 181.781 74.7058C182.349 73.4911 182.964 72.2962 183.537 71.0835C183.726 70.6845 183.962 70.5654 184.406 70.6468C190.168 71.7027 195.731 73.3998 201.086 75.7796C201.463 75.9464 201.731 76.1945 201.957 76.5319C209.138 87.2342 213.58 98.9052 214.538 111.827C214.584 112.45 214.461 113.109 214.767 113.706V113.702ZM178.323 105.816C178.293 108.097 178.825 109.915 179.817 111.42C182.682 115.768 188.333 116.161 191.652 112.243C194.569 108.802 194.424 103.369 191.327 100.084C188.751 97.355 184.642 96.9918 181.678 99.2823C179.396 101.047 178.408 103.466 178.323 105.814V105.816ZM165.198 106.517C165.194 105.048 164.99 103.744 164.411 102.537C163.056 99.717 160.909 97.9088 157.691 97.8075C154.518 97.7063 152.276 99.3398 150.82 102.059C149.002 105.453 149.546 109.598 152.099 112.486C154.687 115.411 158.948 115.792 161.976 113.335C164.173 111.553 165.109 109.161 165.196 106.521L165.198 106.517Z" fill="#F1A738"/>
</g>
<path d="M272 103H343" stroke="#F1A738" strokeWidth="2"/>
<path d="M0 103H71" stroke="#F1A738" strokeWidth="2"/>
<path d="M72.1387 102.96L171.69 3.40791L271.5 103L171.681 203L72.1387 102.96Z" fill="#D9D9D9" fillOpacity="0.09"/>
<defs>
<clipPath id="clip0_110_338">
<rect width="86" height="65" fill="white" transform="translate(128.767 70.6182)"/>
</clipPath>
</defs>
</svg>
