<svg width="365" height="206" viewBox="0 0 365 206" fill="none" xmlns="http://www.w3.org/2000/svg">
<path d="M364.25 103.109L271 103.109" stroke="url(#paint0_linear_110_339)" strokeWidth="2"/>
<rect x="69.4312" y="103.109" width="142.969" height="142.969" transform="rotate(-45 69.4312 103.109)" stroke="#F1A738" strokeWidth="2"/>
<g clip-path="url(#clip0_110_339)">
<path d="M178.483 146.619H157.771V115.927H148.982V95.4955H157.729C157.729 95.0415 157.729 94.6911 157.729 94.342C157.738 89.9013 157.668 85.4578 157.772 81.0185C158.023 70.2991 165.752 61.2172 175.724 59.8442C176.789 59.6983 177.869 59.6397 178.942 59.6342C182.994 59.6097 187.047 59.6247 191.099 59.6247C191.377 59.6247 191.656 59.6247 191.982 59.6247V81.722C191.634 81.722 191.332 81.722 191.032 81.722C188.085 81.722 185.137 81.7124 182.19 81.7247C179.749 81.7343 178.467 83.095 178.455 85.691C178.442 88.6524 178.451 91.6124 178.454 94.5738C178.454 94.8411 178.477 95.1083 178.493 95.4614H187.165V115.857H178.483V146.619V146.619Z" fill="#F1A738"/>
</g>
<path d="M0 103H71" stroke="#F1A738" strokeWidth="2"/>
<path d="M70.7655 103.116L170.514 3.36789L270.414 103.268L170.666 203.016L70.7655 103.116Z" fill="#D9D9D9" fillOpacity="0.06"/>
<defs>
<linearGradient id="paint0_linear_110_339" x1="272.25" y1="103.109" x2="364.25" y2="103.109" gradientUnits="userSpaceOnUse">
<stop stop-color="#F1A738"/>
<stop offset="1" stop-color="#F1A738" stop-opacity="0"/>
</linearGradient>
<clipPath id="clip0_110_339">
<rect width="43" height="87" fill="white" transform="translate(151.767 59.6182)"/>
</clipPath>
</defs>
</svg>
