<svg width="343" height="206" viewBox="0 0 343 206" fill="none" xmlns="http://www.w3.org/2000/svg">
<rect x="70.7284" y="103.109" width="142.969" height="142.969" transform="rotate(-45 70.7284 103.109)" stroke="#F1A738" strokeWidth="2"/>
<g clip-path="url(#clip0_110_335)">
<path d="M160.087 65.6182C163.647 66.5206 167.048 67.2117 170.34 68.255C176.211 70.1168 182.12 71.9379 187.821 74.2523C193.214 76.442 197.182 80.339 198.691 86.2279C199.918 91.0165 200.202 95.8729 199.029 100.71C197.282 107.911 191.754 110.927 184.729 108.634C182.939 108.051 182.045 106.813 182.045 104.922C182.045 98.1466 182.064 91.3716 182.031 84.5965C182.026 83.3878 181.926 82.1493 181.639 80.9813C181.458 80.2388 180.982 79.4637 180.42 78.9379C178.66 77.3011 176.733 77.8865 176.136 80.2171C175.917 81.0762 175.884 82.003 175.884 82.8973C175.871 101.55 175.876 120.204 175.879 138.857C175.879 139.396 175.879 139.933 175.879 140.615C175.441 140.529 175.103 140.496 174.787 140.396C170.237 138.957 165.696 137.48 161.133 136.084C160.222 135.805 159.979 135.38 159.979 134.464C160.003 111.973 159.998 89.48 160.001 66.9894C160.001 66.6344 160.044 66.2821 160.09 65.6182L160.087 65.6182Z" fill="#F1A738"/>
<path d="M178.782 139.645C178.782 137.242 178.758 135 178.787 132.762C178.825 129.887 178.325 130.626 180.915 129.694C188.457 126.973 196.015 124.301 203.562 121.599C204.238 121.358 204.932 121.101 205.514 120.694C205.951 120.391 206.506 119.816 206.476 119.401C206.446 118.998 205.8 118.456 205.322 118.307C204.346 118 203.281 117.694 202.286 117.781C200.015 117.981 197.677 118.133 195.528 118.813C190.335 120.458 185.234 122.393 180.096 124.209C179.728 124.339 179.347 124.426 178.79 124.586C178.79 121.502 178.766 118.578 178.828 115.653C178.833 115.355 179.298 114.906 179.636 114.797C191.863 110.878 203.997 110.873 215.972 115.808C217.037 116.247 218.067 116.892 218.951 117.635C221.346 119.651 221.419 122.163 218.913 124.011C217.018 125.41 214.877 126.605 212.677 127.434C204.797 130.407 196.842 133.182 188.916 136.036C186.035 137.074 183.156 138.117 180.274 139.152C179.861 139.301 179.436 139.429 178.785 139.643L178.782 139.645Z" fill="#F1A738"/>
<path d="M156.968 122.973V131.374C154.246 131.645 151.537 132.052 148.815 132.158C142.076 132.42 135.54 131.242 129.233 128.895C127.911 128.404 126.619 127.632 125.538 126.721C123.065 124.64 123.162 121.683 125.971 120.111C129.131 118.342 132.485 116.859 135.875 115.569C142.476 113.057 149.164 110.767 155.816 108.391C156.146 108.274 156.492 108.206 157.024 108.065C157.024 111.049 157.054 113.919 156.978 116.784C156.97 117.076 156.359 117.467 155.957 117.613C151.013 119.426 146.055 121.198 141.106 122.99C140.557 123.187 139.965 123.361 139.513 123.705C139.048 124.06 138.4 124.637 138.438 125.065C138.473 125.494 139.203 126.019 139.73 126.209C140.562 126.507 141.503 126.765 142.363 126.681C144.717 126.453 147.107 126.236 149.385 125.643C151.932 124.979 154.373 123.906 156.97 122.971L156.968 122.973Z" fill="#F1A738"/>
</g>
<path d="M272 103H343" stroke="#F1A738" strokeWidth="2"/>
<path d="M0 103H71" stroke="#F1A738" strokeWidth="2"/>
<path d="M72 103L172 2.99998L271.5 103L172 203L72 103Z" fill="#D9D9D9" fillOpacity="0.09"/>
<defs>
<clipPath id="clip0_110_335">
<rect width="97" height="75" fill="white" transform="translate(123.767 65.6182)"/>
</clipPath>
</defs>
</svg>
