<svg width="366" height="206" viewBox="0 0 366 206" fill="none" xmlns="http://www.w3.org/2000/svg">
<path d="M94.5 103.244L0.75 103.109" stroke="url(#paint0_linear_110_331)" strokeWidth="2"/>
<rect x="93.8797" y="103.109" width="142.969" height="142.969" transform="rotate(-45 93.8797 103.109)" stroke="#F1A738" strokeWidth="2"/>
<g clip-path="url(#clip0_110_331)">
<path d="M158.344 114.101C158.814 114.291 159.248 114.466 159.682 114.643C163.97 116.389 168.258 118.136 172.547 119.879C172.674 119.93 172.725 120.004 172.758 120.127C173.839 124.094 176.369 126.704 180.391 127.764C186.265 129.312 192.247 125.536 193.384 119.653C193.516 118.969 193.587 118.28 193.57 117.584C193.567 117.461 193.598 117.383 193.705 117.307C198.059 114.241 202.409 111.171 206.762 108.105C206.836 108.052 206.944 108.021 207.036 108.022C213.436 108.086 219.125 103.992 221.011 97.9591C223.152 91.1141 219.838 83.7779 213.243 80.7716C211.104 79.7963 208.852 79.3635 206.5 79.4759C200.056 79.784 194.574 84.3078 193.115 90.5053C192.877 91.5171 192.742 92.5437 192.753 93.5823C192.755 93.8524 192.673 94.0489 192.527 94.2577C189.536 98.5336 186.55 102.813 183.563 107.092C183.493 107.193 183.43 107.259 183.282 107.255C181.149 107.198 179.18 107.739 177.379 108.864C177.259 108.939 177.168 108.951 177.036 108.898C171.668 106.712 166.299 104.531 160.929 102.349C159.617 101.816 158.307 101.279 156.992 100.755C156.81 100.683 156.753 100.599 156.769 100.406C156.903 98.7546 157.122 97.1159 157.466 95.4942C158.586 90.2005 160.764 85.3686 163.999 81.0041C166.756 77.2853 170.099 74.171 174.015 71.6589C177.612 69.3514 181.497 67.6959 185.665 66.6901C187.873 66.1572 190.113 65.8279 192.384 65.6913C194.492 65.5645 196.596 65.6024 198.695 65.8197C203.477 66.315 208.008 67.6483 212.273 69.843C216.575 72.0571 220.322 74.9711 223.493 78.594C227.741 83.4474 230.558 89.0113 231.929 95.2799C232.544 98.0908 232.817 100.938 232.758 103.812C232.632 109.911 231.122 115.657 228.159 121.017C225.083 126.58 220.843 131.096 215.464 134.563C211.792 136.93 207.817 138.619 203.544 139.602C202.282 139.892 200.997 140.091 199.716 140.291C198.968 140.409 198.209 140.473 197.452 140.515C196.374 140.575 195.293 140.629 194.214 140.618C193.18 140.607 192.143 140.545 191.114 140.439C189.936 140.318 188.758 140.171 187.595 139.955C181.891 138.896 176.703 136.652 172.048 133.233C166.585 129.219 162.497 124.121 159.775 117.962C159.237 116.746 158.773 115.504 158.38 114.236C158.371 114.207 158.364 114.177 158.344 114.101H158.344Z" fill="#F1A738"/>
<path d="M207.204 103.244C201.907 103.239 197.593 98.9709 197.594 93.7368C197.595 88.4874 201.922 84.2271 207.247 84.2327C212.529 84.2383 216.854 88.5324 216.843 93.7599C216.832 98.988 212.501 103.249 207.204 103.244L207.204 103.244ZM199.996 93.7327C199.966 97.6187 203.2 100.834 207.174 100.869C211.167 100.906 214.431 97.7284 214.469 93.7699C214.506 89.8374 211.267 86.6008 207.269 86.5736C203.266 86.5465 200.027 89.7355 199.996 93.7327Z" fill="#F1A738"/>
<path d="M175.74 121.185C177.199 121.782 178.635 122.358 180.061 122.956C180.945 123.325 181.849 123.578 182.817 123.535C185.143 123.434 186.907 122.39 188.004 120.369C189.702 117.238 188.217 113.363 184.811 112.053C183.32 111.48 181.851 110.853 180.372 110.25C180.315 110.227 180.259 110.201 180.195 110.173C183.193 108.92 187.971 109.782 190.175 113.902C192.423 118.102 190.588 123.223 186.168 125.061C181.888 126.84 177.391 124.711 175.739 121.186L175.74 121.185Z" fill="#F1A738"/>
</g>
<path d="M295 103H366" stroke="#F1A738" strokeWidth="2"/>
<path d="M95 103L195 3L295 103L195 203L95 103Z" fill="#D9D9D9" fillOpacity="0.09"/>
<defs>
<linearGradient id="paint0_linear_110_331" x1="94.5" y1="103.176" x2="2" y2="103.851" gradientUnits="userSpaceOnUse">
<stop stop-color="#F1A738"/>
<stop offset="1" stop-color="#F1A738" stop-opacity="0"/>
</linearGradient>
<clipPath id="clip0_110_331">
<rect width="76" height="75" fill="white" transform="translate(156.767 65.6182)"/>
</clipPath>
</defs>
</svg>
