<svg width="20" height="56" viewBox="0 0 20 56" fill="none" xmlns="http://www.w3.org/2000/svg">
<rect x="1" y="1" width="18" height="30.0602" rx="9" stroke="#F1A738" stroke-width="2"/>
<rect x="8" y="6.7627" width="4" height="6.01128" rx="2" fill="#F1A738"/>
<path d="M10 45.5409C10.2525 45.5337 10.469 45.4397 10.6638 45.2445L16.1547 39.6204C16.3134 39.4541 16.4 39.259 16.4 39.0204C16.4 38.5361 16.0248 38.1602 15.5414 38.1602C15.3105 38.1602 15.094 38.2541 14.9281 38.4204L10 43.4806L5.07192 38.4204C4.90597 38.2541 4.69673 38.1602 4.45862 38.1602C3.97519 38.1602 3.59999 38.5361 3.59999 39.0204C3.59999 39.2517 3.68658 39.4541 3.84531 39.6204L9.34341 45.2445C9.53101 45.4469 9.74747 45.5409 10 45.5409Z" fill="#F1A738"/>
<path d="M10 56C10.2525 55.9928 10.469 55.8988 10.6638 55.7036L16.1547 50.0795C16.3134 49.9132 16.4 49.7181 16.4 49.4795C16.4 48.9952 16.0248 48.6193 15.5414 48.6193C15.3105 48.6193 15.094 48.7132 14.9281 48.8795L10 53.9397L5.07192 48.8795C4.90597 48.7132 4.69673 48.6193 4.45862 48.6193C3.97519 48.6193 3.59999 48.9952 3.59999 49.4795C3.59999 49.7108 3.68658 49.9132 3.84531 50.0795L9.34341 55.7036C9.53101 55.906 9.74747 56 10 56Z" fill="#F1A738"/>
</svg>
