<svg width="268" height="268" viewBox="0 0 268 268" fill="none" xmlns="http://www.w3.org/2000/svg">
<path d="M162.011 194.433C162.011 208.588 149.915 220.066 135.006 220.066C120.096 220.066 108 208.588 108 194.433C108 179.321 125.756 156.535 132.474 148.467C132.616 148.27 132.817 148.125 133.048 148.052C133.279 147.979 133.528 147.983 133.756 148.063C133.985 148.142 134.182 148.294 134.318 148.494C134.454 148.695 134.522 148.934 134.511 149.176C133.937 155.927 134.331 170.375 146.416 177.577C146.657 177.741 146.953 177.804 147.241 177.754C147.529 177.703 147.786 177.543 147.957 177.307C149.472 175.075 150.347 172.472 150.489 169.779C150.502 169.532 150.597 169.296 150.758 169.107C150.919 168.919 151.137 168.789 151.38 168.738C151.622 168.687 151.875 168.717 152.098 168.824C152.321 168.93 152.503 169.108 152.616 169.329C157.758 177.791 162.011 187.029 162.011 194.433Z" fill="#FF7F00"/>
<path d="M118.127 204.042C118.127 212.898 125.689 220.066 135.006 220.066C144.323 220.066 151.885 212.898 151.885 204.042C151.885 195.187 142.106 182.089 137.437 176.35C137.297 176.149 137.095 175.998 136.861 175.922C136.628 175.846 136.376 175.848 136.144 175.928C135.912 176.008 135.712 176.162 135.576 176.367C135.44 176.571 135.374 176.814 135.389 177.059C135.557 181.56 134.77 189.178 128.243 193.319C128.117 193.403 127.974 193.46 127.825 193.488C127.675 193.515 127.521 193.512 127.373 193.478C127.225 193.444 127.085 193.381 126.962 193.292C126.839 193.203 126.735 193.089 126.657 192.959C126.09 191.988 125.708 190.919 125.532 189.808C125.506 189.564 125.401 189.334 125.232 189.155C125.064 188.976 124.842 188.857 124.599 188.816C124.357 188.775 124.108 188.815 123.89 188.929C123.672 189.043 123.498 189.226 123.394 189.448C120.434 194.433 118.127 199.733 118.127 204.042Z" fill="#FFDA00"/>
<path d="M144.289 211.255C144.264 212.445 144.004 213.618 143.523 214.707C143.042 215.796 142.349 216.778 141.486 217.598C140.623 218.417 139.605 219.057 138.493 219.481C137.381 219.904 136.196 220.103 135.006 220.066C133.816 220.103 132.631 219.904 131.519 219.481C130.406 219.057 129.389 218.417 128.526 217.598C127.662 216.778 126.97 215.796 126.489 214.707C126.008 213.618 125.747 212.445 125.723 211.255C125.723 206.9 129.999 200.712 132.755 197.178C132.89 196.985 133.082 196.839 133.304 196.76C133.526 196.682 133.767 196.675 133.994 196.741C134.22 196.807 134.42 196.942 134.565 197.127C134.71 197.313 134.794 197.539 134.803 197.775C134.808 199.145 135.112 200.498 135.695 201.738C136.279 202.979 137.126 204.076 138.179 204.954C138.317 205.072 138.481 205.156 138.658 205.197C138.834 205.238 139.018 205.236 139.194 205.191C139.37 205.145 139.532 205.058 139.667 204.937C139.802 204.815 139.905 204.663 139.968 204.492C140.035 204.28 140.164 204.093 140.337 203.954C140.511 203.815 140.722 203.731 140.943 203.711C141.165 203.692 141.387 203.739 141.582 203.846C141.777 203.953 141.936 204.115 142.039 204.312C143.319 206.42 144.09 208.797 144.289 211.255V211.255Z" fill="white"/>
<circle cx="135" cy="184" r="48.5" stroke="url(#paint0_diamond_144_3)" strokeWidth="3"/>
<path d="M182.293 59.9505C183.037 59.1779 183.954 58.6071 184.962 58.2887C185.971 57.9703 187.04 57.9143 188.075 58.1255C189.109 58.3368 190.078 58.8088 190.893 59.4997C191.708 60.1905 192.346 61.0788 192.749 62.0854C193.152 63.0921 193.308 64.1861 193.203 65.27C193.098 66.3539 192.735 67.3943 192.147 68.2986C191.559 69.2029 190.764 69.9431 189.832 70.4534C188.901 70.9638 187.861 71.2284 186.806 71.2238H158M191.896 108.945C192.639 109.718 193.556 110.288 194.565 110.607C195.573 110.925 196.642 110.981 197.677 110.77C198.712 110.559 199.68 110.087 200.495 109.396C201.311 108.705 201.948 107.817 202.351 106.81C202.754 105.803 202.91 104.709 202.805 103.626C202.7 102.542 202.338 101.501 201.749 100.597C201.161 99.6926 200.366 98.9524 199.434 98.4421C198.503 97.9317 197.463 97.6671 196.409 97.6717H158M208.347 70.3312C209.278 69.3721 210.424 68.6647 211.682 68.2716C212.941 67.8786 214.274 67.8119 215.563 68.0775C216.853 68.3431 218.059 68.9329 219.075 69.7946C220.092 70.6563 220.887 71.7634 221.39 73.018C221.894 74.2726 222.09 75.636 221.962 76.9876C221.834 78.3393 221.385 79.6375 220.656 80.7675C219.927 81.8975 218.939 82.8245 217.78 83.4664C216.621 84.1083 215.327 84.4453 214.013 84.4477H158" stroke="#9FA0AE" strokeWidth="4" strokeLinecap="round" strokeLinejoin="round"/>
<circle cx="190" cy="84" r="48.5" stroke="#9F9FAE" strokeWidth="3"/>
<circle cx="78" cy="84" r="48.5" stroke="#019CDF" strokeWidth="3"/>
<path d="M75.1518 51.7871V54.6363L73.6079 53.0947C72.4963 51.982 70.6918 51.982 69.578 53.0947C68.4663 54.2075 68.4663 56.0097 69.5802 57.1258L74.7441 62.2897C74.8711 62.4166 75.0092 62.5236 75.1518 62.6238V72.3579C73.9789 72.643 72.8449 73.1075 71.7834 73.7524L64.9009 66.8688C64.9332 66.6983 64.951 66.5268 64.951 66.3475L64.9543 59.0394C64.9543 57.4677 63.6778 56.189 62.1028 56.189C60.5301 56.189 59.2536 57.4677 59.2536 59.0394V61.2226L57.2386 59.2065C56.1247 58.0937 54.3203 58.0937 53.2086 59.2065C52.0948 60.3181 52.0948 62.1226 53.2086 63.2353L55.2259 65.2525H53.0438C51.4699 65.2525 50.1923 66.5268 50.1923 68.1007C50.1923 69.6735 51.4699 70.9488 53.0438 70.9488L60.3496 70.9499C60.5278 70.9522 60.7016 70.9299 60.8698 70.8987L67.7535 77.7824C67.1097 78.8428 66.6452 79.9778 66.3611 81.1496H56.6249C56.528 81.0081 56.4199 80.8689 56.2918 80.743L51.1246 75.5747C50.0152 74.462 48.2096 74.462 47.0969 75.5747C45.9841 76.6886 45.9841 78.493 47.0969 79.6069L48.6396 81.1496H45.7892C44.2164 81.1496 42.9399 82.4239 42.9399 83.9977C42.9399 85.5716 44.2164 86.847 45.7892 86.847H48.6396L47.0969 88.3908C45.9841 89.5069 45.9841 91.308 47.0969 92.4208C48.2096 93.5346 50.0119 93.5346 51.1246 92.4208L56.2918 87.2547C56.4199 87.1277 56.528 86.9885 56.6249 86.847H66.3611C66.6452 88.0199 67.1097 89.1572 67.7535 90.2142L60.8698 97.099C60.7005 97.0667 60.5278 97.0478 60.3496 97.0478L53.0438 97.0455C51.4699 97.0455 50.1923 98.3231 50.1923 99.897C50.1923 101.468 51.4699 102.745 53.0427 102.745H55.2259L53.2098 104.761C52.097 105.874 52.097 107.675 53.2086 108.791C54.3203 109.904 56.127 109.902 57.2397 108.789L59.2536 106.776V108.957C59.2536 110.529 60.5301 111.806 62.1028 111.806C63.6778 111.806 64.9543 110.529 64.9543 108.957L64.951 101.652C64.951 101.47 64.9332 101.298 64.9009 101.129L71.7834 94.2453C72.8427 94.8891 73.9789 95.3536 75.1518 95.6409V105.376C75.0092 105.472 74.8711 105.581 74.7441 105.709L69.5802 110.872C68.4663 111.985 68.4663 113.789 69.578 114.902C70.6918 116.017 72.4963 116.015 73.6079 114.902L75.1518 113.36V116.21C75.1518 117.782 76.426 119.061 78.0021 119.061C79.5727 119.058 80.8492 117.782 80.8492 116.21V113.36L82.3907 114.902C83.5057 116.017 85.3091 116.015 86.4218 114.902C87.5335 113.789 87.5335 111.987 86.4218 110.872L81.2557 105.709C81.1276 105.581 80.994 105.472 80.8492 105.376V95.6409C82.0232 95.3536 83.1571 94.8891 84.2175 94.2453L91.0989 101.129C91.07 101.298 91.0477 101.473 91.0477 101.652V108.957C91.0477 110.529 92.3242 111.806 93.8981 111.806C95.472 111.806 96.7473 110.529 96.7473 108.957V106.774L98.7612 108.791C99.8739 109.904 101.678 109.904 102.794 108.791C103.904 107.678 103.904 105.874 102.791 104.761L100.776 102.745H102.958C104.53 102.745 105.807 101.468 105.807 99.897C105.807 98.3231 104.533 97.0455 102.958 97.0478H95.6524C95.472 97.0478 95.2993 97.0689 95.13 97.099L88.2463 90.2142C88.8901 89.1572 89.3546 88.0199 89.6398 86.847H99.3772C99.473 86.9885 99.5821 87.1277 99.7091 87.2547L104.875 92.4208C105.989 93.5346 107.791 93.5346 108.905 92.4208C110.018 91.308 110.018 89.5036 108.903 88.3908L107.362 86.847H110.211C111.786 86.847 113.062 85.5716 113.062 83.9977C113.062 82.4239 111.786 81.1496 110.213 81.1496H107.361L108.903 79.6069C110.018 78.4941 110.018 76.6886 108.905 75.5747C107.79 74.462 105.988 74.462 104.875 75.5747L99.7091 80.743C99.5821 80.8689 99.473 81.0059 99.3772 81.1496H89.6398C89.3546 79.9778 88.8901 78.8394 88.2463 77.7824L95.13 70.8987C95.2993 70.9277 95.4742 70.9499 95.6524 70.9499H102.958C104.533 70.9499 105.807 69.6735 105.807 68.1007C105.807 66.529 104.53 65.2514 102.958 65.2514H100.776L102.791 63.2353C103.904 62.1226 103.904 60.3181 102.791 59.2054C101.678 58.0926 99.8739 58.0937 98.7612 59.2065L96.7473 61.2226V59.0394C96.7451 57.4677 95.4697 56.189 93.8981 56.189C92.3242 56.189 91.0477 57.4677 91.0477 59.0394V66.3475C91.0477 66.5246 91.07 66.6983 91.0989 66.8688L84.2175 73.7524C83.1571 73.1075 82.0209 72.643 80.8492 72.3568L80.8503 62.6238C80.9929 62.5236 81.131 62.4166 81.2557 62.2897L86.4218 57.1258C87.5335 56.0097 87.5335 54.2075 86.4218 53.0947C85.3091 51.982 83.5035 51.982 82.3907 53.0947L80.8503 54.6363L80.8492 51.7871C80.8492 50.2143 79.5749 48.9389 77.9988 48.9389C76.426 48.9389 75.1518 50.2143 75.1518 51.7871M73.8095 88.187C71.4972 85.8757 71.4972 82.1209 73.8095 79.8096C76.1242 77.495 79.8756 77.495 82.1903 79.8096C84.5049 82.1231 84.5049 85.8757 82.1903 88.1903C81.0329 89.3465 79.517 89.9257 78.001 89.9257C76.4839 89.9257 74.9668 89.3465 73.8095 88.187Z" fill="url(#paint1_linear_144_3)"/>
<defs>
<radialGradient id="paint0_diamond_144_3" cx="0" cy="0" r="1" gradientUnits="userSpaceOnUse" gradientTransform="translate(135 155.5) rotate(90) scale(78.5)">
<stop stop-color="#FF7F00"/>
<stop offset="1" stop-color="#FFDA00"/>
</radialGradient>
<linearGradient id="paint1_linear_144_3" x1="117.976" y1="361.04" x2="117.976" y2="427.141" gradientUnits="userSpaceOnUse">
<stop stop-color="#009BDE"/>
<stop offset="0.520833" stop-color="#606C93"/>
<stop offset="1" stop-color="#BBC1D6"/>
</linearGradient>
</defs>
</svg>
