<svg width="396" height="294" viewBox="0 0 396 294" fill="none" xmlns="http://www.w3.org/2000/svg">
<path fill-rule="evenodd" clip-rule="evenodd" d="M114.277 272.949C113.131 274.541 111.986 276.133 111.023 277.474C110.946 276.166 110.841 274.317 110.733 272.468C110.599 272.449 110.465 272.429 110.329 272.407C110.066 274.136 109.806 275.861 109.545 277.589C109.403 277.579 109.262 277.567 109.121 277.555C108.901 276.519 108.683 275.479 108.24 273.386C107.687 276.479 107.321 278.53 106.757 281.684C106.26 279.616 106.015 278.594 105.519 276.535C104.851 279.04 104.448 280.548 104.11 281.817C102.77 280.929 101.383 280.013 99.8428 278.992C99.1314 280.434 98.6519 281.411 97.8682 282.993C97.724 281.271 97.6324 280.185 97.4557 278.064C96.5485 280.078 96.0714 281.138 95.5934 282.199C95.3217 282.15 95.0507 282.1 94.7794 282.048C95.1466 279.378 95.5151 276.706 95.8824 274.036C95.7927 274.008 95.7034 273.98 95.6167 273.953C94.9212 275.838 94.227 277.724 93.1722 280.583C93.2141 278.446 93.2373 277.319 93.267 275.746C91.5077 276.319 89.9068 276.841 88.2209 277.39C87.888 276.867 87.3702 276.046 86.8362 275.2C86.3519 275.715 85.8149 276.288 84.8261 277.343C85.1263 275.218 85.3328 273.756 85.6118 271.776C84.9053 272.441 84.5099 272.814 83.8599 273.426C84.4985 271.228 85.0605 269.291 85.6225 267.355C85.489 267.303 85.3555 267.251 85.2209 267.197C84.1488 269.439 83.0756 271.68 81.6875 274.576C81.4182 273.281 81.2778 272.605 81.1241 271.873C80.6692 272.312 80.234 272.733 79.2093 273.728C80.1356 271.773 80.7365 270.509 81.1896 269.555C79.999 269.049 79.0125 268.631 77.9049 268.163C78.8296 266.275 79.6546 264.59 80.8881 262.068C78.8744 263.818 77.537 264.981 77.0434 265.411C75.2818 264.858 74.1922 264.516 72.9585 264.129C80.4009 251.201 88.0806 237.83 95.7949 224.479C97.9318 220.78 100.083 217.085 102.383 213.486C104.325 210.449 104.753 207.03 105.742 203.715C107.514 197.788 106.349 192.221 106.3 186.485C106.264 182.272 109.997 179.884 113.992 181.308C115.233 181.751 116.509 182.094 118.035 182.566C122.779 168.918 127.442 155.163 132.34 141.491C142.034 114.433 151.898 87.4368 161.594 60.378C163.327 55.5432 164.53 50.5207 166.056 45.6096C167.078 42.3264 170.008 40.8971 172.818 42.3378C175.919 43.9276 175.509 46.7682 173.968 48.7774C164.079 61.6626 160.462 77.2783 154.941 92.0281C144.25 120.593 133.942 149.3 123.447 177.939C122.474 180.594 122.054 182.694 124.379 185.297C125.297 186.324 123.71 189.908 122.81 192.146C122.076 193.97 120.369 195.403 119.643 197.226C119.008 198.829 119.354 200.796 118.871 202.487C118.135 205.064 117.014 207.53 116.143 210.072C115.742 211.244 115.205 212.515 115.303 213.692C116.788 231.336 118.442 248.968 119.861 266.617C120.1 269.58 119.432 272.613 119.18 275.614C118.722 275.709 118.262 275.804 117.804 275.897C116.609 274.876 115.414 273.854 114.217 272.834L114.277 272.949Z" fill="black"/>
<path fill-rule="evenodd" clip-rule="evenodd" d="M284.312 265.688H311.875C316.946 265.688 321.062 261.571 321.062 256.5V228.938L294.235 215.524C292.572 214.688 291.571 212.942 291.708 211.086C291.837 209.239 293.068 207.641 294.832 207.053L333.153 194.282C336.911 193.033 339.438 189.523 339.438 185.563V164.625C303.027 176.762 265.855 190.488 229.821 201.182C229.399 201.311 228.958 201.375 228.517 201.375H211.557C211.557 201.375 211.162 201.43 210.454 201.237L100.562 164.625V185.563C100.562 189.523 103.089 193.033 106.847 194.282L145.214 207.071C146.978 207.659 148.209 209.249 148.337 211.105C148.475 212.96 147.474 214.706 145.811 215.542C145.811 215.542 118.956 230.656 118.956 228.919V256.482C118.947 258.925 119.921 261.259 121.639 262.986C123.366 264.714 125.699 265.688 128.143 265.688H155.688V250.62C155.688 248.645 156.955 246.89 158.83 246.265L210.105 229.176C210.574 229.02 211.061 228.938 211.557 228.938H228.453C228.563 228.938 229.481 229.029 229.922 229.176L281.17 246.265C283.421 247.147 284.616 248.764 284.312 250.629V265.688V265.688Z" fill="#8AC4D0"/>
<path fill-rule="evenodd" clip-rule="evenodd" d="M318.021 173.978C319.795 173.482 321.072 172.049 321.072 170.358V162.227C321.072 158.515 318.977 155.033 315.449 152.902C311.93 150.77 307.428 150.265 303.386 151.533L220 182.761L136.623 151.533C132.581 150.256 128.079 150.77 124.551 152.902C121.032 155.042 118.938 158.525 118.938 162.236C118.938 166.49 118.947 170.376 118.947 170.376C118.947 171.993 120.123 173.427 121.887 173.96L209.756 200.502C210.225 200.64 210.721 200.714 211.208 200.714H228.792C229.279 200.714 229.775 200.64 230.244 200.502L318.021 173.978V173.978Z" fill="#28527A"/>
<path fill-rule="evenodd" clip-rule="evenodd" d="M210.812 238.584C210.812 240.872 212.181 242.719 213.872 242.719H226.128C227.819 242.719 229.188 240.872 229.188 238.584V205.509C229.188 203.231 227.819 201.375 226.128 201.375H213.872C212.181 201.375 210.812 203.231 210.812 205.509V238.584V238.584Z" fill="#F4D160"/>
<path fill-rule="evenodd" clip-rule="evenodd" d="M145.618 120.571C159.271 123.989 186.447 132.193 201.625 146.25C201.625 146.25 201.625 146.25 201.634 146.259C208.856 152.92 213.312 158.736 216.04 163.394C216.867 164.8 218.374 165.672 220 165.672C221.635 165.663 223.142 164.8 223.969 163.394C226.688 158.736 231.144 152.92 238.366 146.259C238.375 146.25 238.375 146.25 238.375 146.25C253.553 132.193 280.729 123.989 294.364 120.497C294.354 120.497 294.364 120.497 294.364 120.497C299.022 119.34 303.781 121.967 305.297 126.515L311.875 149.98L220.009 183L128.125 150.844C128.125 150.844 131.984 134.665 134.758 126.57C134.758 126.561 134.768 126.552 134.768 126.543C136.274 122.023 140.997 119.423 145.618 120.571V120.571Z" fill="#FBEEAC"/>
<path fill-rule="evenodd" clip-rule="evenodd" d="M206.219 235.314V242.719C206.219 245.255 208.277 247.313 210.812 247.313H229.188C231.723 247.313 233.781 245.255 233.781 242.719V235.304L279.719 250.62V265.688C279.719 268.223 281.777 270.281 284.312 270.281H311.875C319.482 270.281 325.656 264.107 325.656 256.5V228.938C325.656 227.201 324.673 225.602 323.121 224.831L296.284 211.417L334.605 198.637C340.237 196.763 344.031 191.498 344.031 185.563V164.625C344.031 163.146 343.324 161.759 342.12 160.895C340.926 160.031 339.382 159.802 337.986 160.27C333.879 161.639 329.763 163.026 325.656 164.423V159.37C325.656 154.877 323.46 150.66 319.785 148.088C318.747 147.362 317.636 146.792 316.469 146.379C316.487 145.855 312.371 133.213 309.652 125.064C307.382 118.237 300.244 114.305 293.261 116.042C293.243 116.042 293.234 116.042 293.224 116.051C279.094 119.671 250.989 128.307 235.251 142.878C227.589 149.943 222.885 157.615 220 164.34C217.115 157.624 212.411 149.953 204.74 142.878C189.001 128.298 160.888 119.661 146.73 116.115C146.73 116.115 146.73 116.115 146.721 116.115C139.775 114.388 132.673 118.292 130.413 125.082C127.638 133.195 123.522 145.855 123.531 146.369C122.364 146.783 121.253 147.353 120.215 148.078C116.54 150.66 114.344 154.868 114.344 159.37V164.377L102.014 160.27C100.618 159.802 99.0741 160.031 97.8797 160.895C96.6762 161.759 95.9688 163.146 95.9688 164.625V185.563C95.9688 191.498 99.7632 196.763 105.395 198.637L143.762 211.426L116.953 224.831C115.4 225.602 114.417 227.192 114.417 228.928C114.417 228.928 114.38 245.585 114.362 256.472C114.353 260.129 115.805 263.648 118.386 266.239C120.977 268.83 124.487 270.281 128.143 270.281C139.031 270.281 155.688 270.281 155.688 270.281C158.223 270.281 160.281 268.223 160.281 265.688V250.62L206.219 235.314V235.314ZM283.963 215.524L243.722 228.938L285.764 242.958C287.638 243.582 288.906 245.337 288.906 247.313V261.094H311.875C314.411 261.094 316.469 259.036 316.469 256.5V231.776L283.963 215.524V215.524ZM156.083 215.533L123.596 231.776L123.55 256.491C123.55 257.713 124.027 258.88 124.891 259.743C125.755 260.607 126.921 261.094 128.143 261.094H151.094V247.313C151.094 245.337 152.362 243.582 154.236 242.958L196.287 228.938L156.083 215.533ZM215.406 238.125V205.969H224.594C224.594 205.978 224.594 238.125 224.594 238.125H215.406ZM206.219 222.561V204.683L105.156 171.001V185.563C105.156 187.539 106.424 189.303 108.298 189.927L206.219 222.561ZM233.781 222.561L331.702 189.927C333.576 189.303 334.844 187.539 334.844 185.563C334.844 179.059 334.844 174.924 334.844 171.01C301.116 182.375 267.169 194.76 233.781 204.802V222.561ZM316.469 167.565V159.37C316.469 157.872 315.734 156.467 314.512 155.612C313.281 154.748 311.71 154.546 310.304 155.052L221.654 187.281C220.606 187.686 219.467 187.686 218.438 187.318L129.696 155.052C128.29 154.537 126.719 154.748 125.488 155.603C124.266 156.467 123.531 157.872 123.531 159.37V167.436L211.557 196.781H228.517C257.568 188.154 287.05 177.662 316.469 167.565V167.565ZM307.097 146.443L300.942 127.967C300.179 125.688 297.809 124.384 295.475 124.953C282.337 128.325 256.107 136.089 241.499 149.622C241.49 149.622 241.49 149.622 241.49 149.631C231.466 158.874 227.378 169.311 225.724 176.027L307.097 146.443V146.443ZM210.454 165.581C207.955 160.463 204.179 154.859 198.51 149.631C198.51 149.622 198.51 149.622 198.501 149.622C183.884 136.089 157.654 128.325 144.506 125.027C142.219 124.466 139.876 125.753 139.132 127.994C139.122 128.004 139.122 128.013 139.113 128.031C136.89 134.518 133.977 143.227 132.902 146.443L204.299 172.407C193.384 162.622 179.722 155.456 163.561 150.651C161.136 149.934 159.748 147.371 160.474 144.936C161.191 142.511 163.754 141.123 166.189 141.849C183.755 147.077 198.584 154.923 210.454 165.581V165.581ZM291.957 132.735C262.749 143.172 260.443 147.876 254.389 151.496C252.211 152.801 251.504 155.621 252.809 157.799C254.113 159.976 256.934 160.684 259.111 159.379C264.899 155.906 267.095 151.377 295.043 141.39C297.432 140.535 298.682 137.908 297.827 135.519C296.973 133.13 294.345 131.881 291.957 132.735V132.735Z" fill="black"/>
<path d="M165.502 23.6193C165.502 23.6193 148.77 20.4966 155.834 61.4991C157.753 72.6367 171.253 98.9132 182.922 92.9847L165.502 23.6193Z" fill="#464648"/>
<path d="M181.452 42.4634C181.452 42.4634 178.54 34.2674 173.941 28.7668C169.349 23.2619 166.007 21.2775 162.029 25.1882C155.867 31.2518 154.876 48.0129 158.706 62.9021C162.536 77.7924 174.358 94.6048 180.952 93.3407C180.952 93.3407 192.594 95.4998 185.424 63.1828L181.452 42.4634V42.4634Z" fill="url(#paint0_radial_114_222)"/>
<path d="M173.223 60.64C171.305 54.4558 171.728 41.397 176.857 41.3898C176.857 41.3898 215.108 44.8006 213.761 47.9892L199.968 67.7196L202.133 56.0788L182.453 70.5884C182.452 70.5886 177.072 73.0885 173.223 60.64V60.64Z" fill="url(#paint1_linear_114_222)"/>
<path d="M171.379 40.8462C171.379 40.8462 164.467 43.8219 169.965 60.4902C169.965 60.4902 174.656 72.8034 180.872 72.112L184.996 68.5883C184.996 68.5883 177.667 66.0121 175.356 56.5041C173.045 46.995 176.837 41.2924 176.837 41.2924L171.379 40.8462Z" fill="url(#paint2_linear_114_222)" stroke="#F6B81B" strokeWidth="2.13333"/>
<path opacity="0.6" d="M202.132 56.0789L206.676 51.7863L199.967 67.7197L202.132 56.0789Z" fill="#65696C"/>
<path d="M168.933 62.1039L167.452 54.3819C167.025 52.1504 175.113 50.5997 175.542 52.8326L177.021 60.5532C177.449 62.7846 169.361 64.3353 168.933 62.1039Z" fill="url(#paint3_linear_114_222)" stroke="#EDAD35" strokeWidth="4.26667"/>
<path d="M377.041 266.471C373.033 270.479 368.834 270.455 366.229 267.851C363.624 265.246 363.601 261.047 367.609 257.038C371.617 253.03 380.743 253.336 380.743 253.336C380.743 253.336 381.049 262.462 377.041 266.471Z" fill="#FA6D62"/>
<path d="M371.365 267.195C369.461 269.099 367.466 269.088 366.229 267.851C364.992 266.613 364.98 264.619 366.884 262.715C368.716 261.462 370.907 260.844 373.123 260.956C373.235 263.172 372.617 265.364 371.365 267.195Z" fill="#FFF4AB"/>
<path d="M344.102 266.471C348.11 270.479 352.309 270.455 354.914 267.851C357.519 265.246 357.542 261.047 353.534 257.038C349.526 253.03 340.399 253.336 340.399 253.336C340.399 253.336 340.094 262.462 344.102 266.471Z" fill="#FA6D62"/>
<path d="M349.778 267.195C351.682 269.099 353.676 269.088 354.914 267.851C356.151 266.613 356.162 264.619 354.258 262.715C352.427 261.462 350.235 260.844 348.019 260.956C347.907 263.172 348.525 265.364 349.778 267.195Z" fill="#FFF4AB"/>
<path d="M333.986 215.889C331.278 220.56 329.849 225.861 329.841 231.26C329.834 236.659 331.249 241.965 333.945 246.643C336.64 251.321 340.52 255.206 345.194 257.908C349.869 260.61 355.173 262.032 360.571 262.032C365.97 262.032 371.274 260.61 375.949 257.908C380.623 255.206 384.503 251.321 387.198 246.643C389.894 241.965 391.309 236.659 391.302 231.26C391.294 225.861 389.865 220.56 387.157 215.889H333.986Z" fill="#4B5661"/>
<path d="M343.286 212.048C346.468 212.048 349.048 209.468 349.048 206.286C349.048 203.103 346.468 200.524 343.286 200.524C340.104 200.524 337.524 203.103 337.524 206.286C337.524 209.468 340.104 212.048 343.286 212.048Z" fill="#67C7A5"/>
<path d="M356.73 196.683C358.851 196.683 360.571 194.963 360.571 192.841C360.571 190.72 358.851 189 356.73 189C354.608 189 352.889 190.72 352.889 192.841C352.889 194.963 354.608 196.683 356.73 196.683Z" fill="#67C7A5"/>
<path d="M362.492 223.571C367.796 223.571 372.095 219.272 372.095 213.968C372.095 208.665 367.796 204.365 362.492 204.365C357.188 204.365 352.889 208.665 352.889 213.968C352.889 219.272 357.188 223.571 362.492 223.571Z" fill="#67C7A5"/>
<path d="M391.302 223.571H329.841C328.823 223.571 327.845 223.167 327.125 222.446C326.405 221.726 326 220.749 326 219.73C326 218.711 326.405 217.734 327.125 217.014C327.845 216.294 328.823 215.889 329.841 215.889H391.302C392.32 215.889 393.297 216.294 394.018 217.014C394.738 217.734 395.143 218.711 395.143 219.73C395.143 220.749 394.738 221.726 394.018 222.446C393.297 223.167 392.32 223.571 391.302 223.571Z" fill="#4B5661"/>
<path d="M381.698 204.365C384.881 204.365 387.46 201.785 387.46 198.603C387.46 195.421 384.881 192.841 381.698 192.841C378.516 192.841 375.937 195.421 375.937 198.603C375.937 201.785 378.516 204.365 381.698 204.365Z" fill="#67C7A5"/>
<path d="M367.241 261.045C367.241 266.714 364.255 269.667 360.571 269.667C356.888 269.667 353.902 266.714 353.902 261.045C353.902 255.377 360.571 249.14 360.571 249.14C360.571 249.14 367.241 255.377 367.241 261.045Z" fill="#FA6D62"/>
<path d="M363.739 265.572C363.739 268.264 362.321 269.667 360.571 269.667C358.821 269.667 357.403 268.264 357.403 265.572C357.812 263.391 358.925 261.404 360.571 259.916C362.217 261.404 363.33 263.391 363.739 265.572V265.572Z" fill="#FFF4AB"/>
<path d="M91.2001 160.97C94.0721 160.97 96.4003 155.848 96.4003 149.53C96.4003 143.212 94.0721 138.09 91.2001 138.09C88.3282 138.09 86 143.212 86 149.53C86 155.848 88.3282 160.97 91.2001 160.97Z" fill="#4B5661"/>
<path d="M114.08 160.97C116.952 160.97 119.281 155.848 119.281 149.53C119.281 143.212 116.952 138.09 114.08 138.09C111.209 138.09 108.88 143.212 108.88 149.53C108.88 155.848 111.209 160.97 114.08 160.97Z" fill="#4B5661"/>
<path d="M102.64 165.13C99.3305 165.13 96.1561 163.815 93.8156 161.475C91.475 159.134 90.1602 155.96 90.1602 152.65V140.17C90.1602 136.86 91.475 133.685 93.8156 131.345C96.1561 129.004 99.3305 127.689 102.64 127.689V127.689C105.95 127.689 109.125 129.004 111.465 131.345C113.806 133.685 115.121 136.86 115.121 140.17V152.65C115.121 155.96 113.806 159.134 111.465 161.475C109.125 163.815 105.95 165.13 102.64 165.13Z" fill="#4B5661"/>
<path d="M115.121 140.17L104.721 133.929L113.345 125.305C113.491 125.159 113.676 125.06 113.878 125.02C114.08 124.98 114.289 125 114.479 125.079C114.669 125.158 114.831 125.291 114.946 125.462C115.06 125.633 115.121 125.834 115.121 126.04V140.17Z" fill="#4B5661"/>
<path d="M90.1602 140.17L99.8528 133.41L91.9426 125.346C91.7979 125.199 91.6127 125.098 91.4104 125.056C91.2081 125.014 90.998 125.034 90.8068 125.112C90.6156 125.19 90.452 125.323 90.3369 125.495C90.2217 125.666 90.1602 125.868 90.1602 126.074V140.17Z" fill="#4B5661"/>
<path d="M96.9204 142.77C99.2179 142.77 101.08 140.907 101.08 138.61C101.08 136.312 99.2179 134.449 96.9204 134.449C94.6228 134.449 92.7603 136.312 92.7603 138.61C92.7603 140.907 94.6228 142.77 96.9204 142.77Z" fill="#FFF4AB"/>
<path d="M96.9204 140.17C97.782 140.17 98.4804 139.471 98.4804 138.61C98.4804 137.748 97.782 137.049 96.9204 137.049C96.0588 137.049 95.3604 137.748 95.3604 138.61C95.3604 139.471 96.0588 140.17 96.9204 140.17Z" fill="#4B5661"/>
<path d="M108.36 142.77C110.658 142.77 112.52 140.907 112.52 138.61C112.52 136.312 110.658 134.449 108.36 134.449C106.063 134.449 104.2 136.312 104.2 138.61C104.2 140.907 106.063 142.77 108.36 142.77Z" fill="#FFF4AB"/>
<path d="M108.36 140.17C109.222 140.17 109.92 139.471 109.92 138.61C109.92 137.748 109.222 137.049 108.36 137.049C107.499 137.049 106.8 137.748 106.8 138.61C106.8 139.471 107.499 140.17 108.36 140.17Z" fill="#4B5661"/>
<path d="M102.64 148.49L100.56 144.33C100.56 143.582 104.72 143.582 104.72 144.33L102.64 148.49Z" fill="#FFF4AB"/>
<defs>
<radialGradient id="paint0_radial_114_222" cx="0" cy="0" r="1" gradientUnits="userSpaceOnUse" gradientTransform="translate(171.202 58.7482) rotate(79.1496) scale(27.1072 27.1071)">
<stop stop-color="#716E6E"/>
<stop offset="1" stop-color="#0D0D0D"/>
</radialGradient>
<linearGradient id="paint1_linear_114_222" x1="190.485" y1="38.7259" x2="196.181" y2="68.4463" gradientUnits="userSpaceOnUse">
<stop stop-color="#9B9C9E"/>
<stop offset="0.0169" stop-color="#969799"/>
<stop offset="0.1754" stop-color="#6C6D6E"/>
<stop offset="0.3366" stop-color="#4A4A4B"/>
<stop offset="0.4988" stop-color="#2F2F30"/>
<stop offset="0.6623" stop-color="#1C1C1C"/>
<stop offset="0.8283" stop-color="#111111"/>
<stop offset="1" stop-color="#0D0D0D"/>
</linearGradient>
<linearGradient id="paint2_linear_114_222" x1="172.672" y1="40.5992" x2="178.789" y2="72.5114" gradientUnits="userSpaceOnUse">
<stop stop-color="#FABD0E"/>
<stop offset="0.1217" stop-color="#FBC11D"/>
<stop offset="0.3542" stop-color="#FDCD44"/>
<stop offset="0.5" stop-color="#FFD55F"/>
<stop offset="1" stop-color="#FBC01D"/>
</linearGradient>
<linearGradient id="paint3_linear_114_222" x1="173.717" y1="66.2896" x2="169.441" y2="40.7903" gradientUnits="userSpaceOnUse">
<stop stop-color="#0E0E0E"/>
<stop offset="0.093" stop-color="#1D1D1D"/>
<stop offset="0.2715" stop-color="#434443"/>
<stop offset="0.5" stop-color="#7D7E7D"/>
<stop offset="1" stop-color="#171716"/>
</linearGradient>
</defs>
</svg>
